<?xml version="1.0" encoding="utf-8"?>
<!-- Generator: Adobe Illustrator 23.0.5, SVG Export Plug-In . SVG Version: 6.00 Build 0)  -->
<svg version="1.1" id="Layer_1" xmlns="http://www.w3.org/2000/svg" xmlns:xlink="http://www.w3.org/1999/xlink" x="0px" y="0px"
	 viewBox="0 0 1000 1000" style="enable-background:new 0 0 1000 1000;" xml:space="preserve">
<style type="text/css">
	.st0{fill:#425338;}
	.st1{fill:#665C39;}
	.st2{fill:#587545;}
	.st3{fill:#1C222F;}
	.st4{fill:#A2B36E;}
</style>
<g id="bg">
	<g>
		<path class="st0" d="M565.9,199.6c86.1,7.5,172.5-9.2,258.9-9.4c27.1-0.1,59.5,4.9,70.7,29.5c10,22-4,48.7-24.3,61.9
			c-20.3,13.1-45.1,16.4-68.8,21c-41.8,8.1-82.6,21-121.3,38.6c-32.1,14.5-64.2,32.6-99.4,33.1c-22.7,0.3-44.7-6.8-67-10.5
			c-76-12.8-153.7,12.7-230.5,6.2c-25.1-2.1-50.8-8.1-70.5-23.8c-19.7-15.7-31.7-43-23.6-66.8c13.7-40.4,102.5-83,141.7-93.2
			C408.7,165.9,489,192.9,565.9,199.6z"/>
		<path class="st1" d="M138.7,73.3c21.4,3.7,23.3,35.2,39.1,50.1s48.3,14.7,69.8,17.6c22,3,45.9-7.7,65.8,2.1
			c-6,6-10.4,13.6-12.4,21.9c18.5,3.2,37.3-1.6,56-2.4c18.7-0.8,40,3.9,49.6,20c13.4,22.2-0.5,57.4,20.3,73
			c4.8,3.6,11.8,7.1,10.9,13c-0.3,1.9-1.4,3.5-2.6,5c-11.1,12.9-34.5,11.7-44.2-2.4c-4.3-6.3-5.9-14.2-10-20.7
			c-12.7-19.9-42.1-18.6-64.7-11.8c-22.6,6.8-47.6,16.6-68.7,6c-15.3-7.6-25.6-25-42.5-27.8c-21.1-3.5-40.7,18-61.7,13.9
			c-11.3-2.2-19.8-11.2-27.4-19.8c-16.9-18.9-34.8-40.1-35.4-65.5c-0.1-4.8,0.3-9.9-1.9-14.2c-2.2-4.2-6.7-6.8-11-8.9
			c-11.8-5.7-25.2-10.3-32.8-21s-4.1-29.9,9-31.3c20.9-2.2,24,33.4,44.5,29.4c6.3-1.2,14.2-17,20.8-20.9
			C118,73.7,128.8,71.6,138.7,73.3z"/>
		<path class="st2" d="M641.4,55.8c37.6,26.5,73.6,58.2,118.1,70c4.5,1.2,9.4,2.3,12.8,5.5c11.6,10.8-3.3,29.2-17.5,36.4
			c-50,25.4-108.5,33.6-163.5,22.8c-37.2-7.3-76.4-22.8-111.4-8.3c-17.6,7.3-33.6,22-52.5,20.2c-14.7-1.4-26.4-12.4-39.6-19
			c-25.2-12.5-54.9-8.5-83.1-8.4c-28.1,0.1-60.3-6.6-74-31.2c-4.5-8.1-6.4-18.6-1.8-26.7c7.9-14,27.9-12.9,44-12.7
			c25.7,0.2,51.5-7.2,73.2-21c20-12.8,36.5-30.8,57.5-41.8c31.9-16.8,86.3-28.8,121.8-34.8C570.9-1,604.9,30.1,641.4,55.8z"/>
		<path class="st3" d="M606.3,314.8c44.8,10.5,90-31.6,134.6-20.2c36,9.2,59.3,51,96.4,52.9c11.7,0.6,24-3,34.7,1.8
			c15.3,6.7,19.3,26.7,17.7,43.4c-1.6,16.6-6.7,33.7-1.6,49.7c5.8,18.1,22.9,29.6,36.4,43s24.3,34.7,14.1,50.8
			c-8.8,13.8-27.8,15.7-44.1,16.2c-17,0.5-33.9,1-50.9,1.5c-33.9,1-73.1-0.4-94-27c-8-10.1-12.1-22.6-17-34.5
			c-13.9-33.6-39.9-66.5-76-70.8c-22-2.6-43.7,6-65.7,8.6c-55.6,6.4-58.6-35-58.5-78.3C532.5,302.1,562.2,304.4,606.3,314.8z"/>
		<path class="st0" d="M741.3,216.4c-6.6,7.4-11.6,18.3-21.5,19c-9.1,0.6-16.3-8.3-25.3-9.1c-13.6-1.2-21,14.9-30.2,25
			c-12.8,13.9-32.9,17.7-51.5,20.6c-10,1.6-20.5,3.2-30.2,0.3c-20.8-6.1-31.1-29.5-49-41.8c-35.1-24-90-0.3-121.7-28.5
			c-2.1-1.9-4.1-4.1-4.7-6.8c-1.6-7,6.6-12.7,13.7-12.5c7.2,0.2,13.7,4,20.7,5.4c19.3,4,37.5-9.7,51.2-23.9
			c13.6-14.2,27.2-30.7,46.4-34.9c32.9-7.1,60.9,24.9,93.7,32.7c30.1,7.2,62.7-6.6,92.3,2.7c7.8,2.4,15.2,6.4,23.3,7.9
			c11.5,2.1,23.3-1,34.6-4.1s23.1-6.3,34.6-4.2s22.7,11.2,23,22.9C841.5,219.8,761,194.2,741.3,216.4z"/>
		<path class="st4" d="M967,0c-8.4,5.9-16.1,13-22.5,21c-12.8,15.8,23.5,60.8,9.7,75.8s-80.7-0.5-98.8-9.7
			c-7.5-3.8-13.1-10.3-20.1-15.1c-24.7-16.9-64.2-2.8-72.6,26c-5.1,17.6,39.8,28.9,34.4,46.3c-5.9,19-63.1,40.3-81.3,48.3
			c-9.2,4.1-21,6.8-28.5,0.2c-7.7-6.8-6.1-18.9-5.3-29.1c2.5-29.2-11.7-64-40.7-68.6c-10.2-1.6-21.4,0.7-30.4-4.4
			c-13.8-7.9-13.8-27.4-20.3-41.9C579.3,23.6,549,15.2,525.6,0H967z"/>
		<path class="st4" d="M685.8,292.3c30.9-18.3,72.2,1.9,107.3-5.5c41-8.7,60.9-35,95-52.3c30.2-15.3,77.7-14.1,111.8-8.8v335.7
			c-13.1,4.7-26.4,9.8-40.2,12.1c-38.3,6.4-106.7-32.6-88.3-80.9c6.7-17.5,26.2-24.3,44.2-29.3c6.7-1.9,14.9-5.8,14.2-12.7
			c-0.6-5.5-6.6-8.4-11.8-10.2c-43.8-15.8-92.1-31.6-135.9-15.9c-8.2,2.9-16.5,7-25.1,5.7c-16.3-2.5-23.7-23.9-17.4-39.1
			s21.3-24.8,36.1-32c5.6-2.8,12-10.1,7-13.8c-1-0.7-2.3-1-3.6-1.3c-18.2-3.8-36.5-7.7-54.7-11.5c-10.6-2.2-21.5-4.6-30-11.3
			C685.9,314.2,676.5,297.8,685.8,292.3z"/>
		<path class="st1" d="M985,244.8c5.1,0.2,10.3,0.5,15,2.4v81.2c-5.5-8.1-11.3-15.9-19.5-21.2c-20.8-13.6-48.1-7-72.9-7.3
			c-13.2-0.2-29.1-4.9-32.1-17.8C865.8,239.4,963.7,243.9,985,244.8z"/>
		<path class="st2" d="M878.1,218.7c24.3-21.9,48.5-43.8,72.8-65.8c12-10.8,24.1-21.8,38.7-28.7c3.4-1.6,6.9-3,10.5-4.1v146.5
			c-7.4-5.8-17.3-8.8-26.8-9c-15.1-0.3-29.7,4.8-44.4,8.4c-19.6,4.8-39.9,6.9-60.1,6.2c-9.1-0.3-18.7-1.4-26-6.8
			C814,244.2,866.5,229.2,878.1,218.7z"/>
		<path class="st0" d="M858.5,70.4c9.8-5.1,21.8-1.2,31.6,3.8S910,85.4,921,84.9s22.1-12.1,17.2-22c-2.4-4.8-7.5-7.5-11.7-10.9
			c-13.6-10.9-17.2-32.3-8-47.1c1.1-1.8,2.4-3.4,3.8-4.9h54.9c7.4,6.4,14.2,13.8,22.8,17.9v153.7c-22.7,15.8-59,0.2-71,25.3
			c-4.6,9.5-5.8,20.6-11.5,29.4c-10.6,16.4-36.6,19.6-50.9,6.4c-14.3-13.2-13-39.5,2.6-51.2c10.1-7.6,23.5-9,34.8-14.6
			s20.9-19.8,14-30.4c-5.1-7.9-16-8.8-25.3-9.8c-14.7-1.7-30.1-6.3-39.2-17.9C844.3,97.3,845.3,77.2,858.5,70.4z"/>
		<path class="st0" d="M868.6,399.1c14.6,3.5,29.3,10.2,43.9,6.8c21.4-4.9,33.5-29.4,54.6-35.5c10.9-3.1,21.8-0.8,32.8,2.6v41.1
			c-10.8,7.1-20.7,16.2-30.2,24.9c-10.1,9.3-20.5,18.7-33,24.4c-12.5,5.7-27.6,7.3-39.8,1.1c-8.6-4.4-15-12.2-22.5-18.3
			c-19.7-16-96.3-5-97.3-20.1C775.4,396.4,853.9,395.5,868.6,399.1z"/>
		<path class="st4" d="M113.5,0h199c0.9,0.6,1.9,1.1,2.8,1.7c8.8,5.5,17.2,11.8,26.5,16.5c10.6,5.4,22.1,8.7,33.6,11.5
			c31.2,7.5,63.3,11.1,95.3,10.9c7.1,16.1-6.1,33.7-19.3,45.3c-17.2,15-37.3,28.1-60,31c-24.1,3-48.2-5.8-72.5-4.8
			c-18.2,0.7-35.6,6.9-53.2,11.4c-17.6,4.4-43.8,18.2-60.8,11.9c-17.1-6.3-39.3-25.6-36-43.5C117.6,92.2,72.3,34.4,113.5,0z"/>
		<path class="st4" d="M0,225.7c2.2,0.3,4.3,0.7,6.4,1c20.1,3.6,39.5,10.8,59.8,12.9c21.2,2.2,42.7-1.3,64-0.9
			c36.7,0.7,73.1,13.5,102.3,35.7c30.1,23,55.4,57,92.8,62.9c14.7,2.3,27.7-13.1,42.6-13.9c11.3-0.6,22.1,5.6,33.4,5.3
			c32.8-1,42.7-50.6,74-60.4c6.2-2,12.8-2.1,19.2-3.2c21.7-3.7,40.1-17.2,59.6-27.3c19.5-10.2,49.6-24.6,63-7.2
			c4.1,5.3-5,12.2-11.4,14.2c-6.3,2-13.4,2.1-19.1,5.6c-5.7,3.5-9.6,15.1-3.1,16.6c24,5.3,53.6-7,71.7,9.4c6.4,5.8-1.1,17.6-9,21.2
			c-7.9,3.5-17,2.4-25.6,1.1c-13.7-2-27.5-4-41.2-6c-11.8-1.7-24.2-3.4-35.5,0.4s-27.3,24-19.7,33.3c15.4,18.8,45.2,23.7,52.8,46.7
			c2.9,8.8,3.8,18.9,10.1,25.7c11,11.7,33.5,8.4,41.6,22.3c9.4,16.2-14.3,34.5-32.6,29.9c-18.2-4.5-31.1-20.3-46.7-30.7
			c-37.2-24.8-87.9-17.1-127.8,3.1s-73.3,51.2-111.7,74c-10.2,6.1-22.1,11.7-33.5,8.5c-6.7-1.9-12.2-6.6-18.8-8.8
			c-17.2-5.7-34.6,7.2-47.2,20c-14,14.3-26.9,29.7-38.3,46c-7.7,10.9-15.7,23-28.5,26.9c-24,7.3-44.1-17.8-65.8-30.3
			C50.5,544,25,551.1-0.1,560.2V225.7H0z"/>
		<path class="st4" d="M525.6,1000c-1.7-1.1-3.3-2.2-4.9-3.3c-33.5-24.3-61.6-101-13.5-124.4c27.9-13.6,64.3-15.5,94-25.5
			c32.4-10.9,63.8-25.1,91.8-44.7c14.6-10.3,28.2-21.9,43.2-31.5c67.9-43.2,164.1-35.5,224.3,17.9c11.3,10,21.6,21.8,26.7,36
			c7.1,19.8,3.8,42.7,12.7,61.5v98.3c-11.8,3.3-23,8.7-33,15.7H525.6z"/>
		<path class="st0" d="M316.6,698.6c19.8-15.9,30.8-33.6,43.7-54.8c21.8-36,67.7-51.2,106.8-30.3c15.3,8.2,28,21.2,44.4,26.7
			c35.8,12.1,80-14.1,111.2,7.4c10.6,7.3,17.3,18.9,25.2,29.2c18.4,24,44.8,41.8,74,49.8c3.2,0.9,6.5,1.8,9.9,2.8
			c-0.6-3.7-1.1-7.4-0.6-11c1.9-14.4,17.4-23,31.7-25.2s41.1,14.1,54.8,9.3c19-6.6,21.9-39.5,42-40.6c19.1-1.1,34.8,13.8,52.4,21.2
			c18.6,7.8,39.5,7.3,59.7,6.6c9.4-0.3,19-0.7,28.4-1.6v241.4c-6.7-2.5-12.4-7.6-18.6-11.4c-27.1-16.5-68.6-10.1-85.5-36.9
			c-10-15.9-6.1-36.6-9.8-55.1c-5.9-29.3-34.1-52.5-64-52.7c-18.7-0.1-50.1-4.4-53.9,14.1c-1.8,8.5,16.3,9.4,25.1,11.5
			c6.3,1.6,14.1,5,13.7,11.5c-0.3,4.7-5,7.7-9.2,9.5c-13.5,5.8-28.6,7.8-43.1,5.5c-12.5-1.9-26.4-6.7-37.1,0.3
			c-5,3.3-8.3,8.6-13,12.2c-10.4,7.9-25.2,5.9-37.4,1.2s-23.7-11.8-36.7-13.1c-24.5-2.6-46.9,15.8-71.5,16.5
			c-12.2,0.4-24.2-3.7-36.4-4.6c-33.8-2.5-65.1,18.9-98.9,20.6c-49.4,2.5-90.1-36.1-124.3-71.8c-10.8-11.3-22.3-24.3-22.1-40
			C277.6,723.7,300.8,711.3,316.6,698.6z"/>
		<path class="st2" d="M628.4,478.4c11.1,4.7,16.4,18.2,27.5,22.9c16.3,7,33.3-8,43.2-22.7s10.7-29.2,28.4-30.2
			c16.7-0.9,97-32,94,21c-1,17-37,25-15,49c19.7,21.5,38.8,32,55.4,56c1.9,2.8,3.6,6,3.7,9.4c0.4,17-31.8,13.6-37.8,29.4
			c-4.2,10.9,6.3,26.5-3.2,33.3c-6.4,4.7-19.9,3.1-18.9,11c21.4,9.4,48.6-16,67.9-2.7C889.9,666,880,694,862,702.2
			s-38.8,4.2-58.6,3.7s-42.9,5.6-50.2,23.9c-2.1,5.3-2.6,11-3.5,16.5c-2.4,13.5-8.4,27.2-19.8,34.9s-29,6.9-37-4.2
			c-5-6.9-5.5-15.8-7.6-24c-6.3-24.7-27-42.6-47.2-58.2c-8.8-6.8-18-13.9-22.3-24.1c-5.2-12.1-2.5-26.4-7.1-38.8
			c-12.2-32.8-86-48.6-73.3-91.5C542.2,518,581.5,458.5,628.4,478.4z"/>
		<path class="st4" d="M610.9,907.1c3.4,3.3,6.8,6.5,10.9,8.8c11.6,6.5,25.3,1.2,36.8-3c12.5-4.6,29-7.3,37.3,3.1
			c2.7,3.2,0.9,8.5-2.6,10.8c-3.5,2.4-7.9,2.6-12.1,2.9c-13.7,0.8-30.6,4.7-33.8,18.1c-0.9,3.9-0.5,8.1-1.5,12
			c-6.4,25-44,11.4-60.7,14.6c-24.1,4.6-44.9,26-70.4,22.5c-13.2-1.8-23.2-10.9-21.2-24c2-12.8,12.4-22,21.7-29
			c9.1-6.8,13.4-15.8,16.6-26.5c3.1-10.7,12.8-25.5,24.8-29.6C578.1,880.5,595.3,892,610.9,907.1z"/>
		<path class="st2" d="M139.9,783.2c33.7,5,64.8,22.3,98.7,25.2c44.4,3.8,90.4-17.5,132.8-3.6c29.7,9.7,53,35.6,83.7,41.3
			c31,5.8,63.1-10.4,94-4.4c11.9,2.3,22.9,7.7,33.7,13.1c16.3,8.1,32.6,16.1,48.9,24.2c3.1,1.5,6.4,3.2,8,6.3
			c4.2,7.9-6,16.2-14.9,16.7c-13.3,0.8-25.7-6.1-38.5-9.8s-29.3-2.9-36.1,8.6c-6.5,11-0.8,26.8-8.6,37c-3.9,5.1-10.2,7.5-16.1,9.7
			c-27.4,10-54.8,20-82.1,29.9c-43.6,15.9-93.7,31.4-134.5,9.3c-11.3-6.1-21-14.8-32.6-20.3c-24.4-11.6-52.8-7.5-79.8-8.1
			c-28.8-0.7-57.5-7.1-83.9-18.9c-18.6-8.4-37.3-20.8-44.2-40c-3.3-9.2-3.6-19.2-6.7-28.4c-5.2-15-17.4-26.4-25.1-40.4
			C6.1,774.9,108.4,778.5,139.9,783.2z"/>
		<path class="st3" d="M159.3,1000c6.8-7.2,24-14.8,29.9-17c9.6-3.6,19.8-5.5,30-5.5c20.8,0.1,41.4,8.5,56.8,22.5H159.3z"/>
		<path class="st1" d="M594.3,1000H261c-1.5-1.3-3.1-2.4-4.7-3.5c-18.4-11.4-42.7-10.4-62.5-1.6c-3.3,1.5-6.5,3.2-9.6,5H0v-75
			c6.1-4.6,11.5-10.2,17.2-15.3c11-10,23.2-19,37.3-23.7s30.2-4.7,43.2,2.5c15.9,8.9,24.4,26.4,35.5,40.9c5.1,6.7,11,12.8,17.4,18.3
			c1,0.9,2.5,1.8,3.7,1c0.4-0.3,0.4-0.8,0.2-1.2c24.8,7.7,51.6-1.5,76.1-10.7c17.2-6.4,28.6-17.8,45.8-24.2c5.2-2,17-2.7,22.5-3.7
			c8.9-1.6,52.2,6.8,65.3,8.1c3,0.3,6.2,0.8,8.2,2.9c3.4,3.6,1.1,10-3.1,12.7s-9.4,2.9-14.3,3.5s-10.3,2-13.1,6.1
			c-4.6,6.7,1.2,16.6,8.9,19c7.8,2.4,16.2-0.3,23.7-3.5c9.1-3.8,17.9-8.2,26.4-13.3c5.5-3.3,11.1-6.8,17.5-7.6
			c6.4-0.7,19.9,4.5,15.2,8.8c-3.1,2.8,1.1,13.3,13.4,12.7c6.6-0.3,41.7-11.3,63.5-12.2c4.4-0.2,9,0.3,12.7,2.6
			c3.7,2.4,6.2,7.1,4.7,11.3c-2,5.7-9.2,7-15.1,8.4c-5.9,1.4-12.8,5.9-11.1,11.7c1.3,4.3,6.5,5.8,10.9,6.1
			c25.3,1.8,48.5-13.2,73.3-19c8.1-1.9,16.9-2.7,24.4,0.9s12.6,13,9.1,20.5C615.3,997.7,604.4,998,594.3,1000z"/>
		<path class="st0" d="M0,688.1c18.2-1.7,36.1-5.4,51.7-14.7c19.1-11.3,32.7-29.6,49.7-43.9c3.9-3.3,8.2-6.5,13.2-7.8
			c5.3-1.4,11-0.6,16.5,0.1c31.5,4,63.6,3.2,94.9-2.2c29-5,60.8-13.6,86.2,1.1c-3.7,25-28.3,42.3-35.1,66.6
			c-2.9,10.5-2.4,21.7-4.8,32.3c-4.8,21-21.3,38.2-40.8,47.4c-24.5,11.6-51,11-77.3,9.1c-20.5-1.5-47.9-5.7-59.9,16.4
			c-12.5,22.9,3.2,20,15.8,31.2c17.9,15.8,20.8,49.7,30.2,71.3c2.2,5.2,4.7,10.4,9.1,14c8.1,6.5,23.1,16.7,33.4,14.9
			c17.7-3.2,86.2-7.5,73.8,9.9c-6.8,9.4-19.5,12.3-31,13.5s-23.4,0.8-34.4,4.3c-15.5,4.9-30.2,17.3-45.8,13
			c-12.8-3.5-19.8-16.8-27.7-27.4c-14.6-19.6-40.3-33.8-63.5-26c-17.6,5.9-32.7,23.6-50.8,19.4c-1.1-0.3-2.1-0.6-3.2-1V688.1H0z"/>
		<path class="st1" d="M428.1,615.4c2,1.4,4.2,3.2,4.7,5.6c0.3,1.6-0.1,3.3-0.8,4.8c-6.5,14.8-31.8,17.4-33,33.5
			c-1.1,14.6,19.8,22.9,20.6,37.6c0.5,9.9-8.9,17.8-18.5,19.9c-9.7,2-19.6-0.1-29.5-1s-20.7-0.3-28.1,6.2c-4.6,4-7.3,9.7-11.2,14.4
			c-12.7,15.3-35.1,17.1-55,17.8c-8.6,0.3-18.5,0-24.2-6.5c-3.1-3.5-4.3-8.2-5.3-12.7c-1.9-8.4-3.5-17-2-25.4s6.8-16.7,14.8-19.5
			c6.7-2.4,14.2-0.7,21.2-2.3c5.6-1.3,10.6-4.9,13.8-9.7c2.7-4.2,3.9-9,5.4-13.8C317.8,611.3,378.5,580.9,428.1,615.4z"/>
		<path class="st3" d="M273.6,489.3c20-8.9,42.6-18,63.1-10.3c14.6,5.5,24.9,18.5,34.4,30.8c7.8,10.2,15.6,20.4,23.4,30.5
			c2.4,3.1,4.8,6.2,8.2,8.1c5.2,3,11.7,2.5,17.7,1.9c29.4-2.9,58.7-5.8,88.1-8.7c21.1-2.1,45.1-3.2,60.4,11.5
			c4.6,4.5,8.1,10.1,12.6,14.7c14.1,14.3,36.8,16.8,52,30c6.9,5.9,12.6,14.2,21.5,16.1c4.3,0.9,8.8,0.2,13,1.4
			c9.1,2.8,12.9,14.1,11.4,23.4c-1.5,9.4-6.6,17.7-9.8,26.6s-4.1,19.8,2.1,27c3.3,3.9,8.2,6.1,12.8,8.3c13.4,6.6,26.9,16.4,30,31
			s-11.7,32-25.3,25.9c-12.2-5.4-13.6-23.5-25.1-30.4c-10.5-6.3-23.6-0.3-35.8,0.5c-18.6,1.2-37.1-11.8-42.3-29.6
			c-1.9-6.5-2.1-13.5-4.2-20c-5.1-16.3-22.2-27.9-39.2-26.7C523,653.2,508,669,492.4,681c-15.6,12.1-38.9,20.6-54,7.9
			c-11.9-10-12.1-27.9-18.2-42.2c-8.2-19.2-32.8-38.9-53.7-38c-32.1,1.5-53.3,34.7-84,44.2c-19.5,6-36.5,5.7-51,3
			c-20.4-3.8-34.7-13.9-50.6-27.2c-15.9-13.4-24.1-38.3-12.5-55.5c9.6-14.2,28.3-18.3,44.2-24.7c17.8-7.2,22.2-17.4,29.4-33.1
			C248.7,500.9,258.5,496.1,273.6,489.3z"/>
		<path class="st1" d="M577.8,833.1c14.5,1.3,23-6.1,35.7-13.2c8.1-4.6,19.9-12.6,29-14.7c7.1-1.6,15.4-4.5,22-1.6
			c6.6,3,8.6,10.2,4.5,19c-3.7,8,17,2.2,25.7,0.4s20.3-0.4,22.6,8.2c0.9,3.2,0.1,6.7,0.9,9.9c1.8,8.1,11.6,11.4,19.9,11.4
			c8.3,0,17-1.9,24.6,1.4c7.6,3.3,11.5,15.4,4.4,19.6c-5.5,3.3-17.8,1.3-23.9-0.6c-22.4-6.7-36.3,10.4-59.5,8.2
			c-25.3-2.4-36.7-10.6-45.7-13.9c-22.8-8.2-35.1-0.5-66.1-5.7c-11.5-1.9-27.3-10-38.9-11.4c-29.8-3.6-58.1,19.7-87.7,14.9
			c-21.7-3.5-15.2-17.6-11.7-17.5c38,1,39-5,53-10c10.6-3.8,35-14.3,46.2-14.8C549,821.9,562.5,831.7,577.8,833.1z"/>
		<path class="st4" d="M276.6,646.4c4.4-9.3,11.1-18.6,21.1-21.2c9.8-2.6,20.6,2,30.3-0.8c7.7-2.2,13.4-8.7,20.6-12.2
			s18.3-2.2,20,5.7c1.6,7.5-6.8,13.3-14.3,14.6s-15.9,0.8-21.9,5.5c-15,12,3.1,38.6-7.2,54.7c-7.4,11.5-24,10.7-37.6,11.9
			c-5.2,0.5-10.7,1.6-14.5,5.2c-8.6,7.9-3.6,23.5,6.6,29.3c10.1,5.8,22.7,4.5,34.2,2.7s23.7-4,34.5,0.2c9.5,3.7,16.7,11.8,26.1,15.5
			c21.2,8.3,46.6-7.6,67.4,1.9c2.5,1.1,5,2.8,5.9,5.5c1.8,5.2-3.8,10.1-9.1,11.7c-10.7,3.2-22.1,0.8-33.3,0
			c-11.1-0.8-23.8,0.8-30.7,9.6c-3.5,4.4-5.2,10.3-9.4,14.1c-9.9,8.9-27,1.2-38.5,8.1c-9.8,5.9-11.4,19.7-19.7,27.6
			c-13.9,13.3-36.8,3.4-52.7-7.6c-15.8-11-36.9-23-52.8-12.2c-5.5,3.7-9.4,9.8-15.6,12.4c-9.2,3.8-19.6-1.7-27-8.3
			s-14.2-14.7-23.8-17.6c-18.2-5.4-36.1,10.7-55.1,10.6c-15.5-0.1-34.6-8.5-30.3-23.5c2.6-9.1,15.6-9.7,24.7-7.3s21.4,2.6,25.2-6
			c1.4-3.2,1.1-6.9,2-10.2c3.1-11.3,18.2-14.6,29.5-11.4c11.3,3.2,21.4,10.4,33,12.3c11.6,1.9,26.2-5.4,25.4-17.1
			c-0.8-10.3-13.1-18.7-9.9-28.5c3.4-10.6,16.8-7.6,24.9-9.8c17.8-4.9,9.3-9.8,19-21.2c7.6-9.1,17.8-5.1,28-9.9
			C266,673.6,270.2,659.8,276.6,646.4z"/>
		<path class="st1" d="M0,630.3c12.9,3.7,22.8,10.6,35.3,17c14.5,7.3,30.6,10.9,46.9,8.9c9.9-1.2,20-4.3,29.7-1.9
			C92.2,668.1,86.4,699,63.4,706c-14.2,4.4-29.3-2.6-44.1-2.7c-6.9-0.1-13.2,1.4-19.2,3.7L0,630.3L0,630.3z"/>
		<path class="st2" d="M0,521.1c7.5,0.3,15.1,1,22.3-1c9.1-2.5,17.4-11.8,14.2-20.7c-1.3-3.6-4.3-6.4-6.1-9.9
			c-6.8-12.7,7.1-29.4,21.4-28.1s24.8,15.9,25.4,30.3c0.3,9.3-1.6,20.9,6.2,26c8.4,5.5,21.7-1.9,28.7,5.2c2.3,2.4,3.2,5.7,4.6,8.7
			c4.5,10,15.7,16.7,26.7,16s21.2-8.7,24.4-19.3c3.7-12.1,1-29.3,12.9-33.8c4.3-1.6,9-0.7,13.5-1.3c18.7-2.7,23.1-27.8,36.5-41.1
			c10.4-10.3,26.5-13.1,40.9-10.6s27.7,9.4,40.6,16.2c-4.1,11.8-20.2,29.5-19.2,37.3c-14.1,0.6-28.2,11.6-35,23.9
			c-4.5,8.1-2.3,18.4,4.9,24.2c13,10.6,35.9-13.9,45.7-0.8c13.9,18.5,38.5,10.5,40.8,26.9c3,21.2-72,5.2-106.8,3.3
			c-12.9-0.7-25.9-0.6-35.9,7.6c-10,8.2-13.8,24.9-4.9,34.3c2.7,2.8,6.3,4.9,8.2,8.3c2.9,5.3,0.5,12.3-4,16.3s-10.6,5.7-16.5,7
			c-43.6,9.5-89,3.2-133.2-3.1c-16.3-2.3-32.7-5.2-45.7-16C6.5,623.9,3.2,620,0,616V521.1z"/>
		<path class="st3" d="M0,565c4.8,0.9,9.5,2.1,14.1,3.6c14.7,5,28.4,14.4,35.5,28.1c2.8,5.4,4.6,11.4,8.9,15.7
			c15,14.7,45.4-3.7,59.7,11.7c2.3,2.5,3.9,5.7,6.8,7.6c2.8,1.8,6.3,1.9,9.6,2l28.8,0.6c8.7,0.2,11.3,12.2,3.3,15.7
			c-3,1.3-6.2,2.1-9.3,2.2c-10.1,0.4-20.6-2.8-30,0.7c-5.1,1.9-9.3,5.5-13.8,8.5c-18.4,11.9-43.8,11.9-62.1-0.1
			c-6.1-4-11.4-9.1-17.6-13C23.6,642,12,639.8,0,639.7V565z"/>
		<path class="st2" d="M548.4,428c-4-3.9-7.8-8.1-12.8-10.7c-4.5-2.4-9.5-3.3-14.5-4.2c-21.6-3.9-36-20.7-57.6-24.6
			c-18.7-3.3-35.8,28.3-54,34c-13.7,4.3-28.6-20.9-42-26c-42-16-97.9-21.8-103.5,10.8c-3.6,21.2,44.1,11.9,55.1,30.3
			c7.4,12.3,3.5,32.5,16.8,38c7.2,3,15.5-0.8,23.2,0.1c23.2,2.9,22.4,39.9,41.7,53.2c9.1,6.2,20.9,6,31.9,5.5
			c37.4-1.7,74.8-3.4,112.2-5.2c9.7-0.4,20.1-1.1,28-6.8c10.2-7.3,14.3-21.6,25.6-27.1c18.7-9,47-12,15.8-28.3
			C590.4,454.7,568.3,447.6,548.4,428z"/>
		<path class="st0" d="M311.1,449.3c9.6,2.9,17.9,9.2,27.7,11.4c22.6,5.1,46.5-13.1,68.2-5.1c5.1,1.9,9.9,5.4,11.5,10.5
			c1.1,3.4,0.8,7.3,2.6,10.4c3.2,5.4,10.6,5.7,16.7,6.7c6.2,1,13.4,5.8,11.4,11.7c-0.7,2-2.3,3.5-4.1,4.6
			c-6.4,3.8-14.4,2.7-21.9,2.6c-7.4-0.1-16.1,1.6-19.5,8.2c-0.6,1.2-1,2.6-0.8,3.9c0.5,3,3.7,4.7,6.6,5.5
			c21.5,5.4,43.1-16.5,64.4-10.5c9.1,2.6,16.1,9.9,24.7,13.9c13.7,6.4,29.7,3.9,44.8,4.6c5.3,0.2,11.5,1.4,14.1,6.1
			c3,5.4-0.8,12.5-6.3,15.3s-12,2.3-18.2,1.9c-12.9-1-25.8-2-38.7-3c-5.3-0.4-10.7-0.8-15.9,0.4c-9.4,2.2-16.7,9.2-24.6,14.7
			c-9.8,6.9-21,11.8-32.7,14.3c-12.7,2.7-29.7-0.1-32.9-12.8c-0.7-2.9-0.6-5.9-1.7-8.6c-5.3-13.5-28.7-4.4-38.7-14.9
			c-7-7.4-3.2-19.5-5.9-29.2c-3.2-11.4-15.5-18.3-27.3-19c-11.8-0.6-23.3,3.7-34.3,8.1s-22.2,9.1-34.1,9.3c-5.8,0.1-11.8-1-16.4-4.4
			c-4.6-3.4-7.6-9.5-6.2-15.1c1.7-6.7,8.8-10.5,15.5-12.1s13.8-1.6,20.1-4.3c8.8-3.9,9.9-14.2,17.2-19.8
			C285.8,447.3,300.3,446,311.1,449.3z"/>
		<path class="st4" d="M551.4,737.2c13.8,1.2,26.5,8.9,40.3,9.8c3.8,0.2,7.8,0,11.2,1.6s5.9,6.2,3.7,9.3c-1,1.4-2.6,2.2-4.2,2.8
			c-11,4.1-23.2,1.6-34.9,2.1c-30.8,1.3-59.8,23.3-90,17.1c-4.4-0.9-9.4-3.3-9.7-7.7c-0.2-3.7,3-6.6,6-8.6
			c6.5-4.4,20.3-0.7,30.8-5.2C522.4,750.8,538.3,736.1,551.4,737.2z"/>
		<path class="st0" d="M922.3,1000c10.3-11.2,28.1-15.2,42-8.8c4.8,2.2,8.9,5.4,12.9,8.8H922.3z"/>
		<path class="st1" d="M955.3,1000c-0.2-5.3-0.5-10.9-3.8-15c-1.8-2.3-4.4-3.9-6.6-5.8c-8.3-7.3-10.9-20.5-6-30.4
			c4.9-10,14.6-14.6,24.7-9.8c9.3,4.5,20.7,2.2,29.7-3c2.3-1.3,4.5-2.8,6.6-4.4v68.5L955.3,1000L955.3,1000z"/>
		<path class="st1" d="M791,633.8c3.4-0.6,6.9-0.2,10-1.6c7.2-3.2,7.8-13.3,5.7-20.9s-5.4-15.8-2.3-23c3.5-8.1,13.9-10.9,22.7-9.8
			c16.3,2.1,29.6,13.5,44.1,21.2c17.1,9.2,36.5,13.3,55.5,17.1c21.9,4.3,43.9,8.1,65.9,11.7c2.5,0.4,4.9,1,7.3,1.6v76.7
			c-19.2,7.5-35.1,23.6-58,23.7c-18.1,0.1-36.2-7.2-49.2-19.8c-13.2-12.9-22.1-31.6-39.5-37.8c-21.2-7.5-44.5,7.4-66.7,3.5
			c-2.4-0.4-4.9-1.1-6.8-2.7c-2-1.6-3.1-4-4-6.4C771.1,654.2,777.2,636.2,791,633.8z"/>
		<path class="st1" d="M743.6,373.1c3.5-7.3,4.4-15.7,8.8-22.5c8.1-12.5,27.9-15,38.8-4.9c10.9,10.1,9.9,30.1-1.9,39.1
			c-7.7,5.8-17.9,6.9-26.6,11.1c-8.7,4.3-16,15.1-10.7,23.2c3.9,6,12.2,6.7,19.3,7.5c11.2,1.3,23,4.8,29.9,13.7
			c6.9,8.9,6.2,24.2-3.8,29.3c-7.5,3.9-16.6,0.9-24.1-2.9s-15.2-8.6-23.6-8.2c-8.4,0.4-16.9,9.2-13.1,16.8c1.8,3.7,5.7,5.7,8.9,8.3
			c10.3,8.3,13.1,24.7,6.1,36c-7,11.3-22.9,16.1-34.9,10.5c-11.5-5.3-18.6-18-30.6-21.8c-10.8-3.4-22.4,1.5-32,7.6
			c-9.5,6.1-18.4,13.7-29.3,16.8c-10.9,3-24.8-0.5-28.9-11c-5.8-15,10.2-36.2-2.5-46.1c-5-3.9-12-3.3-18.3-3.7
			c-11.8-0.7-24.7-7.5-26.7-19.2c-0.8-4.6,0.1-9.4-1.5-13.8c-3.9-10.4-18.2-10.7-29.3-9.9c-11.1,0.7-25.9-2.6-26.4-13.7
			c-0.4-8,5-15,16.4-17.8c7.8-1.9,17.9,1.2,25,4.9c16.2,8.4,31.9,28,48.4,35.9c8.5,4.1,24.1,3.9,25.6-8.2c0.8-6.4-3.8-16.9-1.6-25
			c3.6-13.5,19-19,31.3-9.5c11,8.6,22.9,20,35.1,13.3c4.3-2.4,12.2-13,15.9-16.3C704,377.5,734,393.1,743.6,373.1z"/>
		<path class="st1" d="M0,247.2c1,0.4,2,0.9,2.9,1.4c8.3,4.9,11.7,15.4,19.5,21.1c14.9,10.8,35.3-0.7,49.4-12.6
			c14-11.9,32.3-25.3,48.9-17.5c14.4,6.8,19,26.4,33.2,33.4c4.5,2.2,9.7,2.9,14.1,5.5c4.3,2.6,7.6,8.3,5.1,12.7
			c-2.7,4.7-9.3,4.4-14.7,4c-32-2.3-64.7,14.3-81.8,41.5c-6.1,9.8-11.1,21.4-21.4,26.4c-15.1,7.3-32.9-3.9-43.2-17.1
			c-4.2-5.6-8-11.7-12-17.7V247.2z"/>
		<path class="st2" d="M0,120.1c29.4-9.1,63.9-1.1,85.6,21c19.8,20.1,33.2,52.3,61.3,54.7c14.3,1.2,28-6.3,42.3-6.8
			c40.4-1.4,72.7,51.8,111,39c10.6-3.5,22.8-11.7,31.4-4.6c9.2,7.8,0,23.8-11.6,26.9c-11.7,3.1-24.1-0.8-36,0.8
			c-22,2.9-37,22.8-51.4,39.7s-35.1,33.7-56.4,27.7c-17.8-5-27.5-23.4-37.3-39.1s-26-31.7-44-27.4c-17.5,4.2-24.6,24.4-33.7,40
			c-9,15.6-31.9,28.6-43.4,14.8c-6.1-7.4-4.8-18.3-8-27.3c-1.9-5.3-5.3-9.6-9.7-13V120.1H0z"/>
		<path class="st0" d="M46.3,7.8c3.9-2.5,7.6-5.1,11.4-7.8h64.8c0,0.1,0.1,0.2,0.1,0.3c7.6,19.7-13.4,47.4,3.3,60.4
			c6.6,5.1,15.7,4.3,24,4.8c15.5,1,32.3,9.9,35,25.1c1.1,6-0.2,12.3,2,18c5.1,13.6,23.8,14,38.4,13c14.5-1,33.9,3.4,34.6,18
			c0.5,10.5-6.6,19.7-21.6,23.3c-10.2,2.4-23.5-1.6-32.8-6.4c-21.2-11-41.8-36.8-63.4-47c-11.1-5.3-31.6-5.1-33.5,10.7
			c-1,8.3,5,22.1,2.1,32.8c-4.7,17.7-24.9,24.9-41,12.4c-14.4-11.3-30-26.2-46-17.4c-5.7,3.2-15.9,17-20.8,21.3
			c-1,0.9-2,1.7-3.1,2.4V15.9c1.4,0.7,2.9,1.3,4.4,1.7C18.6,22.1,33.8,15.8,46.3,7.8z"/>
		<path class="st2" d="M796.1,520.6c18.9-11.5,35.4,17.4,54.9,16.8c13.2-0.4,25-7.3,37.5-10.5c17.1-4.3,35.1-1.4,52.1,3.3
			c6.1,1.7,48.3,31,46,2.8c-0.2-2.8-1.6-5.7-0.5-8.3c1.3-2.8,4.9-3.5,8-3.6c1.9-0.1,3.9,0,5.8,0V616c-6-7.5-11.6-15.3-19.9-20.2
			c-29-17.2-57.1,13.7-86.8,8.7c-24.7-4.1-50.1-10.2-71.8-23C805.2,572,768.3,537.6,796.1,520.6z"/>
		<path class="st3" d="M868.9,595.5c1-3.5,3.7-6.1,7-7.7c8.8-4.2,18.3-1.3,27.4-2.8c7.1-1.2,13.3-5,19.2-9.4
			c11-8.2,31.3-14.2,45-13.7c10.9,0.5,21.9,1.1,32.5,3.1v74.6c-12-0.1-24.4,1.8-36.1,3.8c-13.2,2.3-27.1,2.9-39.9-1.1
			c-18.1-5.7-33-18.5-47.4-31C871.9,607.3,866.9,602.4,868.9,595.5z"/>
		<path class="st1" d="M797.7,908.5c10.2-9.2,24.5-15.9,37.5-11.5c13.4,4.6,21.2,19.4,34.6,23.7c4.2,1.4,8.9,1.6,12.7,3.8
			s6.7,7.4,4.2,11.1c-8,6.9-20.2,3.8-30.7,4.9c-13.3,1.3-24.7,9.7-36.5,16c-14,7.4-29.4,12.2-45.1,14c-8.7,1-20.5-1.5-21.1-10.2
			C752.4,947.3,788.9,916.4,797.7,908.5z"/>
		<path class="st3" d="M540.7,914.7c4.9-9.8,7.6-20.8,13.6-30c14.5-22.1,48.4-28.3,69.7-12.7c14,10.2,23.9,28.4,41.1,30.1
			c13.1,1.3,27.7-7.7,38.4-0.1c9.6,6.8,9.2,23,19.5,28.6c12.2,6.6,25.1-7.2,38.4-10.9c8.2-2.3,17.9-0.2,23.4,6.3s5.6,17.4-0.6,23.1
			c-9.1,8.4-23.9,2.9-35.6,6.6c-16,5.1-26.7,27-42.9,22.7c-3.1-0.8-5.8-2.6-8.6-4.2c-21.2-12.3-46.8-16.7-70.9-12.2
			c-31.6,6-68.9,32.6-100.8,28.3c-16.4-2.2-13.4-2.9-29.9-4.6c-8.2-0.8-27.1-13.8-34.6-17.2s-12.9-13.6-7.7-20
			c3.1-3.8,8.5-4.6,13.3-4.8C494.3,943,526.2,943.8,540.7,914.7z"/>
		<path class="st3" d="M285.3,0c0.7,0.8,1.3,1.7,1.9,2.5c0.5,0.7,1,1.4,1,2.2c0.1,1.4-1.1,2.5-2.2,3.3c-8.2,6.1-22,18.2-32.1,16.7
			c-18-2.7-30.4-19.5-48.7-19.4c-5.8,0-47,15.6-49-5.3H285.3z"/>
		<g>
			<path class="st1" d="M591.9,0c-2.8,0.6-5.4,1.5-7.8,2.7c-8.8,4.5-13.4,14.4-16.6,23.8c-4.1,11.9-7,24.2-12.5,35.5
				s-14.1,21.8-25.9,26.2s-26.9,1.2-33.4-9.6c-4.1-6.8-5.9-16.8-13.6-18.3c-1.6-0.3-3.2-0.2-4.8,0c-12.7,1.7-24,8.8-35.9,13.7
				s-26.2,7.6-37.1,0.9c-2.9-1.8-5.4-4.1-8.2-5.9c-7.9-5.1-17.8-6-27.2-6.7c-6.5-0.5-13.2-1-19.6,0.6c-8,2.1-14.7,7.4-22.1,11
				s-16.8,5.4-23.6,0.6c-5.6-4-7.5-11.2-11-17.2c-7-12.1-21.3-20.4-23.3-34.2c-0.6-4.3,0.1-8.7-1-12.9c-1-4.1-3.5-7.5-6.7-10.4
				h330.3V0z"/>
			<path class="st1" d="M183.3,0c-8.2,5.1-15.6,11.4-21.8,18.8c-5.3,6.3-10.8,14-19.1,14.5c-15,0.9-32.2,2.9-46.5-1.4
				c-11.7-3.5-22.1-11.2-34.2-12.8C46,17,31,25.2,16.5,31.5C11.3,33.8,5.7,35.8,0,37V0H183.3z"/>
		</g>
		<path class="st0" d="M0,372.9c11.2,3.4,22.5,7.9,34,8.9c9.5,0.8,19.1-0.9,28.6-0.3s19.7,4.1,24.5,12.4c-10.9,14.2-33,7-50.9,7.5
			C23,401.7,11.1,406.8,0,414.1V372.9z"/>
		<path class="st3" d="M864.8,200c3.1,9.3,9.6,18.3,7.8,27.9c-2.1,10.8-15.5,16.9-25.9,13.3c-10.4-3.6-16.9-14.8-17.3-25.8
			c-0.4-9.4,2.7-20.3-3.6-27.3c-11.2-12.7-30.4,0.5-42.1,5.4c-16.6,6.9-33.5,8.8-51.2,4.1c-7.1-1.9-16,1.1-22-3
			c-13.9-9.6-1.2-21.7,33-32c7.2-2.2,23.9-12.6,31-15s16.8-10.5,13-17c-5.5-9.2-23,0-30.5-4.8c-17-10.9,1.1-36.2,11.4-45.4
			c23.4-20.9,43.2-26.8,74.2-3.8c10.4,7.7,11,24.6,22.1,30.8c12.3,7,33.5,4,45.9,10.1c31.8,15.7,16.9,50.5-7,58
			C887.2,180.6,856.9,175.9,864.8,200z"/>
		<path class="st3" d="M531.2,106.7c6.7,2.8,11.1,10,18.1,11.8c6.8,1.7,13.6-2,20.3-3.9c19.2-5.5,41.7,6.4,48,25.4
			c1.3,3.9,2,8,4.1,11.4c3.7,6.2,11,9.1,16.9,13.2c5.9,4.2,11,12,7.5,18.3c-4.6,8.2-17.3,4.6-24.4-1.6c-7.1-6.2-14.6-14.6-23.8-12.9
			c-8.5,1.5-12.9,10.8-17.7,17.9c-4.9,7.2-15.3,13.3-21.5,7.3c-2.3-2.2-3.2-5.5-4.9-8.1c-6.5-10.2-22.3-8.6-32.7-2.4
			c-10.4,6.2-19.2,15.7-31,18.5c-16.3,3.9-32.4-6.2-46.1-15.9c-2.5-1.8-5.2-3.7-6.3-6.6c-2.1-5.8,3.6-11.9,9.6-13.4s12.4-0.3,18.5-1
			C495,161.3,497.9,92.7,531.2,106.7z"/>
		<path class="st3" d="M0,830.1c8.2-3,14.9-10.4,22.9-14.6c16.3-8.7,39-2.1,48,14c2.5,19,19,34,37.5,39c18.5,4.9,38.3,1.2,56.1-5.8
			c19.3-7.6,52.3-24.4,58.7-4.6c4.9,14.9-32.8,9.9-36.8,25c-3,11.6,12.6,18.6,24.5,19.2c11.4,0.6,22.8-0.1,34-1.9
			c9.1-1.5,18.7-3.7,27.4-0.6c8.7,3.1,6.4,16.5-2.1,20.3c-37.8,16.9-76.8-5.4-105.7,24.2c-7.9,8.1-13.7,18.1-22.5,25.1
			s-22.4,10.2-31,3c-4.1-3.4-6.3-8.4-8.6-13.3c-9.9-21.5-21.9-42.2-35.6-61.5c-5-7.1-10.9-14.4-19.2-16.8c-17.4-5-31.4,13-47.6,22
			L0,830.1L0,830.1z"/>
		<path class="st3" d="M863.2,875c9-9,42.3-9.2,48-13c16.1-10.6,5.6-32,24-40.2c5-2.2,21.6-8.9,27-9c10.1-0.2,21.9,19.3,32,18.6
			c2-0.1,3.9-0.6,5.8-1.3v72.7c-5,2.8-10.3,4.7-15.9,4.8c-20.5,0.3-34.7-24-55.1-24.9c-10.2-0.4-19.6,5.1-28.4,10.2
			c-8.9,5.1-18.7,10.1-28.8,8.5C861.6,899.7,848,890.2,863.2,875z"/>
		<path class="st1" d="M1000,0v37.5c-10.2,2.2-20.5,1.9-28.9-3.9C960.6,26.4,957,13,955.8,0H1000z"/>
		<path class="st3" d="M166.7,369.6c-10.4,1.4-24.7-4.2-22.4-14.4c17.3-14.9,44.3-4.5,66.4-10.1c27.4-7,44.9-38.1,73-41.2
			c17.8-2,36.3,9.7,42.1,26.6c17.2,6.9,35.6-10.1,54-8c14.1,1.6,24.5,14,37.7,19.2c14.9,5.9,31.6,2.1,47.6,2.2
			c2.2,0,4.5,0.1,6.4,1.2c5,2.8,4.5,10.8,0.4,14.7s-10.3,4.7-16,4.6c-22.7-0.1-46.2-9.4-67.3-1.2c-25.7,9.9-34.3,19.3-63.6,14.7
			c-17.4-2.8-34.4-6.6-52.1-5.3c-17.9,1.3-37.3,12.7-54.6,12.1C196.4,384,192.8,366.1,166.7,369.6z"/>
	</g>
</g>
</svg>
