<?xml version="1.0" encoding="utf-8"?>
<!-- Generator: Adobe Illustrator 23.0.5, SVG Export Plug-In . SVG Version: 6.00 Build 0)  -->
<svg version="1.1" xmlns="http://www.w3.org/2000/svg" xmlns:xlink="http://www.w3.org/1999/xlink" x="0px" y="0px"
	 viewBox="0 0 1000 1000" style="enable-background:new 0 0 1000 1000;" xml:space="preserve">
<style type="text/css">
	.st0{fill:#C2926A;}
	.st1{fill:#68432A;}
	.st2{fill:#A06F4A;}
	.st3{fill:#240F00;}
	.st4{opacity:0.6;fill:#C2926A;}
	.st5{fill:none;stroke:#000000;stroke-width:6.0084;stroke-miterlimit:10;}
	.st6{display:none;}
	.st7{display:inline;}
	.st8{fill:#3A600F;}
	.st9{fill:#FFFFFF;}
	.st10{fill:#E0E0E0;}
	.st11{fill:#0C3D00;}
	.st12{fill:#FBB03B;}
	.st13{fill:#F15A24;}
	.st14{opacity:0.3;fill:#111111;enable-background:new    ;}
	.st15{opacity:0.3;fill:#FFFFFF;enable-background:new    ;}
	.st16{opacity:0.3;}
	.st17{fill:#111111;}
	.st18{fill:#FFD008;stroke:#000000;stroke-width:2.4424;stroke-linecap:round;stroke-linejoin:round;stroke-miterlimit:10;}
	.st19{fill:#FFD008;}
	.st20{opacity:0.2;}
	.st21{fill:#88FF88;stroke:#000000;stroke-width:8;stroke-linecap:round;stroke-linejoin:round;stroke-miterlimit:10;}
	.st22{fill:#00A300;}
	.st23{opacity:0.8;}
	.st24{fill:url(#SVGID_1_);}
	.st25{fill:url(#SVGID_2_);}
	.st26{fill:url(#SVGID_3_);}
	.st27{fill:url(#SVGID_4_);}
	.st28{fill:url(#SVGID_5_);}
	.st29{fill:url(#SVGID_6_);}
	.st30{fill:url(#SVGID_7_);}
	.st31{fill:url(#SVGID_8_);}
	.st32{fill:url(#SVGID_9_);}
	.st33{fill:url(#SVGID_10_);}
	.st34{fill:url(#SVGID_11_);}
	.st35{fill:url(#SVGID_12_);}
</style>
<g id="bg_1_">
	<g>
		<g>
			<g>
				<g>
					<rect class="st0" width="1000" height="1000"/>
				</g>
				<g>
					<rect x="45.3" class="st1" width="910" height="1000"/>
					<rect x="857.7" class="st2" width="97.6" height="1000"/>
					<rect x="44.7" class="st2" width="97.8" height="1000"/>
				</g>
				<path d="M952.5,0v1000h5.6V0H952.5z M47.7,1000V0h-5.8v1000H47.7z"/>
				<g>
					<polygon class="st3" points="955.3,855.4 45.2,855.4 147.6,763.2 853,763.2 					"/>
					<g>
						<g>
							<rect x="44.7" y="852.1" class="st0" width="910.6" height="50.2"/>
							<path d="M41.9,849.3v55.9h916.2v-55.9H41.9z M952.5,899.4H47.7V855h904.8V899.4z"/>
						</g>
						<rect x="48.1" y="899.1" class="st4" width="903.9" height="11.4"/>
						<rect x="48.1" y="854.5" class="st4" width="903.9" height="8.3"/>
					</g>
				</g>
				<g>
					<polygon class="st3" points="955.3,6.2 45.3,6.2 47.7,3.9 49,2.8 52.2,0 948.4,0 951.6,2.8 952.5,3.5 					"/>
					<g>
						<g>
							<rect x="44.7" y="2.8" class="st0" width="910.6" height="50.2"/>
							<path d="M41.9,0v55.8h916.2V0H41.9z M952.5,50.2H47.7V5.6h904.8V50.2z"/>
						</g>
						<rect x="48.1" y="33.1" class="st4" width="903.9" height="16.6"/>
						<rect x="48.1" y="5.3" class="st4" width="903.9" height="8.3"/>
					</g>
				</g>
			</g>
			<polyline class="st5" points="45.2,855.4 147.6,763.2 853,763.2 955.3,852.1 			"/>
			<line class="st5" x1="857.7" y1="55.8" x2="857.7" y2="767.3"/>
			<line class="st5" x1="142.5" y1="55.8" x2="142.5" y2="767.8"/>
		</g>
		<line class="st5" x1="857.7" y1="904.8" x2="857.7" y2="1000"/>
		<line class="st5" x1="142.5" y1="904.8" x2="142.5" y2="1000"/>
	</g>
</g>
<g id="hand" class="st6">
	<g class="st7">
		<path class="st8" d="M776.5,603.9C776.2,604.3,776.4,604.1,776.5,603.9L776.5,603.9z"/>
		<path class="st8" d="M770.3,607.6c0.1,0,0.1,0,0.2,0C770.5,607.7,770.4,607.6,770.3,607.6z"/>
		<path class="st8" d="M695.8,563.1C695.8,563.2,695.7,563.5,695.8,563.1L695.8,563.1z"/>
		<path class="st8" d="M772.4,593.1C772.3,593.1,772.3,593.1,772.4,593.1C772.3,593.1,772.3,593.1,772.4,593.1z"/>
		<path class="st8" d="M775.9,585.1C776,584.9,776,584.9,775.9,585.1L775.9,585.1z"/>
		<path class="st8" d="M695.9,562.9L695.9,562.9L695.9,562.9z"/>
		<path class="st9" d="M767.6,604.1c0-0.3,0-0.6,0-0.9c0-0.3,0-0.5,0-0.8c0,0,0,0,0-0.1v-0.1c0.1-0.6,0.3-1.1,0.5-1.7
			c0-0.1,0.4-1,0.1-0.2c0.1-0.2,0.2-0.3,0.2-0.5c0,0,0-0.1,0.1-0.1c1.1,0.3,2.3,0.4,3.5,0.3c3.6-0.4,6.5-2.4,8.3-5.5
			c1.5-2.8,2.1-5.9,2.5-9v-0.1l0,0c0.1,0.3,0.1,0.5,0.2,0.8c0,0.2,0.1,0.3,0.1,0.5c0-0.1,0-0.3-0.1-0.4c0.2,0.4,0.1,1.1,0.1,1.5
			c0,0.5,0,0.9,0,1.4c0,0.2-0.1,1-0.1,1c-0.1,0.4-0.1,0.7-0.2,1.1c-0.2,1-0.5,2-0.8,2.9c-0.1,0.3-0.2,0.5-0.3,0.8
			c0,0-0.1,0.2-0.1,0.3c-0.1,0.2-0.2,0.4-0.2,0.4c-0.1,0.3-0.2,0.5-0.4,0.8c-0.8,1.8-1.8,3.5-2.9,5.1c-0.3,0.5-0.6,1-1,1.5
			c-0.2,0.2-0.3,0.5-0.5,0.7l0,0c-0.7,0.8-1.4,1.6-2.2,2.3l-0.1,0.1c0,0-0.1,0-0.1,0.1c-0.2,0.1-0.4,0.3-0.7,0.4
			c-0.2,0.1-0.3,0.2-0.5,0.3c-0.2,0.1-0.3,0.2-0.5,0.2c0.1-0.1,0.2-0.1,0.4-0.2c0,0.1-1.2,0.4-1.3,0.4c0,0-0.3,0-0.4,0.1
			c-0.1,0-0.2,0-0.2,0c-0.2,0-0.3,0-0.5,0c-0.1,0-0.2,0-0.2,0c-0.1,0-0.1,0-0.2-0.1c-0.2,0-0.3-0.1-0.5-0.1c-0.1,0-0.1-0.1-0.2-0.1
			c-0.1,0-0.2-0.1-0.3-0.1c-0.1-0.1-0.2-0.2-0.3-0.3c-0.1-0.1-0.2-0.2-0.3-0.3c0-0.1-0.1-0.2-0.1-0.3c-0.1-0.1-0.2-0.2-0.2-0.4
			c0,0,0-0.1-0.1-0.2c0-0.1-0.1-0.2-0.1-0.2c-0.1-0.3-0.2-0.6-0.2-0.8C767.7,604.4,767.7,604.3,767.6,604.1z"/>
		<path class="st8" d="M768.1,605.9c-0.1-0.1-0.1-0.2-0.1-0.3C768,605.7,768.1,605.8,768.1,605.9z"/>
		<path class="st8" d="M769.9,607.5c-0.1,0-0.2-0.1-0.3-0.1C769.7,607.5,769.8,607.5,769.9,607.5z"/>
		<path class="st8" d="M773.9,591.9C773.7,592.2,773.7,592,773.9,591.9L773.9,591.9z"/>
		<path class="st9" d="M762.7,556.3c0.1,0.1,0.1,0.3,0.2,0.4c0.1,0.2,0.1,0.4,0.2,0.6c0.4,0.9,0.7,1.9,1,2.8
			c0.7,2.3,1.3,4.7,1.7,7.2c0.1,0.3,0.1,0.7,0.2,1c0,0.1,0,0.2,0,0.2c0,0.1,0,0.1,0,0.2c0.1,0.6,0.1,1.1,0.2,1.7
			c0.1,1.1,0.2,2.2,0.2,3.3c0,0.6,0,1.2-0.1,1.8v0.1c0,0.3-0.1,0.5-0.1,0.8c-0.1,0.5-0.2,0.9-0.4,1.4c0,0,0,0.1-0.1,0.2
			c-0.1,0.2-0.2,0.4-0.3,0.5c-0.1,0.3-0.3,0.5-0.4,0.8c0,0.1-0.1,0.2-0.2,0.3c-0.2,0.3-0.5,0.5-0.7,0.8c0,0-0.1,0.1-0.2,0.2
			c0,0-0.1,0-0.1,0.1c-0.1,0-0.1,0.1-0.2,0.1c-0.2,0.1-0.4,0.3-0.7,0.4h-0.1c-0.1,0-1.1,0.2-0.8,0.2c-0.1,0-0.2,0-0.3,0
			c-0.1,0-0.1,0-0.2,0c-0.2,0-0.4,0-0.7,0h-0.1l0,0c-0.4-0.1-0.8-0.2-1.2-0.3c-0.1,0-0.4-0.1-0.5-0.2l0,0c-0.1,0-0.1-0.1-0.2-0.1
			c-0.5-0.2-0.9-0.5-1.3-0.8c0,0,0,0-0.1,0c0,0,0,0-0.1-0.1c-0.1-0.1-0.3-0.2-0.4-0.3c-0.3-0.2-0.6-0.5-0.8-0.8c0,0-0.1-0.1-0.2-0.3
			c-0.2-0.3-0.3-0.5-0.5-0.8c-0.3-0.5-0.5-0.9-0.7-1.4c0-0.1-0.1-0.3-0.1-0.4c-0.1-0.2-0.2-0.5-0.2-0.7c-0.1-0.2-0.1-0.5-0.2-0.7
			c0.5-0.3,1-0.7,1.5-1.1c5.4-4.8,5.6-12.7,4.2-19.2c-0.2-1.1-0.5-2.2-0.8-3.4c0.1,0.1,0.2,0.2,0.3,0.2c0.4,0.4,0.8,0.8,1.2,1.2l0,0
			c0.1,0.1,0.2,0.3,0.3,0.4c0.1,0.2,0.2,0.3,0.3,0.5c0.3,0.5,0.6,1,0.9,1.5c0.3,0.5,0.5,1,0.8,1.6c0,0,0,0.1,0.1,0.1
			C762.7,556.2,762.7,556.3,762.7,556.3z"/>
		<path class="st8" d="M748.6,545.3C748.6,545.3,748.5,545.2,748.6,545.3C748.5,545.2,748.6,545.2,748.6,545.3z"/>
		<path class="st8" d="M750.3,568.7L750.3,568.7L750.3,568.7z"/>
		<path class="st9" d="M776,574.3c0,0.3,0.1,0.5,0.1,0.8l0,0c0,0,0,0.1,0,0.2c0,0,0,0,0,0.1c0.4,3.3,0.2,6.5-0.2,9.8v0.1
			c0,0.2,0,0.3-0.1,0.5c0,0.3-0.1,0.6-0.2,1c-0.1,0.5-0.2,1.1-0.3,1.6c-0.1,0.6-0.3,1.1-0.5,1.7c0,0.1-0.1,0.3-0.2,0.4
			c-0.1,0.2-0.2,0.4-0.2,0.5c-0.1,0.3-0.3,0.5-0.4,0.7c0,0.1-0.1,0.2-0.1,0.2c-0.1,0.1-0.3,0.4-0.4,0.5c-0.1,0.1-0.7,0.7-0.3,0.4
			c0.3-0.3,0,0-0.1,0.1c-0.1,0.1-0.2,0.1-0.3,0.2c0,0-0.2,0.1-0.3,0.2c-0.2,0.1-0.4,0.1-0.7,0.2h-0.1h-0.1c-0.3,0-0.6,0-0.9,0l0,0
			c-0.1,0-0.3-0.1-0.4-0.1c-0.3-0.1-0.5-0.2-0.8-0.2c0.6,0.2-0.1,0-0.3-0.2c-0.2-0.1-0.4-0.2-0.6-0.4c0.1,0.1-0.3-0.2-0.5-0.4
			s-0.4-0.4-0.6-0.6c0,0-0.1-0.1-0.2-0.2l0,0c-0.4-0.5-0.7-1.1-1-1.7c-0.1-0.1-0.1-0.3-0.2-0.4c-0.2-0.4,0.1,0.2,0.1,0.2
			c-0.2-0.2-0.3-0.7-0.3-0.9c-0.1-0.3-0.2-0.7-0.3-1c0.2-0.1,0.5-0.2,0.7-0.3c2.3-1.1,4.2-3.2,5.2-5.5c2.4-5.1,1.8-11.1,0.8-16.5
			l0,0c0.5,0.8,1,1.6,1.5,2.4c0.2,0.4,0.4,0.8,0.6,1.2c0,0.1,0.1,0.1,0.1,0.2c0.1,0.2,0.2,0.4,0.2,0.6c0.4,1.1,0.7,2.2,1,3.3
			C775.8,573.2,775.9,573.8,776,574.3z"/>
		<path class="st8" d="M747,544.6C746.8,544.6,746.5,544.5,747,544.6L747,544.6z"/>
		<path class="st8" d="M748.6,545.3L748.6,545.3C749.1,545.6,748.8,545.4,748.6,545.3z"/>
		<path class="st8" d="M774.5,568.9L774.5,568.9L774.5,568.9z"/>
		<path class="st8" d="M762.9,581C763,581,763.1,581,762.9,581L762.9,581z"/>
		<path class="st8" d="M767.6,604.1L767.6,604.1C767.5,603.7,767.6,603.9,767.6,604.1z"/>
		<path class="st8" d="M763.6,580.6c0.1-0.1,0.1-0.1,0.2-0.1C763.7,580.6,763.7,580.6,763.6,580.6z"/>
		<path class="st8" d="M696.5,561.7C696.5,561.7,696.5,561.6,696.5,561.7C696.5,561.6,696.5,561.7,696.5,561.7L696.5,561.7z"/>
		<path class="st8" d="M696.3,561.8C696.2,561.9,696.1,562,696.3,561.8L696.3,561.8z"/>
		<path class="st8" d="M709.7,553C709.7,553.1,709.7,553.1,709.7,553L709.7,553C709.6,553.1,709.7,553.1,709.7,553z"/>
		<path class="st8" d="M709.6,553.2L709.6,553.2C709.5,553.4,709.6,553.3,709.6,553.2z"/>
		<path class="st8" d="M733.3,538.6c-0.1,0-0.2,0-0.3,0C733.1,538.6,733.3,538.6,733.3,538.6z"/>
		<path class="st8" d="M733,538.7L733,538.7L733,538.7L733,538.7z"/>
		<path class="st9" d="M709.6,553.3L709.6,553.3v-0.2c0.2-0.4,0.4-0.8,0.6-1.1c0.2-0.4,0.4-0.7,0.7-1.1c0.1-0.1,0.6-0.8,0.1-0.2
			c0.1-0.1,0.2-0.2,0.3-0.3c0.6-0.8,1.4-1.5,2.1-2.2c0.2-0.1,0.3-0.2,0.4-0.4c0.3-0.2,0.5-0.4,0.8-0.6c0.1,0,0.2-0.2,0.3-0.2
			c0.2-0.1,0.3-0.2,0.5-0.4c0.3-0.2,0.6-0.4,0.9-0.6c0.7-0.5,1.4-0.9,2.1-1.3c1.5-0.9,3-1.7,4.6-2.5c0.8-0.4,1.7-0.8,2.5-1.1l0,0
			l0,0c0.2-0.1,0.4-0.2,0.6-0.2c0.4-0.1,0.7-0.3,1.1-0.4c1.6-0.6,3.2-1.2,4.9-1.5c0.3-0.1,0.5-0.1,0.8-0.1l0,0c0.2,0,0.3,0,0.3,0
			c0.3,0,0.6,0,0.9,0c0.4,0,0.7,0,1.1,0h0.1h0.1c0.4,0.1,0.7,0.2,1.1,0.3c0.2,0,0.3,0.1,0.5,0.2c0.1,0,0.1,0,0.1,0
			c0.2,0.1,0.5,0.3,0.6,0.4c0,0,0.2,0.1,0.3,0.2l0,0c0.1,0.1,0.1,0.1,0.2,0.2c-0.3,0.1-0.5,0.2-0.8,0.3c-3.3,1.4-6.5,2.8-9.8,4.2
			c-1.8,0.8-2,3.2-1.2,4.7c0.4,0.7,1.3,1.4,2.1,1.6c1,0.3,1.8,0,2.6-0.4c3.2-1.4,6.4-2.8,9.6-4.2c0.2-0.1,0.5-0.2,0.7-0.3h0.1
			c0.1,0,0.3-0.1,0.3-0.1c0.2-0.1,0.4-0.2,0.6-0.2c0.3-0.1,0.6-0.2,0.9-0.3c0.1,0,0.2-0.1,0.3-0.1c0.3-0.1,0.6-0.2,0.9-0.3
			c0.3-0.1,0.6-0.1,0.9-0.2c0.2,0,0.6,0,0.7,0c0.2,0,0.4,0,0.5,0l0,0c0.3,0.1,0.6,0.2,0.9,0.3c0,0,0,0,0.1,0
			c0.1,0.1,0.2,0.1,0.3,0.2c0.1,0.1,0.2,0.1,0.3,0.2c0.2,0.2,0.9,0.9,1,1c0,0,0,0,0,0.1c0.1,0.1,0.1,0.2,0.2,0.3
			c0.2,0.3,0.3,0.5,0.5,0.8c0.1,0.3,0.3,0.5,0.4,0.8c0.1,0.2,0.2,0.4,0.3,0.6c0,0,0,0.1,0.1,0.1c0,0.1,0.1,0.3,0.1,0.3
			c0.1,0.2,0.1,0.4,0.2,0.6c0.1,0.3,0.2,0.6,0.3,0.9c0.2,0.7,0.4,1.4,0.6,2.1c0.4,1.4,0.8,2.8,1,4.3c0,0.3,0.1,0.5,0.1,0.8
			s0.1,0.7,0.1,1c0,0.7,0.1,1.3,0,2c0,0.4,0,0.7-0.1,1.1c0,0.1,0,0.2,0,0.4c-0.1,0.5-0.2,1.1-0.3,1.6c-0.1,0.3-0.2,0.7-0.3,1
			c0,0.1-0.1,0.2-0.1,0.4c-0.1,0.4,0.1-0.2,0.1-0.2c0,0.4-0.7,1.3-0.9,1.6c-0.1,0.1-0.2,0.3-0.3,0.4c-0.1,0.1-0.1,0.1-0.1,0.2
			c-0.1,0.2-0.4,0.3-0.4,0.4c-0.2,0.2-0.5,0.4-0.7,0.6c-0.2,0.1-0.3,0.2-0.4,0.3c-0.3,0.2-0.6,0.3-0.9,0.5c-0.2,0.1-0.4,0.1-0.5,0.2
			c-0.3,0.1-0.6,0.2-0.9,0.2c-0.1,0-0.1,0-0.2,0l0,0c-0.4,0-0.7,0-1.1,0c-0.2,0-0.3-0.1-0.5-0.1c-0.1,0-0.2-0.1-0.3-0.1
			c0,0-0.1-0.1-0.3-0.1c-0.1,0-0.1-0.1-0.2-0.1c-0.1-0.1-0.3-0.2-0.4-0.2c0.2,0.1-0.4-0.3-0.5-0.4c-0.2-0.2-0.3-0.3-0.5-0.5
			c-0.1-0.1-0.2-0.2-0.2-0.3c-0.3-0.4-0.5-0.8-0.7-1.2c-0.1-0.2-0.2-0.4-0.3-0.6c0-0.1-0.1-0.2-0.1-0.4c-0.2-0.5-0.3-1.1-0.4-1.6
			c0-0.1,0-0.1,0-0.2c0-0.2,0-0.5,0-0.7c0-0.7,0-1.4,0.1-2.2c0-0.1,0-0.2,0-0.3c0,0,0,0,0-0.1c0.1-0.3,0.1-0.6,0.2-0.9
			c0.6-2.7,1.6-5.2,2.6-7.8c0.7-1.8-0.8-3.7-2.4-4.2c-1.9-0.6-3.5,0.7-4.2,2.4c-2.6,6.6-4.9,14.1-0.9,20.6c1.6,2.7,4.3,4.9,7.4,5.5
			c1,0.2,1.9,0.3,2.9,0.2c1.5,5,4.8,9.3,10,11c0.4,0.1,0.8,0.2,1.2,0.3c0.6,3,1.8,5.8,3.9,8.2c0,0,0,0.1,0.1,0.1
			c-0.9,1.7-1.5,3.5-1.8,5.4c-1.6,0-3.2-0.1-4.8-0.3c-0.7-0.1-1.4-0.1-2.1-0.2c-0.1,0-0.4-0.1-0.5-0.1c-0.3,0-0.6-0.1-0.9-0.1
			c-1.2-0.2-2.3-0.4-3.4-0.8c-0.3-0.1-0.5-0.2-0.8-0.3h-0.1c0,0-0.1-0.1-0.2-0.1c-0.4-0.2-1.2-0.5-1.5-0.9c0.3,0.3,0.4,0.3,0.1,0
			c-0.1-0.1-0.1-0.1-0.2-0.2c-0.2-0.2-0.5-0.4-0.7-0.7l-0.1-0.1c0,0-0.1-0.1-0.1-0.2c-0.1-0.2-0.3-0.5-0.4-0.7
			c-0.1-0.2-0.4-0.6-0.4-0.8c0.2,0.4,0.2,0.4,0,0.1c0-0.1-0.1-0.2-0.1-0.3c-0.2-0.5-0.3-1-0.4-1.5c0.9,0.1,1.9,0.2,2.8,0.3
			c1.9,0.2,3.4-1.7,3.4-3.4c0.1-2-1.6-3.3-3.4-3.4c-0.7-0.1-1.5-0.2-2.2-0.2c-0.4,0-0.9-0.1-1.3-0.1c0,0-0.4,0-0.5-0.1
			c-1.4-0.2-2.8-0.5-4.2-0.8c-0.7-0.2-1.4-0.4-2.1-0.6c-0.3-0.1-0.6-0.2-0.9-0.3c-0.1,0-0.1-0.1-0.2-0.1c-0.1,0-0.2-0.1-0.3-0.1
			c-1.1-0.5-2.1-1.1-3.1-1.8c-0.1-0.1-0.2-0.2-0.3-0.3c-0.2-0.2-0.5-0.4-0.7-0.6c-0.4-0.4-0.9-0.8-1.2-1.3c0.4,0.8-0.1-0.2-0.2-0.4
			c-0.1-0.2-0.3-0.4-0.4-0.7c-0.1-0.3-0.4-0.6-0.5-0.9c0,0.1,0.1,0.2,0.1,0.4c-0.1-0.2-0.1-0.3-0.2-0.5c-0.2-0.6-0.3-1.1-0.4-1.7
			c0-0.1-0.1-0.4-0.1-0.5c0-0.4,0-0.8,0-1.2c0-0.1,0-0.3,0-0.4c0.3,0.1,0.7,0.2,1,0.3c0,0,0.1,0.1,0.2,0.1c0.1,0.1,0.2,0.1,0.3,0.2
			c0.3,0.1,0.6,0.3,0.9,0.5c0.2,0.1,0.5,0.3,0.7,0.5l0,0c0,0,0.1,0.2,0.3,0.2c0.5,0.4,0.9,0.8,1.3,1.3l0,0c0,0,0.1,0.1,0.1,0.2
			c0.2,0.2,0.3,0.5,0.5,0.7c1,1.7,3.1,2.1,4.7,1.2c1.6-0.9,2.1-3.1,1.2-4.7c-2.8-4.8-8.1-7.2-13.4-7.9c-0.2,0-0.3-0.1-0.5-0.1
			c-0.8-0.1-1.6-0.1-2.4-0.1c-3.3,0-6.5,0.6-9.8,1.1c-0.7,0.1-1.5,0.2-2.2,0.3c-0.1,0-0.6,0.1-0.7,0.1c-0.4,0-0.8,0.1-1.1,0.1
			c-1.3,0.1-2.6,0.2-3.9,0.1c-0.6,0-1.3,0-1.9-0.2c0,0,0.6,0.1,0.2,0c-0.2,0-0.3-0.1-0.5-0.1c-0.3-0.1-0.6-0.1-0.9-0.2
			c-0.6-0.1-1.1-0.3-1.7-0.5c0,0-0.3-0.1-0.4-0.1c0.1,0-0.5-0.2-0.6-0.3c-0.6-0.3-1.1-0.6-1.6-0.9c0,0-0.1-0.1-0.2-0.1l0,0
			c-0.2-0.2-0.4-0.4-0.6-0.6c-0.2-0.2-0.5-0.5-0.7-0.7l0,0c-0.1-0.1-0.2-0.2-0.2-0.4c-0.2-0.3-0.3-0.6-0.5-0.9c0,0,0,0,0-0.1
			s-0.1-0.2-0.1-0.3c-0.1-0.2-0.1-0.4-0.1-0.6c0-0.1-0.1-0.2-0.1-0.2c0-0.2,0-0.5,0-0.6c0,0,0-0.1,0-0.2c0.1-0.2,0.1-0.4,0.2-0.7
			c0.1-0.1,0.1-0.3,0.2-0.4l0.1-0.1l0,0c0.1-0.1,0.1-0.1,0.2-0.2c0.1-0.1,0.3-0.2,0.4-0.2c0.1,0,0.3-0.1,0.4-0.1
			c0.1,0,0.2-0.1,0.4-0.1l0,0c0.1,0,0.3,0,0.5,0c0.4,0,0.7,0,1.1,0c0.2,0,0.4,0,0.6,0.1l0,0c1.6,0.2,3.3,0.6,4.9,0.7
			c6.4,0.4,12.9-1.2,18.3-4.6c1.6-1,2.1-3,1.2-4.7c-0.9-1.6-3.2-2.2-4.7-1.2c-0.8,0.5-1.6,1-2.4,1.4c-0.3,0.2-0.6,0.3-0.9,0.4
			c0,0-0.7,0.3-0.8,0.3c-1.7,0.6-3.4,1.1-5.1,1.4c-0.1,0-0.4,0.1-0.5,0.1h-0.1c-0.2,0-0.4,0-0.7,0.1V555c0.1-0.4,0.2-0.8,0.3-1.2
			C709.5,553.6,709.5,553.4,709.6,553.3z"/>
		<path class="st8" d="M731.9,577.4c0,0,0.1,0,0.2,0.1c0,0,0,0,0.1,0.1C732.1,577.6,731.9,577.5,731.9,577.4z"/>
		<g>
			<path class="st10" d="M678.9,505.5c0.4-1.8,0.6-3.7,0.8-5.5c3.5,0.8,7,1.8,10.4,3.1c0.5,0.2,0.9,0.4,1.4,0.6
				c0.1,0.1,0.4,0.2,0.4,0.2c0.3,0.1,0.5,0.2,0.8,0.3c1,0.4,1.9,0.9,2.9,1.3c2,1,3.9,2,5.8,3.2c1.9,1.2,3.7,2.4,5.5,3.7
				c0.1,0.1,0.2,0.1,0.3,0.2c0,0,0.1,0.1,0.2,0.2c0.2,0.2,0.5,0.4,0.7,0.5c0.4,0.3,0.8,0.6,1.1,0.9c0.9,0.7,1.8,1.5,2.6,2.3
				c1.6,1.5,3.2,3.1,4.7,4.7c0.8,0.9,1.6,1.7,2.3,2.6c0.3,0.4,0.7,0.8,1,1.2c0.1,0.1,0.2,0.2,0.3,0.3c0.1,0.1,0.3,0.4,0.3,0.4
				c1.9,2.5,3.6,5.1,5.2,7.8c-0.1,0-0.3,0.1-0.4,0.1c-3.9,1.5-7.7,3.3-11.2,5.5c-0.7,0.4-1.3,0.8-1.9,1.3c-1.7-2.2-3.6-4.3-5.5-6.2
				c-5-5-10.8-9.3-17-12.5c-3.3-1.7-6.7-3.2-10.3-4.4c-1.5-0.5-3-1-4.6-1.4C676.6,512.8,678.1,509.2,678.9,505.5z"/>
		</g>
		<path class="st8" d="M732.2,577.6L732.2,577.6C732.1,577.6,732.1,577.6,732.2,577.6L732.2,577.6z"/>
		<path class="st8" d="M696.5,561.7L696.5,561.7L696.5,561.7L696.5,561.7z"/>
		<path class="st8" d="M696.4,561.7L696.4,561.7L696.4,561.7z"/>
		<path class="st8" d="M745.2,569.4C745.3,569.4,745.3,569.4,745.2,569.4c0.1,0,0.1,0,0.1,0S745.3,569.4,745.2,569.4z"/>
		<path class="st8" d="M745.4,569.5C745.4,569.4,745.4,569.4,745.4,569.5c0,0,0.1,0,0.2,0.1C745.6,569.5,745.5,569.5,745.4,569.5z"
			/>
		<path class="st8" d="M738.3,539.8c0,0-0.1,0-0.1-0.1l0,0C738.2,539.8,738.3,539.8,738.3,539.8z"/>
		<path class="st8" d="M738.2,539.7L738.2,539.7L738.2,539.7C738,539.6,737.8,539.4,738.2,539.7z"/>
		<path d="M651.8,525.7c0.9-0.3,1.7-0.5,2.5-0.9c0.2-0.1,0.4-0.1,0.5-0.2h0.1c0.4-0.2,0.9-0.4,1.3-0.6c1.6-0.8,3.2-1.8,4.7-2.8
			c0.1-0.1,0.3-0.2,0.4-0.3c0.1-0.1,0.9-0.6,0.1-0.1c0.3-0.2,0.6-0.5,0.9-0.8c0.7-0.6,1.4-1.2,2.1-1.9c0.6-0.6,1.2-1.3,1.8-2
			l0.1-0.1l0,0c0.2-0.3,0.4-0.5,0.7-0.8l0,0l0,0c0.2-0.2,0.3-0.4,0.5-0.7c1-1.5,2-3.1,2.8-4.7c0.1-0.3,0.3-0.6,0.4-0.9
			c0,0,0.3-0.8,0.4-1c0.3-0.9,0.6-1.9,0.9-2.9c0.2-0.8,0.4-1.7,0.6-2.6c0-0.2,0.1-0.7,0.1-0.8c0.1-0.5,0.1-0.9,0.1-1.4
			c0.1-1.4,0.1-2.8,0.1-4.1c0-0.1,0-0.2,0-0.3c0-0.4,0-0.7-0.1-1.1c0-0.3,0-0.5-0.1-0.8c0-0.1,0-0.3,0-0.4c0,0.1,0,0.1,0,0.3
			c0-0.5-0.2-1-0.2-1.5c-0.2-1-0.4-2.1-0.7-3.1c-0.3-1-0.6-1.9-1-2.9c0,0,0-0.1-0.1-0.2c-0.1-0.2-0.2-0.5-0.3-0.7
			c-0.2-0.5-0.5-1-0.7-1.5c-0.8-1.6-0.5-3.8,1.2-4.7c1.6-0.8,3.8-0.5,4.7,1.2c2,3.9,3.3,8.2,3.9,12.5c17.7,3.5,34,13.3,45.2,27.4
			c2.9,3.7,5.5,7.5,7.8,11.6c1.7-0.2,3.3-0.2,5,0.2c2.1,0.4,4,1.4,5.6,2.8c0.9,0.8,1.6,1.8,2.2,2.9c1.1-0.1,2.2-0.1,3.3,0.1
			c2.8,0.5,4.9,2.1,6.5,4.2c4.9,0.4,9.1,3.2,11.8,7.3c0.8,1.3,1.5,2.6,2.1,4c3.7,1.8,6.7,4.5,9.1,7.8c2.6,3.6,3.9,7.7,4.6,12
			c0.3,0.2,0.6,0.4,0.8,0.6c0.9,0.7,1.7,1.6,2.5,2.6c1.5,2,2.7,4.3,3.3,6.7c1.3,5.2,0.3,10.5-1.8,15.3c-0.9,2.2-2,4.2-3.3,6.2
			c-1.4,2.2-2.9,4.5-4.9,6.3c-2.3,2-4.9,3.3-7.9,3.5c-2.8,0.2-5.7-0.9-7.6-2.9c-0.8-0.9-1.5-1.9-2-3c-2.2,0-4.5-0.1-6.7-0.4
			c-2.9-0.3-6-0.7-8.7-1.7c-3-1.2-5.7-3.1-7.2-6.1c-1.1-2.2-1.7-4.5-1.8-6.9c-3.4-0.9-6.6-2.2-9.5-4.5c-2.5-2-4.4-4.7-5.4-7.7
			c-0.6-2-0.8-4.1-0.6-6.1c-0.5,0-1.1,0.1-1.6,0.1c-0.4,0-0.9,0.1-1.3,0.1h-0.1c-0.2,0-0.5,0.1-0.6,0.1c-1.6,0.2-3.2,0.5-4.8,0.7
			c-3,0.4-6.1,0.8-9.1,0.5c-6.3-0.6-12.3-3.5-14.8-9.6c-1.2-3.1-0.7-6.8,1.3-9.4c2.4-3.2,6.2-3.7,9.9-3.2c0.5,0.1,0.9,0.1,1.4,0.2
			c0.3-2.5,1.2-5,2.7-7.2c0.6-0.9,1.3-1.7,2-2.5c-0.1-0.1-0.1-0.2-0.2-0.2c-0.3-0.4-0.6-0.7-0.9-1.1c-1.1-1.3-2.2-2.5-3.3-3.6
			c-2.3-2.3-4.7-4.5-7.2-6.5c0,0-0.2-0.1-0.3-0.2c-0.1-0.1-0.2-0.1-0.2-0.1c-0.3-0.2-0.6-0.5-0.9-0.7c-0.7-0.5-1.3-0.9-2-1.4
			c-1.4-0.9-2.8-1.8-4.2-2.6c-1.5-0.8-3-1.6-4.5-2.3c-0.7-0.3-1.5-0.7-2.2-1c-0.6-0.3-0.1-0.1,0,0c-0.2-0.1-0.4-0.1-0.6-0.2
			c-0.5-0.2-0.9-0.4-1.4-0.5c-2.9-1.1-5.8-1.9-8.8-2.6c-1.2,1.3-2.6,2.6-4,3.7c-3.8,3-8,5.3-12.6,6.6c-1.7,0.5-3.8-0.6-4.2-2.4
			C648.9,528.1,649.9,526.3,651.8,525.7z M747,544.6C746.5,544.5,746.8,544.6,747,544.6L747,544.6z M748.6,545.3L748.6,545.3
			C748.8,545.4,749.1,545.6,748.6,545.3z M748.5,545.2C748.5,545.2,748.6,545.3,748.5,545.2C748.6,545.2,748.5,545.2,748.5,545.2z
			 M761.9,554.5c-0.3-0.5-0.6-1-0.9-1.5c-0.1-0.2-0.2-0.3-0.3-0.5c-0.1-0.1-0.2-0.3-0.3-0.4l0,0c-0.4-0.4-0.8-0.9-1.2-1.2
			c0,0-0.2-0.1-0.3-0.2c0.3,1.2,0.6,2.3,0.8,3.4c1.4,6.5,1.2,14.4-4.2,19.2c-0.5,0.4-1,0.8-1.5,1.1c0.1,0.2,0.1,0.5,0.2,0.7
			c0.1,0.2,0.2,0.5,0.2,0.7c0,0.1,0.1,0.3,0.1,0.4c0.2,0.5,0.5,1,0.7,1.4c0.2,0.3,0.3,0.5,0.5,0.8c0.1,0.2,0.2,0.2,0.2,0.3
			c0.3,0.3,0.6,0.6,0.8,0.8c0.1,0.1,0.3,0.2,0.4,0.3c0,0,0,0,0.1,0.1c0,0,0,0,0.1,0c0.4,0.3,0.9,0.6,1.3,0.8c0.1,0,0.1,0.1,0.2,0.1
			l0,0c0.1,0.1,0.4,0.1,0.5,0.2c0.4,0.1,0.8,0.2,1.2,0.3l0,0c0,0,0,0,0.1,0c0.2,0,0.4,0,0.7,0c0.1,0,0.1,0,0.2,0c0.1,0,0.2,0,0.3,0
			c-0.2,0,0.7-0.2,0.8-0.2h0.1c0.2-0.1,0.5-0.2,0.7-0.4c0.1,0,0.1-0.1,0.2-0.1c0.1,0,0.1-0.1,0.1-0.1c0.1-0.1,0.1-0.1,0.2-0.2
			c0.2-0.2,0.5-0.5,0.7-0.8c0.1-0.1,0.2-0.3,0.2-0.3c0.2-0.3,0.3-0.5,0.4-0.8c0.1-0.2,0.2-0.3,0.3-0.5c0-0.1,0-0.2,0.1-0.2
			c0.1-0.4,0.3-0.9,0.4-1.4c0.1-0.3,0.1-0.5,0.1-0.8v-0.1c0-0.6,0.1-1.2,0.1-1.8c0-1.1-0.1-2.2-0.2-3.3c0-0.6-0.1-1.1-0.2-1.7
			c0-0.1,0-0.1,0-0.2c0-0.1,0-0.1,0-0.2c-0.1-0.3-0.1-0.7-0.2-1c-0.4-2.4-1-4.8-1.7-7.2c-0.3-0.9-0.6-1.9-1-2.8
			c-0.1-0.2-0.2-0.4-0.2-0.6c-0.1-0.1-0.1-0.3-0.2-0.4v-0.1c0,0,0-0.1-0.1-0.1C762.4,555.6,762.1,555,761.9,554.5z M750.3,568.7
			L750.3,568.7L750.3,568.7z M767.6,604.1C767.6,603.9,767.5,603.7,767.6,604.1L767.6,604.1z M763.8,580.5c0,0-0.1,0.1-0.2,0.1
			C763.7,580.6,763.7,580.6,763.8,580.5z M762.9,581C763.1,581,763,581,762.9,581L762.9,581z M774.5,568.9L774.5,568.9L774.5,568.9z
			 M774.7,569.4c-0.1-0.2-0.2-0.4-0.2-0.6c0-0.1-0.1-0.1-0.1-0.2c-0.2-0.4-0.4-0.8-0.6-1.2c-0.4-0.8-0.9-1.6-1.5-2.4l0,0
			c1,5.4,1.6,11.4-0.8,16.5c-1.1,2.3-3,4.4-5.2,5.5c-0.2,0.1-0.5,0.2-0.7,0.3c0.1,0.3,0.2,0.7,0.3,1c0.1,0.2,0.2,0.7,0.3,0.9
			c0,0-0.3-0.6-0.1-0.2c0.1,0.1,0.1,0.3,0.2,0.4c0.3,0.6,0.6,1.1,1,1.7l0,0c0.1,0.1,0.2,0.2,0.2,0.2c0.2,0.2,0.4,0.4,0.6,0.6
			c0.2,0.1,0.6,0.4,0.5,0.4c0.2,0.1,0.4,0.3,0.6,0.4c0.2,0.1,0.9,0.4,0.3,0.2c0.3,0.1,0.5,0.2,0.8,0.2c0.1,0,0.3,0,0.4,0.1l0,0
			c0.3,0,0.6,0,0.9,0c0.1,0,0.1,0,0.1,0c0.1,0,0.1,0,0.1,0c0.2,0,0.4-0.1,0.7-0.2c0.1-0.1,0.3-0.1,0.3-0.2c0.1-0.1,0.2-0.1,0.3-0.2
			c0.1-0.1,0.4-0.4,0.1-0.1c-0.4,0.4,0.3-0.3,0.3-0.4c0.1-0.1,0.3-0.4,0.4-0.5c0-0.1,0.1-0.1,0.1-0.2c0.1-0.2,0.3-0.5,0.4-0.7
			c0-0.1,0.2-0.3,0.2-0.5c0.1-0.1,0.1-0.4,0.2-0.4c0.2-0.6,0.4-1.1,0.5-1.7c0.1-0.5,0.2-1.1,0.3-1.6c0.1-0.3,0.1-0.6,0.2-1
			c0-0.2,0-0.3,0.1-0.5v-0.1c0.4-3.3,0.5-6.5,0.2-9.8c0,0,0,0,0-0.1s0-0.1,0-0.2l0,0c0-0.3-0.1-0.5-0.1-0.8
			c-0.1-0.5-0.2-1.1-0.3-1.6C775.4,571.6,775.1,570.5,774.7,569.4z M772.3,593.1L772.3,593.1L772.3,593.1z M773.9,591.9
			C773.7,592,773.7,592.2,773.9,591.9L773.9,591.9z M775.9,585.1C776,584.9,776,584.9,775.9,585.1L775.9,585.1z M776.5,603.9
			C776.4,604.1,776.2,604.3,776.5,603.9L776.5,603.9z M770.6,607.6c-0.1,0-0.2,0-0.2,0S770.5,607.7,770.6,607.6z M769.9,607.5
			c-0.1,0-0.2-0.1-0.3-0.1C769.7,607.5,769.8,607.5,769.9,607.5z M768.1,605.9c0-0.1-0.1-0.2-0.1-0.3
			C768,605.6,768,605.8,768.1,605.9z M768,605.4c0,0.1,0.1,0.2,0.1,0.2c0,0.1,0.1,0.2,0.1,0.2c0.1,0.1,0.2,0.3,0.2,0.4
			c0,0.1,0.1,0.2,0.1,0.3c0.1,0.1,0.2,0.2,0.3,0.3c0.1,0.1,0.2,0.2,0.3,0.3c0.1,0,0.2,0.1,0.3,0.1c0,0,0.1,0.1,0.2,0.1
			c0.2,0.1,0.3,0.1,0.5,0.1c0,0,0.1,0,0.2,0.1c0,0,0.1,0,0.2,0c0.2,0,0.3,0,0.5,0c0,0,0.1,0,0.2,0c0.1,0,0.4-0.1,0.4-0.1
			c0.1,0,1.3-0.3,1.3-0.4c-0.1,0.1-0.2,0.1-0.4,0.2c0.2-0.1,0.3-0.2,0.5-0.2c0.2-0.1,0.3-0.2,0.5-0.3s0.5-0.3,0.7-0.4l0.1-0.1
			l0.1-0.1c0.8-0.7,1.5-1.5,2.2-2.3l0,0c0.2-0.2,0.3-0.5,0.5-0.7c0.3-0.5,0.6-1,1-1.5c1.1-1.7,2-3.4,2.9-5.1
			c0.1-0.3,0.2-0.5,0.4-0.8c0,0,0.1-0.3,0.2-0.4c0.1-0.1,0.1-0.3,0.1-0.3c0.1-0.3,0.2-0.5,0.3-0.8c0.3-1,0.6-1.9,0.8-2.9
			c0.1-0.4,0.1-0.7,0.2-1.1c0,0,0.1-0.8,0.1-1c0-0.5,0-0.9,0-1.4c0-0.4,0.1-1.2-0.1-1.5c0,0.1,0,0.3,0.1,0.4c0-0.2,0-0.3-0.1-0.5
			c0-0.3-0.1-0.5-0.2-0.8l0,0v0.1c-0.4,3.1-1,6.2-2.5,9c-1.7,3.1-4.7,5.2-8.3,5.5c-1.2,0.1-2.3,0-3.5-0.3c0,0,0,0.1-0.1,0.1
			c-0.1,0.2-0.2,0.3-0.2,0.5c0.3-0.7,0,0.1-0.1,0.2c-0.2,0.5-0.3,1.1-0.5,1.7v0.1c0,0,0,0,0,0.1c0,0.3,0,0.5,0,0.8s0,0.6,0,0.9
			c0.1,0.2,0.1,0.3,0.1,0.5C767.8,604.9,767.9,605.2,768,605.4z M695.9,562.9L695.9,562.9L695.9,562.9z M695.8,563.1
			C695.7,563.5,695.8,563.2,695.8,563.1L695.8,563.1z M696.3,561.8C696.1,562,696.2,561.9,696.3,561.8L696.3,561.8z M696.5,561.7
			C696.4,561.7,696.4,561.7,696.5,561.7C696.4,561.7,696.4,561.7,696.5,561.7z M696.4,561.7C696.5,561.7,696.5,561.7,696.4,561.7
			C696.5,561.7,696.5,561.7,696.4,561.7C696.5,561.7,696.5,561.7,696.4,561.7z M696.5,561.7L696.5,561.7
			C696.5,561.7,696.5,561.6,696.5,561.7C696.5,561.6,696.5,561.7,696.5,561.7z M709.1,555c0.2,0,0.4,0,0.7-0.1h0.1
			c0.1,0,0.5-0.1,0.5-0.1c1.7-0.3,3.5-0.7,5.1-1.4c0.2-0.1,0.8-0.3,0.8-0.3c0.3-0.1,0.6-0.3,0.9-0.4c0.8-0.4,1.7-0.9,2.4-1.4
			c1.5-0.9,3.8-0.4,4.7,1.2c0.9,1.7,0.4,3.7-1.2,4.7c-5.4,3.4-11.9,5-18.3,4.6c-1.7-0.1-3.3-0.4-4.9-0.7l0,0c-0.2,0-0.4,0-0.6-0.1
			c-0.4,0-0.7,0-1.1,0c-0.1,0-0.3,0-0.5,0l0,0c-0.1,0-0.2,0-0.4,0.1c0,0-0.2,0.1-0.4,0.1c-0.1,0.1-0.3,0.2-0.4,0.2
			c-0.1,0.1-0.1,0.1-0.2,0.2l0,0c0,0.1-0.1,0.1-0.1,0.1c-0.1,0.1-0.1,0.3-0.2,0.4c-0.1,0.2-0.1,0.4-0.2,0.7c0,0.1,0,0.2,0,0.2
			c0,0.2,0,0.4,0,0.6c0,0,0,0.1,0.1,0.2c0.1,0.2,0.1,0.4,0.1,0.6c0,0.1,0,0.2,0.1,0.3c0,0,0,0,0,0.1c0.2,0.3,0.3,0.6,0.5,0.9
			c0.1,0.1,0.2,0.2,0.2,0.4l0,0c0.2,0.3,0.4,0.5,0.7,0.7c0.2,0.2,0.4,0.4,0.6,0.6l0,0c0.1,0.1,0.2,0.1,0.2,0.1
			c0.5,0.4,1.1,0.7,1.6,0.9c0.1,0.1,0.7,0.3,0.6,0.3c0.2,0.1,0.4,0.1,0.4,0.1c0.6,0.2,1.1,0.3,1.7,0.5c0.3,0.1,0.6,0.1,0.9,0.2
			c0.2,0,0.3,0.1,0.5,0.1c0.4,0.1-0.2,0-0.2,0c0.6,0.2,1.3,0.1,1.9,0.2c1.3,0.1,2.6,0,3.9-0.1c0.4,0,0.8-0.1,1.1-0.1
			c0.1,0,0.7-0.1,0.7-0.1c0.7-0.1,1.5-0.2,2.2-0.3c3.2-0.5,6.5-1,9.8-1.1c0.8,0,1.6,0,2.4,0.1c0.2,0,0.3,0,0.5,0.1
			c5.4,0.6,10.6,3.1,13.4,7.9c0.9,1.6,0.4,3.8-1.2,4.7c-1.6,0.9-3.7,0.4-4.7-1.2c-0.1-0.3-0.3-0.5-0.5-0.7c0-0.1-0.1-0.1-0.1-0.2
			l0,0c-0.4-0.5-0.8-0.9-1.3-1.3l0,0c0,0,0,0-0.1,0c0,0,0,0-0.1-0.1c-0.1-0.1-0.2-0.1-0.2-0.1l0,0c-0.2-0.2-0.5-0.3-0.7-0.5
			c-0.3-0.2-0.6-0.3-0.9-0.5c-0.1-0.1-0.2-0.1-0.3-0.2c-0.2-0.1-0.2-0.1-0.2-0.1c-0.3-0.1-0.6-0.2-1-0.3c0,0.1,0,0.3,0,0.4
			c0,0.4,0,0.8,0,1.2c0,0.1,0,0.4,0.1,0.5c0.1,0.6,0.2,1.1,0.4,1.7c0.1,0.2,0.1,0.3,0.2,0.5c0-0.1-0.1-0.2-0.1-0.4
			c0,0.3,0.3,0.7,0.5,0.9c0.1,0.2,0.3,0.5,0.4,0.7c0.1,0.2,0.7,1.1,0.2,0.4c0.3,0.5,0.8,0.9,1.2,1.3c0.2,0.2,0.5,0.4,0.7,0.6
			c0.1,0.1,0.2,0.2,0.3,0.3c1,0.7,2,1.3,3.1,1.8c0.1,0,0.2,0.1,0.3,0.1c0,0,0.1,0,0.2,0.1c0.3,0.1,0.6,0.2,0.9,0.3
			c0.7,0.2,1.4,0.4,2.1,0.6c1.4,0.3,2.8,0.6,4.2,0.8c0.2,0,0.5,0.1,0.5,0.1c0.4,0.1,0.9,0.1,1.3,0.1c0.7,0.1,1.5,0.2,2.2,0.2
			c1.8,0.2,3.5,1.5,3.4,3.4c-0.1,1.7-1.5,3.6-3.4,3.4c-0.9-0.1-1.9-0.2-2.8-0.3c0.1,0.5,0.2,1,0.4,1.5c0,0.1,0.1,0.2,0.1,0.3
			c0.1,0.4,0.1,0.4,0-0.1c0,0.2,0.3,0.6,0.4,0.8c0.1,0.2,0.3,0.5,0.4,0.7c0.1,0.1,0.1,0.1,0.1,0.2l0.1,0.1c0.2,0.2,0.4,0.5,0.7,0.7
			c0.1,0.1,0.1,0.1,0.2,0.2c0.3,0.2,0.3,0.2-0.1,0c0.3,0.4,1.1,0.7,1.5,0.9c0.1,0,0.2,0.1,0.2,0.1s0,0,0.1,0
			c0.3,0.1,0.5,0.2,0.8,0.3c1.1,0.4,2.3,0.6,3.4,0.8c0.3,0.1,0.6,0.1,0.9,0.1c0.1,0,0.4,0.1,0.5,0.1c0.7,0.1,1.4,0.2,2.1,0.2
			c1.6,0.2,3.2,0.2,4.8,0.3c0.3-1.9,0.9-3.7,1.8-5.4c0,0,0-0.1-0.1-0.1c-2.1-2.4-3.3-5.2-3.9-8.2c-0.4-0.1-0.8-0.2-1.2-0.3
			c-5.2-1.7-8.5-6-10-11c-1,0-1.9,0-2.9-0.2c-3.1-0.6-5.8-2.8-7.4-5.5c-4-6.5-1.8-14,0.9-20.6c0.7-1.7,2.3-3,4.2-2.4
			c1.6,0.5,3.1,2.4,2.4,4.2c-1,2.5-2,5.1-2.6,7.8c-0.1,0.3-0.1,0.6-0.2,0.9v0.1c0,0.1,0,0.2,0,0.3c-0.1,0.7-0.1,1.4-0.1,2.2
			c0,0.2,0,0.5,0,0.7c0,0,0,0.1,0,0.2c0.1,0.6,0.2,1.1,0.4,1.6c0,0.1,0.1,0.2,0.1,0.4c0.1,0.2,0.2,0.4,0.3,0.6
			c0.2,0.4,0.5,0.8,0.7,1.2c0.1,0.1,0.2,0.2,0.2,0.3c0.2,0.2,0.3,0.3,0.5,0.5c0.1,0.1,0.6,0.4,0.5,0.4c0.1,0.1,0.3,0.2,0.4,0.2
			s0.1,0.1,0.2,0.1H745h0.1c0,0,0,0,0.1,0c0.1,0.1,0.2,0.1,0.2,0.1c0.1,0,0.2,0.1,0.3,0.1c0.2,0,0.3,0.1,0.5,0.1c0.4,0,0.7,0,1.1,0
			l0,0c0.1,0,0.1,0,0.2,0c0.3-0.1,0.6-0.1,0.9-0.2c0.2-0.1,0.3-0.1,0.5-0.2c0.3-0.2,0.6-0.3,0.9-0.5c0.2-0.1,0.3-0.2,0.4-0.3
			c0.2-0.2,0.5-0.4,0.7-0.6c0.1-0.1,0.3-0.2,0.4-0.4c0,0,0-0.1,0.1-0.2c0.1-0.1,0.2-0.3,0.3-0.4c0.2-0.3,0.9-1.2,0.9-1.6
			c0,0-0.2,0.6-0.1,0.2c0-0.1,0.1-0.2,0.1-0.4c0.1-0.3,0.2-0.7,0.3-1c0.1-0.5,0.2-1.1,0.3-1.6c0-0.1,0-0.2,0-0.4
			c0-0.4,0.1-0.7,0.1-1.1c0-0.7,0-1.3,0-2c0-0.3-0.1-0.7-0.1-1s-0.1-0.5-0.1-0.8c-0.3-1.4-0.6-2.9-1-4.3c-0.2-0.7-0.4-1.4-0.6-2.1
			c-0.1-0.3-0.2-0.6-0.3-0.9c-0.1-0.2-0.1-0.4-0.2-0.6c0,0-0.1-0.2-0.1-0.3s0-0.1-0.1-0.1c-0.1-0.2-0.2-0.4-0.3-0.6
			c-0.1-0.3-0.3-0.6-0.4-0.8c-0.2-0.3-0.3-0.6-0.5-0.8c-0.1-0.1-0.1-0.2-0.2-0.3c0,0,0,0,0-0.1c-0.2-0.2-0.8-0.8-1-1
			c-0.1-0.1-0.2-0.1-0.3-0.2c-0.1-0.1-0.2-0.1-0.3-0.2c0,0,0,0-0.1,0c-0.3-0.1-0.6-0.2-0.9-0.3l0,0c-0.2,0-0.4,0-0.5,0
			c-0.2,0-0.6,0-0.7,0c-0.3,0-0.6,0.1-0.9,0.2c-0.3,0.1-0.6,0.2-0.9,0.3c-0.1,0-0.2,0.1-0.3,0.1c-0.3,0.1-0.6,0.2-0.9,0.3
			c-0.2,0.1-0.4,0.1-0.6,0.2c0,0-0.2,0.1-0.3,0.1h-0.1c-0.2,0.1-0.5,0.2-0.7,0.3c-3.2,1.4-6.4,2.8-9.6,4.2c-0.9,0.4-1.7,0.6-2.6,0.4
			c-0.8-0.2-1.7-0.8-2.1-1.6c-0.8-1.5-0.5-3.9,1.2-4.7c3.3-1.4,6.5-2.8,9.8-4.2c0.3-0.1,0.5-0.2,0.8-0.3c-0.1-0.1-0.1-0.1-0.2-0.2
			c0.1,0,0.1,0.1,0.1,0.1s0,0-0.1-0.1l0,0c-0.4-0.3-0.2-0.1,0,0c-0.1-0.1-0.3-0.2-0.3-0.2c-0.1-0.1-0.4-0.3-0.6-0.4h-0.1
			c-0.2-0.1-0.3-0.1-0.5-0.2c-0.4-0.1-0.7-0.2-1.1-0.3c-0.1,0-0.1,0-0.1,0h-0.1c-0.4,0-0.7,0-1.1,0c-0.3,0-0.6,0-0.9,0
			c0,0-0.2,0-0.3,0l0,0l0,0l0,0c-0.3,0-0.5,0.1-0.8,0.1c-1.7,0.3-3.3,0.9-4.9,1.5c-0.4,0.1-0.7,0.3-1.1,0.4
			c-0.2,0.1-0.4,0.2-0.6,0.2l0,0l0,0c-0.8,0.4-1.7,0.7-2.5,1.1c-1.6,0.8-3.1,1.6-4.6,2.5c-0.7,0.4-1.4,0.9-2.1,1.3
			c-0.3,0.2-0.6,0.4-0.9,0.6c-0.2,0.1-0.3,0.2-0.5,0.4c-0.1,0.1-0.2,0.2-0.3,0.2c-0.3,0.2-0.5,0.4-0.8,0.6c-0.1,0.1-0.3,0.3-0.4,0.4
			c-0.8,0.7-1.5,1.4-2.1,2.2c-0.1,0.1-0.2,0.2-0.3,0.3c0.5-0.6-0.1,0.1-0.1,0.2c-0.2,0.3-0.5,0.7-0.7,1.1c-0.2,0.4-0.4,0.7-0.6,1.1
			v0.1V553v0.1c-0.1,0.1-0.1,0.3,0,0.1c-0.1,0.1-0.1,0.3-0.1,0.4C709.3,554.1,709.2,554.5,709.1,555L709.1,555z M679.2,517.4
			c3.5,1.2,7,2.7,10.3,4.4c6.2,3.3,12,7.6,17,12.5c2,2,3.8,4.1,5.5,6.2c0.6-0.4,1.3-0.9,1.9-1.3c3.5-2.2,7.3-4,11.2-5.5
			c0.1,0,0.3-0.1,0.4-0.1c-1.6-2.7-3.3-5.3-5.2-7.8c0-0.1-0.3-0.4-0.3-0.4c-0.1-0.1-0.2-0.2-0.3-0.3c-0.3-0.4-0.7-0.8-1-1.2
			c-0.7-0.9-1.5-1.8-2.3-2.6c-1.5-1.6-3.1-3.2-4.7-4.7c-0.9-0.8-1.7-1.5-2.6-2.3c-0.4-0.3-0.7-0.6-1.1-0.9c-0.2-0.2-0.5-0.4-0.7-0.5
			c-0.1-0.1-0.2-0.1-0.2-0.2c-0.1-0.1-0.2-0.1-0.3-0.2c-1.8-1.3-3.6-2.6-5.5-3.7c-1.9-1.1-3.8-2.2-5.8-3.2c-0.9-0.5-1.9-0.9-2.9-1.3
			c-0.3-0.1-0.5-0.2-0.8-0.3c-0.1,0-0.3-0.1-0.4-0.2c-0.5-0.2-0.9-0.4-1.4-0.6c-3.4-1.3-6.9-2.3-10.4-3.1c-0.1,1.9-0.4,3.7-0.8,5.5
			c-0.8,3.7-2.3,7.3-4.2,10.6C676.2,516.4,677.7,516.9,679.2,517.4z"/>
		<path class="st11" d="M709.6,553.2C709.6,553.1,709.6,553.1,709.6,553.2L709.6,553.2C709.6,553.2,709.6,553.2,709.6,553.2z"/>
		<path class="st11" d="M738.2,539.7L738.2,539.7L738.2,539.7z"/>
		<path class="st11" d="M733,538.7L733,538.7c0.1,0,0.2,0,0.3,0C733.3,538.6,733.2,538.7,733,538.7z"/>
		<path class="st11" d="M731.9,577.4c0,0,0.2,0.1,0.2,0.2l0,0C732,577.6,731.9,577.4,731.9,577.4z"/>
		<path class="st11" d="M745.6,569.5c-0.1,0-0.2-0.1-0.3-0.1l0,0C745.5,569.4,745.6,569.5,745.6,569.5z"/>
	</g>
	<g class="st7">
		<g>
			<path class="st8" d="M297.4,439.1C297.4,439,297.5,438.7,297.4,439.1L297.4,439.1z"/>
			<path class="st8" d="M297,440.3C297,440.3,297,440.2,297,440.3L297,440.3z"/>
			<path class="st10" d="M267.8,468.6C267.7,468.7,267.7,468.6,267.8,468.6c-0.5-0.5-1.1-0.8-1.8-1c-10.5-2.5-14-13.3-13.8-22.5
				c0.3-10.7,5.9-22.6,16.1-24.5c3-0.6,5.4,0,7.3,1.8c7.8,7.1,7.2,30.3,6.4,38.6c-0.1,0.5,0,1,0.2,1.4c0,0-0.1,0.1-0.1,0.1
				c0.1,0.1,0.2,0.2,0.3,0.3c0.3,0.6,0.7,1,1.2,1.4c1,1.2,2.1,2.4,3.3,3.6c0.6,0.6,1.2,1.1,1.8,1.7v0.2c4.5,4.2,9.7,7.9,15.1,10.7
				c3.3,1.7,6.7,3.2,10.3,4.4c1.5,0.5,3,1,4.5,1.4c-0.4,0.7-0.8,1.4-1.1,2.2c0,0,0,0.1-0.1,0.1c-1.3,2.5-2.3,5.3-2.9,8.2
				c-0.4,1.8-0.6,3.6-0.8,5.4c-3.5-0.8-6.9-1.8-10.3-3.1c-0.5-0.2-0.9-0.4-1.4-0.6c-0.1-0.1-0.3-0.2-0.4-0.2
				c-0.3-0.1-0.5-0.2-0.8-0.3c-1-0.4-2-0.8-2.9-1.3c-2-1-3.9-2.1-5.8-3.2c-1.9-1.1-3.7-2.4-5.5-3.7c-0.1-0.1-0.2-0.1-0.3-0.2
				c0-0.1-0.1-0.1-0.2-0.2c-0.2-0.1-0.5-0.3-0.7-0.5c-0.4-0.3-0.7-0.6-1.1-0.9c-0.9-0.8-1.7-1.5-2.6-2.3c-1.6-1.5-3.2-3.1-4.7-4.7
				c-0.8-0.8-1.6-1.7-2.3-2.6c-0.3-0.4-0.7-0.8-1-1.2l-0.3-0.3c0,0-0.3-0.3-0.3-0.4c-1.6-2.2-3.1-4.4-4.5-6.7
				c-0.1-0.3-0.3-0.6-0.5-0.9C267.8,468.8,267.8,468.7,267.8,468.6z"/>
			<path d="M282.1,462.5c0,0.1,0.1,0.3,0.2,0.4c-0.1-0.1-0.2-0.2-0.3-0.3C282,462.6,282,462.5,282.1,462.5z"/>
			<path d="M263.1,474.1c0.4,0.1,0.8,0.3,1.3,0.4c0.3,0.1,0.5,0.1,0.8,0.1c1.6,0,3-1.1,3.4-2.7c0.2-0.8,0.1-1.5-0.2-2.2
				c1.4,2.3,2.9,4.5,4.5,6.7c0,0.1,0.3,0.4,0.3,0.4l0.3,0.3c0.3,0.4,0.7,0.8,1,1.2c0.7,0.9,1.5,1.8,2.3,2.6c1.5,1.6,3.1,3.2,4.7,4.7
				c0.9,0.8,1.7,1.5,2.6,2.3c0.4,0.3,0.7,0.6,1.1,0.9c0.2,0.2,0.5,0.4,0.7,0.5c0.1,0.1,0.2,0.1,0.2,0.2c0.1,0.1,0.2,0.1,0.3,0.2
				c1.8,1.3,3.6,2.6,5.5,3.7c1.9,1.1,3.8,2.2,5.8,3.2c0.9,0.5,1.9,0.9,2.9,1.3c0.3,0.1,0.5,0.2,0.8,0.3c0.1,0,0.3,0.1,0.4,0.2
				c0.5,0.2,0.9,0.4,1.4,0.6c3.4,1.3,6.8,2.3,10.3,3.1c0,0,0.1,0,0.1,0c0.1-1.9,0.4-3.7,0.8-5.5c0.6-2.8,1.6-5.5,2.8-8.1
				c0,0,0-0.1,0.1-0.1c0.4-0.7,0.7-1.5,1.1-2.2c0.1-0.1,0.1-0.2,0.2-0.3c-1.6-0.2-3.1-0.7-4.6-1.2c-3.5-1.2-7-2.7-10.3-4.4
				c-5.5-2.9-10.6-6.6-15.2-10.8c-0.6-0.6-1.2-1.1-1.8-1.7c-1.2-1.2-2.2-2.4-3.3-3.6c0.5,0.3,1,0.5,1.6,0.6c1.9,0.2,3.6-1.2,3.8-3.1
				c0-0.3,0.1-0.8,0.1-1.5c0.6,0.7,1.2,1.3,1.8,1.9c2.3,2.3,4.7,4.5,7.2,6.5c0,0,0.2,0.1,0.3,0.2c0.1,0.1,0.2,0.1,0.2,0.1
				c0.3,0.2,0.6,0.5,0.9,0.7c0.7,0.5,1.3,0.9,2,1.4c1.4,0.9,2.8,1.8,4.2,2.6c1.5,0.8,3,1.6,4.5,2.3c0.7,0.3,1.5,0.7,2.2,1
				c0.2,0.1,0.4,0.1,0.6,0.2c0.5,0.2,0.9,0.4,1.4,0.5c2.9,1.1,5.8,1.9,8.8,2.6c1.2-1.3,2.6-2.6,4-3.7c3.8-3,8-5.3,12.6-6.6
				c1.7-0.5,3.8,0.6,4.2,2.4c0.4,1.7-0.6,3.5-2.4,4.1c-0.9,0.3-1.7,0.5-2.5,0.9c-0.2,0.1-0.4,0.1-0.5,0.2h-0.1
				c-0.4,0.2-0.9,0.4-1.3,0.6c-1.6,0.8-3.2,1.8-4.7,2.8c-0.1,0.1-0.3,0.2-0.4,0.3c0,0-0.1,0.1-0.3,0.2c0,0,0.1,0,0.2-0.1
				c-0.3,0.2-0.6,0.5-0.9,0.8c-0.7,0.6-1.4,1.2-2.1,1.9c-0.6,0.6-1.2,1.3-1.8,2l-0.1,0.1c-0.2,0.3-0.4,0.5-0.7,0.8
				c-0.2,0.2-0.3,0.4-0.5,0.7c-1,1.5-2,3.1-2.8,4.7c-0.1,0.3-0.3,0.6-0.4,0.9c0,0-0.3,0.8-0.4,1c-0.3,0.9-0.6,1.9-0.9,2.9
				c-0.2,0.8-0.4,1.7-0.6,2.6c0,0.2-0.1,0.7-0.1,0.8c-0.1,0.5-0.1,0.9-0.1,1.4c-0.1,1.4-0.1,2.8-0.1,4.1v0.3c0,0.4,0,0.7,0.1,1.1
				c0,0.3,0,0.5,0.1,0.8v0.1c0,0.5,0.2,1,0.2,1.5c0.2,1,0.4,2.1,0.7,3.1c0.3,1,0.6,1.9,1,2.9c0,0,0,0.1,0.1,0.2
				c0.1,0.2,0.2,0.5,0.3,0.7c0.2,0.5,0.5,1,0.7,1.5c0.8,1.6,0.5,3.8-1.2,4.7c-1.6,0.8-3.8,0.5-4.7-1.2c-2-3.9-3.3-8.2-3.9-12.5
				c-17.2-3.4-33.1-12.8-44.3-26.3c-0.3-0.4-0.6-0.7-0.9-1.1C266.6,479.4,264.8,476.8,263.1,474.1z"/>
			<path d="M296.3,441c-0.1,0-0.2,0.1-0.4,0.1C295.9,441.1,296.1,441,296.3,441z"/>
			<path d="M267.9,468.8c0-0.1-0.1-0.1-0.1-0.2c0,0,0,0,0,0C267.8,468.7,267.8,468.8,267.9,468.8z"/>
			<path d="M285,464.9c-0.6-0.1-1.1-0.3-1.6-0.6c-0.5-0.4-0.9-0.8-1.2-1.4c-0.1-0.1-0.1-0.3-0.2-0.4c-0.1-0.4-0.2-0.9-0.2-1.4
				c0.9-8.3,1.4-31.5-6.4-38.6c-2-1.8-4.3-2.4-7.3-1.8c-10.2,1.9-15.8,13.8-16.1,24.5c-0.2,9.2,3.3,20,13.8,22.5
				c0.7,0.2,1.3,0.5,1.7,1c0,0.1,0.1,0.1,0.1,0.2c0.2,0.3,0.4,0.6,0.5,0.9c0.3,0.7,0.4,1.4,0.2,2.2c-0.4,1.6-1.8,2.7-3.4,2.7
				c-0.3,0-0.5,0-0.8-0.1c-0.4-0.1-0.8-0.2-1.3-0.4c-8.7-2.6-14.9-10-17-19.9c-0.6-2.9-0.9-5.9-0.9-9.2c0.1-2.4,0.3-4.9,0.9-7.4
				c2.3-11,9.1-21.6,20.9-23.8c5.2-1,9.8,0.2,13.3,3.5c4.7,4.3,7.1,11.8,8.2,19.5c1.4,9.7,0.8,19.6,0.5,23.5
				c-0.1,0.7-0.1,1.2-0.1,1.5C288.7,463.7,287,465.1,285,464.9z"/>
		</g>
		<g>
			<path class="st9" d="M284.7,424.5c-0.8-4.2-1.5-8.3-2.2-12.3c-0.7-4-1.4-7.9-2.1-11.7c-0.3-1.9-0.7-3.8-1-5.6
				c-0.3-1.9-0.6-3.6-1.2-5.1c-0.6-1.5-1.5-2.6-2.7-3.3c-1.3-0.6-2.8-0.7-4.3-0.5c-2.9,0.5-5.8,2.2-7.2,4.4
				c-0.7,1.1-1.1,2.5-1.4,3.8c-0.2,1.3-0.2,2.7-0.2,4c0.2,2.7,0.7,5.2,1.1,7.7c0.3,2.1,0.4,4.2,0.3,6.1c0,0.9-0.1,1.8-0.2,2.6
				c-0.2,1.5-0.4,2.8-0.7,4.1c-0.8,3.4-1.9,5.9-2.7,7.5c-0.9,1.6-1.5,2.4-1.5,2.3c-0.1-0.1,0.3-0.9,0.9-2.6c0.6-1.7,1.5-4.2,2.1-7.5
				c0.3-1.7,0.5-3.7,0.5-5.8c-1.4-2-3-4.3-5-6.9c-3.2-4.2-7.1-9.2-11.7-14.3c-2.3-2.6-4.9-5.2-7.7-7.5c-2.9-2.3-6.1-4.4-9.7-5.7
				c-1.8-0.6-3.6-1.1-5.3-1c-1.7,0.1-3,0.6-4,1.8c-0.9,1.2-1.5,2.8-1.6,4.3c-0.1,1.6,0.1,3.2,0.6,4.7c1,2.9,3.5,4.9,5.9,6.8
				c2.5,1.9,4.8,4,6.5,6.1c1.8,2.1,3.1,4.2,4.2,6.1c0.6,1.1,1.1,2.2,1.5,3.2c0.1,0.1,0.2,0.3,0.3,0.4c1.7,2.1,2.4,3.4,2.3,3.5
				c-0.1,0.1-0.7-0.3-1.6-1.2c-0.4-0.4-0.9-0.9-1.5-1.4c-0.3-0.2-0.6-0.5-0.9-0.8c-0.8-0.7-1.7-1.6-2.7-2.5c-1.4-1.3-3-2.6-4.9-4.1
				c-3.7-2.9-8.3-6.2-13.7-9.2c-2.7-1.5-5.6-3-8.6-3.6c-1.5-0.3-3-0.3-4.5,0c-1.5,0.3-2.9,1-3.9,2.1c-1,1-1.6,2.3-1.6,3.8
				c-0.1,1.4,0.3,2.9,1,4.3c1.3,2.7,3.8,4.7,6.3,6.6c2.5,1.9,4.9,3.6,7.2,5.3c1.3,1,2.6,2,3.8,3c0.8,0.7,1.6,1.3,2.3,2
				c1.1,0.9,2,1.9,2.9,2.8c0.6,0.6,1.2,1.3,1.7,1.9c1.3,1.5,2.2,2.8,2.9,4c0.7,1.2,1.2,2.1,1.4,2.8c0.3,0.7,0.4,1,0.3,1.1
				c-0.1,0-0.4-0.2-0.8-0.8c-0.4-0.6-1.1-1.4-1.9-2.4c-0.9-1-1.9-2.2-3.2-3.5c-1.3-1.3-2.9-2.7-4.8-4.2c-1.5-1.2-3.1-2.4-4.9-3.6
				c-0.2-0.1-0.5-0.2-0.7-0.3c-1.6-0.7-3.4-1.4-5.4-1.9c-2-0.5-4.1-0.8-6.3-0.7c-2.2,0.1-4.4,0.7-6.2,2c-1.8,1.3-3.1,3.3-2.9,5.5
				c0.1,2.2,1.4,4.4,3,6c1.7,1.6,3.8,2.8,5.9,3.9c2.1,1.1,4.2,2.1,6,3.3c1.9,1.1,3.5,2.2,5,3.3c1.4,1,2.6,2,3.7,2.9
				c0.5,0.4,0.9,0.8,1.3,1.1c0,0,0,0,0,0c0.6,0.6,1.2,1.1,1.7,1.6c1.4,1.5,2.1,2.4,2,2.5c-0.2,0.2-1.1-0.4-2.8-1.6
				c-1.5-1-3.5-2.4-6-4h0c-1-0.2-2.2-0.4-3.4-0.6c-1.7-0.1-3.5-0.1-5.4,0.4c-1.9,0.5-3.9,1.5-5.3,3.2c-1.4,1.7-2.2,4.2-1.5,6.5
				c0.7,2.3,2.8,4.2,5.4,5.3c2.7,1.1,5.8,1.5,9.2,2.4c3.3,0.9,6.7,2.2,10,3.8c6.7,3.1,13.2,7.3,20.4,10.8c3.6,1.7,7.4,3.2,11.4,4.2
				c2,0.5,4,0.8,6.1,0.9c2.1,0.1,4.1,0,6.2-0.3c4.1-0.7,8.3-2.2,11.9-4.6c3.7-2.4,7-5.4,9.5-9.2c2.5-3.7,4.1-7.9,4.8-12.2
				c0.7-4.3,0.6-8.7,0.1-13.1C286.3,432.9,285.5,428.7,284.7,424.5z"/>
			<g>
				<path d="M256,480.6c-0.7,0-1.4,0-2.1-0.1c-2.2-0.2-4.5-0.5-6.8-1.1c-3.8-0.9-7.7-2.4-12.2-4.6c-3.8-1.9-7.3-3.9-10.7-5.8
					c-3.3-1.9-6.5-3.7-9.6-5.2c-3.4-1.7-6.5-2.9-9.4-3.7c-1.1-0.3-2.2-0.6-3.3-0.8c-2.1-0.5-4.2-1-6.3-1.9c-1.7-0.8-3.1-1.7-4.3-2.9
					c-1.3-1.3-2.3-2.9-2.7-4.5c-0.4-1.6-0.4-3.4,0.1-5.1c0.4-1.4,1.2-2.8,2.2-4c0.9-1.1,2.1-2,3.3-2.6c1-0.6,2.2-1,3.5-1.3
					c0.7-0.2,1.5-0.3,2.3-0.3c-1.5-0.8-3.2-1.6-4.9-2.4l-0.5-0.2c-2.3-1.1-4.8-2.4-7-4.4c-1.2-1.1-2.2-2.4-2.9-3.8
					c-0.9-1.7-1.4-3.4-1.4-5c-0.1-1.8,0.4-3.7,1.3-5.3c0.8-1.5,2-2.7,3.4-3.7c2.3-1.6,5.2-2.5,8.5-2.5l0.4,0c0.2,0,0.5,0,0.7,0
					c-0.6-0.5-1.3-1-1.9-1.6c-1.6-1.5-2.8-3-3.6-4.6c-1-2.1-1.5-4.2-1.5-6.3c0.1-1.2,0.3-2.4,0.8-3.5c0.5-1.1,1.2-2.2,2-3
					c2.3-2.3,5.5-3.5,9-3.5c1.1,0,2.2,0.1,3.2,0.4c3.8,0.8,6.9,2.6,9.5,4.1c-0.3-0.6-0.6-1.2-0.9-1.8c-0.8-2-1.2-4.2-1-6.4
					c0.2-2.5,1-4.8,2.4-6.6c0.9-1.1,2-2,3.2-2.5c1.1-0.5,2.4-0.8,3.8-0.9c0.2,0,0.3,0,0.5,0c2.4,0,4.6,0.6,6.3,1.3
					c3.7,1.3,7.3,3.4,10.9,6.5c3.4,2.9,6.2,6,8,8.1c4.2,4.8,8,9.9,11.5,15.1c0.1,0.2,0.3,0.4,0.4,0.6c0-0.1-0.1-0.3-0.1-0.4
					c-0.3-1.7-0.7-3.5-0.9-5.5c-0.1-1.7-0.1-3.3,0.1-4.7c0.3-1.9,0.8-3.6,1.7-5c0.9-1.5,2.3-2.9,4-4c1.7-1.1,3.5-1.8,5.4-2.1
					c0.7-0.1,1.5-0.2,2.2-0.2c1.5,0,2.9,0.3,4.2,0.9c0.5,0.3,1.1,0.6,1.5,0.9l0.4,0.3c0.3,0.3,0.7,0.6,1,1c0.7,0.8,1.3,1.8,1.7,2.9
					c0.7,1.7,1,3.3,1.2,4.8l0.2,0.9c0.2,1.1,0.4,2.2,0.6,3.3l2.7,14c0,0,1.7,9.1,2.3,12.3l0,0.2c0.8,4.1,1.6,8.4,2.1,12.8
					c0.6,5.4,0.6,9.9-0.1,14.1c-0.4,2.5-1,4.9-1.9,7.2c-1.1,2.7-2.2,4.8-3.5,6.7c-2.6,4-6.2,7.4-10.7,10.3
					c-4.1,2.6-8.8,4.4-13.5,5.1C259.2,480.5,257.5,480.6,256,480.6z M202.3,439.9c-1.3,0-2.5,0.2-3.6,0.4c-1.4,0.4-3.4,1.2-4.7,2.9
					c-1.1,1.3-2,3.5-1.4,5.6c0.5,1.9,2.4,3.6,4.9,4.7c1.6,0.7,3.5,1.1,5.4,1.5c1.2,0.3,2.4,0.5,3.6,0.9c3.1,0.8,6.5,2.1,10.2,3.8
					c3.4,1.6,6.8,3.5,10.3,5.4c3.3,1.8,6.6,3.7,10.1,5.4c4.2,2,7.7,3.3,11.2,4.1c2,0.5,4,0.8,5.9,0.9c0.5,0,1.1,0.1,1.6,0.1
					c1.3,0,2.7-0.1,4.4-0.3c4-0.7,8-2.2,11.5-4.4c3.8-2.5,6.9-5.5,9.2-8.9c2.4-3.5,3.9-7.4,4.6-11.8c0.6-3.8,0.6-7.9,0.1-12.8
					c-0.4-4.1-1.2-8.2-1.9-12.2l-2.3-12.8l-0.7-3.7c-0.5-2.7-1-5.4-1.4-8l-1.2-6.5c-0.3-1.5-0.5-2.9-0.9-4c-0.5-1.3-1.2-2.2-2.2-2.7
					c-0.7-0.3-1.5-0.5-2.5-0.5c-0.4,0-0.8,0-1.2,0.1c-2.7,0.4-5.3,2-6.5,3.9c-0.6,0.9-1,2-1.2,3.4c-0.2,1.1-0.2,2.4-0.2,3.8
					c0.1,1.7,0.4,3.4,0.7,5.1c0.1,0.8,0.3,1.7,0.4,2.5c0.3,2,0.4,4.1,0.4,6.2c0,0.9-0.1,1.8-0.2,2.7c-0.2,1.5-0.4,2.9-0.7,4.2
					c-0.6,2.8-1.6,5.3-2.8,7.8c-1.5,2.9-2,2.9-2.4,2.9c-0.2,0-0.4-0.1-0.5-0.1c-0.8-0.5-0.5-1.2,0.1-2.7c0.1-0.3,0.3-0.7,0.5-1.1
					c0.5-1.4,1.5-3.9,2.1-7.3c0.3-1.8,0.5-3.6,0.5-5.3c-1.3-1.9-2.9-4.1-4.8-6.6c-3.9-5.2-7.7-9.9-11.7-14.3
					c-1.9-2.1-4.5-4.9-7.6-7.4c-3.2-2.6-6.3-4.4-9.4-5.5c-1.9-0.7-3.4-1-4.6-1c-0.1,0-0.2,0-0.3,0c-1.4,0-2.5,0.5-3.2,1.4
					c-0.8,0.9-1.3,2.3-1.4,3.8c-0.1,1.4,0.1,2.9,0.6,4.2c0.9,2.6,3,4.3,5.6,6.4c2.6,1.9,4.9,4.1,6.7,6.2c1.7,2,3.1,4.1,4.3,6.2
					c0.6,1.1,1.1,2.1,1.5,3.1c0.1,0.1,0.2,0.2,0.3,0.3c2.9,3.6,2.9,4.3,2.1,4.9c-0.2,0.2-0.5,0.3-0.7,0.3c-0.5,0-0.9-0.3-2.3-1.5
					c-0.4-0.4-1-0.9-1.6-1.5l-0.8-0.8c-0.8-0.7-1.7-1.6-2.7-2.5c-1.3-1.2-2.9-2.5-4.8-4.1c-4.3-3.5-8.9-6.5-13.5-9.1
					c-2.8-1.5-5.5-3-8.3-3.5c-0.8-0.2-1.5-0.2-2.2-0.2c-0.7,0-1.3,0.1-1.9,0.2c-1.4,0.3-2.6,1-3.4,1.8c-0.8,0.8-1.3,1.9-1.4,3.1
					c-0.1,1.2,0.3,2.5,0.9,3.8c1.3,2.6,3.8,4.5,6,6.2l7.2,5.3c1.4,1,2.7,2,3.9,3c0.8,0.6,1.5,1.3,2.3,2c1,0.9,2,1.8,3,2.8
					c0.6,0.6,1.2,1.3,1.7,1.9c1.3,1.5,2.3,3,3,4.1c0.8,1.3,1.3,2.3,1.5,3c0.3,0.7,0.7,1.8-0.2,2.3c-0.2,0.1-0.4,0.1-0.5,0.1
					c-0.6,0-1-0.4-1.6-1.2c-0.4-0.6-1.1-1.4-1.9-2.4c-0.8-0.9-1.8-2.1-3.2-3.4c-1.4-1.4-3-2.8-4.7-4.1c-1.4-1.1-3.1-2.3-4.8-3.5
					c-0.1,0-0.6-0.3-0.6-0.3c-1.8-0.8-3.6-1.4-5.2-1.8c-1.7-0.4-3.4-0.6-5.1-0.6c-0.3,0-0.6,0-1,0c-1.6,0.1-3.9,0.5-5.7,1.8
					c-1.7,1.2-2.6,3-2.5,4.6c0.1,1.8,1.1,3.7,2.7,5.3c1.6,1.6,3.8,2.7,5.6,3.7c2.3,1.1,4.3,2.2,6.1,3.3c1.8,1.1,3.5,2.2,5.1,3.3
					c1.3,1,2.6,2,3.7,2.9c0.4,0.4,0.9,0.7,1.2,1.1c0,0,0,0,0.1,0.1c0.6,0.5,1.2,1.1,1.7,1.6c2.2,2.3,2.7,3.1,2,3.9
					c-0.2,0.2-0.5,0.4-0.8,0.4c-0.5,0-1.2-0.3-3.3-1.8l-0.9-0.6c-1.3-0.9-3-2-4.9-3.3c-1.1-0.2-2.1-0.4-3.1-0.5
					C203.3,439.9,202.7,439.9,202.3,439.9z"/>
				<path d="M223.4,373.9c2.1,0,4.1,0.6,6,1.2c4.1,1.4,7.6,3.8,10.6,6.3c3,2.5,5.6,5.3,7.9,8c4.6,5.4,8.4,10.5,11.4,15
					c1.1,1.7,2.1,3.2,3,4.7c-0.1-0.9-0.2-1.9-0.4-2.9c-0.4-2.4-1.1-4.9-1.3-7.8c-0.1-1.4-0.1-2.9,0.1-4.5c0.2-1.6,0.7-3.2,1.6-4.7
					c0.9-1.5,2.2-2.7,3.7-3.6c1.5-0.9,3.2-1.6,5-2c0.6-0.1,1.3-0.2,2-0.2c1.3,0,2.5,0.2,3.8,0.8c0.5,0.2,0.9,0.5,1.4,0.8
					c0.4,0.3,0.8,0.7,1.2,1.1c0.7,0.8,1.2,1.7,1.6,2.7c0.7,1.9,1,3.8,1.4,5.6c0.4,1.8,0.7,3.7,1.1,5.6c0.7,3.8,1.5,7.7,2.2,11.7
					c0.8,4,1.5,8.1,2.3,12.3c0.8,4.2,1.6,8.5,2.1,13c0.5,4.5,0.6,9.2-0.1,13.9c-0.4,2.4-1,4.7-1.8,7c-0.9,2.3-2,4.5-3.4,6.5
					c-2.7,4.1-6.4,7.5-10.4,10c-4,2.6-8.6,4.2-13.1,5c-1.6,0.2-3.3,0.3-4.9,0.3c-0.7,0-1.3,0-2-0.1c-2.3-0.2-4.5-0.5-6.6-1.1
					c-4.3-1.1-8.3-2.7-12-4.5c-7.4-3.7-13.9-7.9-20.3-11c-3.2-1.6-6.4-2.9-9.5-3.8c-3.1-0.9-6.4-1.4-9.4-2.7
					c-1.5-0.7-2.9-1.6-4.1-2.7c-1.1-1.1-2-2.5-2.4-4.1c-0.4-1.5-0.3-3.1,0.1-4.5c0.4-1.4,1.1-2.6,2-3.6c0.9-1,1.9-1.8,3-2.4
					c1.1-0.6,2.2-0.9,3.3-1.2c1.2-0.3,2.3-0.4,3.3-0.4c0.9,0,1.8,0.1,2.6,0.2c0.1,0,0.3,0,0.4,0.1c-1-0.6-2.1-1.2-3.2-1.8
					c-1.9-1-3.8-1.9-6-2.9c-2.2-1-4.6-2.3-6.7-4.2c-1.1-1-2-2.2-2.7-3.5c-0.7-1.4-1.2-2.9-1.3-4.6c-0.1-1.7,0.4-3.4,1.2-4.7
					c0.8-1.4,1.9-2.5,3.1-3.4c2.5-1.7,5.4-2.3,7.9-2.4c0.1,0,0.3,0,0.4,0c1.5,0,3,0.2,4.3,0.4c-0.3-0.2-0.6-0.4-0.9-0.6
					c-1.3-0.9-2.7-1.9-3.9-3.1c-1.3-1.2-2.5-2.6-3.4-4.4c-0.9-1.7-1.4-3.7-1.4-5.8c0-1,0.3-2.1,0.7-3.1c0.4-1,1.1-2,1.8-2.7
					c2.3-2.3,5.4-3.2,8.3-3.2c1,0,2,0.1,3,0.3c3.7,0.8,6.7,2.6,9.4,4.2c5.5,3.3,10.1,6.8,13.6,10c0.2,0.2,0.4,0.4,0.6,0.6
					c-0.1-0.2-0.3-0.3-0.4-0.5c-0.9-0.9-1.9-1.9-2.9-2.8c-1.1-0.9-2.2-1.8-3.5-2.7c-1.3-0.9-2.6-1.9-3.9-3.2
					c-1.3-1.3-2.5-2.9-3.2-4.7c-0.7-1.8-1.1-3.9-0.9-5.9c0.1-2.1,0.8-4.2,2.2-6.1c0.7-0.9,1.7-1.7,2.8-2.2c1.1-0.5,2.3-0.8,3.4-0.8
					C223,373.9,223.2,373.9,223.4,373.9L223.4,373.9z M238.8,414c-0.2,0-0.7-0.4-1.6-1.3c-0.4-0.4-0.9-0.9-1.5-1.4
					c-0.3-0.2-0.6-0.5-0.9-0.8c-0.8-0.7-1.7-1.6-2.7-2.5c-1.4-1.3-3-2.6-4.9-4.1c-3.7-2.9-8.3-6.2-13.7-9.2c-2.7-1.5-5.6-3-8.6-3.6
					c-0.8-0.2-1.6-0.2-2.4-0.2c-0.7,0-1.4,0.1-2.2,0.2c-1.5,0.3-2.9,1-3.9,2.1c-1,1-1.6,2.3-1.6,3.8c-0.1,1.4,0.3,2.9,1,4.3
					c1.3,2.7,3.8,4.7,6.3,6.6c2.5,1.9,4.9,3.6,7.2,5.3c1.3,1,2.6,2,3.8,3c0.8,0.7,1.6,1.3,2.3,2c1.1,0.9,2,1.9,2.9,2.8
					c0.6,0.6,1.2,1.3,1.7,1.9c1.3,1.5,2.2,2.8,2.9,4c0.7,1.2,1.2,2.1,1.4,2.8c0.3,0.7,0.4,1,0.3,1.1c0,0,0,0,0,0
					c-0.1,0-0.4-0.3-0.8-0.8c-0.4-0.6-1.1-1.4-1.9-2.4c-0.9-1-1.9-2.2-3.2-3.5c-1.3-1.3-2.9-2.7-4.8-4.2c-1.5-1.2-3.1-2.4-4.9-3.6
					c-0.2-0.1-0.5-0.2-0.7-0.3c-1.6-0.7-3.4-1.4-5.4-1.9c-1.7-0.4-3.4-0.7-5.3-0.7c-0.3,0-0.7,0-1,0c-2.2,0.1-4.4,0.7-6.2,2
					c-1.8,1.3-3.1,3.3-2.9,5.5c0.1,2.2,1.4,4.4,3,6c1.7,1.6,3.8,2.8,5.9,3.9c2.1,1.1,4.2,2.1,6,3.3c1.9,1.1,3.5,2.2,5,3.3
					c1.4,1,2.6,2,3.7,2.9c0.5,0.4,0.9,0.8,1.3,1.1c0,0,0,0,0,0c0.6,0.6,1.2,1.1,1.7,1.6c1.4,1.5,2.1,2.4,2,2.5c0,0,0,0-0.1,0
					c-0.3,0-1.2-0.6-2.7-1.6c-1.5-1-3.5-2.4-6-4h0c-1-0.2-2.2-0.4-3.4-0.6c-0.5,0-1.1-0.1-1.6-0.1c-1.2,0-2.5,0.1-3.8,0.5
					c-1.9,0.5-3.9,1.5-5.3,3.2c-1.4,1.7-2.2,4.2-1.5,6.5c0.7,2.3,2.8,4.2,5.4,5.3c2.7,1.1,5.8,1.5,9.2,2.4c3.3,0.9,6.7,2.2,10,3.8
					c6.7,3.1,13.2,7.3,20.4,10.8c3.6,1.7,7.4,3.2,11.4,4.2c2,0.5,4,0.8,6.1,0.9c0.6,0,1.1,0.1,1.7,0.1c1.5,0,3-0.1,4.6-0.3
					c4.1-0.7,8.3-2.2,11.9-4.6c3.7-2.4,7-5.4,9.5-9.2c2.5-3.7,4.1-7.9,4.8-12.2c0.7-4.3,0.6-8.7,0.1-13.1c-0.4-4.3-1.2-8.6-2-12.8
					c-0.8-4.2-1.5-8.3-2.2-12.3c-0.7-4-1.4-7.9-2.1-11.7c-0.3-1.9-0.7-3.8-1-5.6c-0.3-1.9-0.6-3.6-1.2-5.1c-0.6-1.5-1.5-2.6-2.7-3.3
					c-0.9-0.4-1.9-0.6-2.9-0.6c-0.5,0-0.9,0-1.4,0.1c-2.9,0.5-5.8,2.2-7.2,4.4c-0.7,1.1-1.1,2.5-1.4,3.8c-0.2,1.3-0.2,2.7-0.2,4
					c0.2,2.7,0.7,5.2,1.1,7.7c0.3,2.1,0.4,4.2,0.3,6.1c0,0.9-0.1,1.8-0.2,2.6c-0.2,1.5-0.4,2.8-0.7,4.1c-0.8,3.4-1.9,5.9-2.7,7.5
					c-0.8,1.6-1.4,2.3-1.5,2.3c0,0,0,0,0,0c-0.1-0.1,0.3-0.9,0.9-2.6c0.6-1.7,1.5-4.2,2.1-7.5c0.3-1.7,0.5-3.7,0.5-5.8
					c-1.4-2-3-4.3-5-6.9c-3.2-4.2-7.1-9.2-11.7-14.3c-2.3-2.6-4.9-5.2-7.7-7.5c-2.9-2.3-6.1-4.4-9.7-5.7c-1.7-0.6-3.4-1-5-1
					c-0.1,0-0.2,0-0.3,0c-1.7,0.1-3,0.6-4,1.8c-0.9,1.2-1.5,2.8-1.6,4.3c-0.1,1.6,0.1,3.2,0.6,4.7c1,2.9,3.5,4.9,5.9,6.8
					c2.5,1.9,4.8,4,6.5,6.1c1.8,2.1,3.1,4.2,4.2,6.1c0.6,1.1,1.1,2.2,1.5,3.2c0.1,0.1,0.2,0.3,0.3,0.4
					C238.3,412.6,239,413.8,238.8,414C238.9,414,238.9,414,238.8,414L238.8,414z M223.4,371.9L223.4,371.9c-0.2,0-0.4,0-0.5,0
					c-1.5,0.1-3,0.4-4.2,1c-1.3,0.6-2.5,1.6-3.5,2.8c-1.5,2-2.5,4.4-2.7,7.2c-0.1,2,0.1,4,0.7,5.9c-2.1-1.1-4.4-2.2-7.1-2.7
					c-1.1-0.2-2.3-0.4-3.4-0.4c-3.8,0-7.2,1.3-9.7,3.8c-1,1-1.8,2.1-2.3,3.4c-0.5,1.2-0.8,2.5-0.9,3.8c-0.1,2.3,0.4,4.6,1.6,6.8
					c0.9,1.7,2.1,3.3,3.8,4.9c-2.9,0.3-5.4,1.2-7.5,2.6c-1.6,1.1-2.8,2.4-3.7,4c-1,1.8-1.5,3.8-1.5,5.8c0.1,1.8,0.6,3.6,1.5,5.4
					c0.8,1.5,1.9,2.9,3.1,4c2.3,2.1,4.8,3.4,7.2,4.6l0.5,0.2c0.7,0.3,1.4,0.7,2.1,1c-1.1,0.3-2.1,0.7-3.1,1.2
					c-1.3,0.7-2.6,1.7-3.6,2.9c-1.1,1.3-1.9,2.8-2.4,4.3c-0.6,1.8-0.6,3.8-0.1,5.6c0.5,1.8,1.5,3.5,3,5c1.3,1.3,2.9,2.3,4.6,3.1
					c2.1,1,4.3,1.5,6.5,2c1.1,0.3,2.2,0.5,3.2,0.8c2.8,0.8,5.8,2,9.2,3.7c3.1,1.5,6.3,3.3,9.6,5.2c3.4,2,6.9,4,10.7,5.8
					c4.5,2.2,8.5,3.7,12.4,4.7c2.4,0.6,4.7,1,7,1.1c0.7,0.1,1.4,0.1,2.1,0.1c1.6,0,3.2-0.1,5.1-0.4c0,0,0,0,0.1,0
					c4.9-0.8,9.7-2.6,13.9-5.3c4.6-2.9,8.3-6.5,11-10.6c1.3-1.9,2.5-4.1,3.6-6.9c0.9-2.4,1.6-4.9,2-7.4c0.7-4.3,0.7-9,0.1-14.4
					c-0.5-4.5-1.3-8.8-2.1-12.9l0-0.2c-0.6-3.3-1.2-6.5-1.8-9.7l-0.5-2.6l-1-5.3l-1.2-6.4l-0.4-2.3c-0.2-1.1-0.4-2.2-0.6-3.3
					c-0.1-0.3-0.1-0.6-0.2-0.9c-0.3-1.6-0.6-3.3-1.3-5c-0.5-1.2-1.1-2.3-1.9-3.2c-0.4-0.4-0.8-0.8-1.1-1.1c-0.1-0.1-0.2-0.2-0.3-0.2
					c0,0-0.1-0.1-0.1-0.1c-0.5-0.4-1.1-0.7-1.7-1c-1.4-0.7-3-1-4.7-1c-0.8,0-1.6,0.1-2.3,0.2c-2,0.3-3.9,1.1-5.7,2.2
					c-1.9,1.2-3.4,2.7-4.4,4.3c-0.9,1.6-1.5,3.3-1.8,5.4c-0.2,1.5-0.2,3.2-0.1,5c0,0.5,0.1,1,0.2,1.4c-2.9-4.1-6-8.1-9.3-11.9
					c-1.8-2.1-4.7-5.3-8.2-8.2c-3.7-3.1-7.4-5.3-11.2-6.6C228.3,372.6,225.9,371.9,223.4,371.9L223.4,371.9z M238,409
					c-0.4-1-0.9-2-1.5-3c-1.2-2.2-2.7-4.4-4.4-6.4c-1.8-2.2-4.2-4.4-6.8-6.4c-2.5-1.9-4.5-3.6-5.3-5.9c-0.5-1.3-0.7-2.6-0.5-3.8
					c0.1-1.3,0.5-2.5,1.2-3.3c0.4-0.4,1-1,2.5-1.1c0.1,0,0.2,0,0.2,0c1.2,0,2.5,0.3,4.3,0.9c3,1.1,6,2.8,9.1,5.4
					c3,2.5,5.6,5.2,7.5,7.3c4,4.4,7.8,9,11.6,14.2c1.8,2.4,3.4,4.6,4.6,6.3c0,1.6-0.2,3.2-0.5,4.9c-0.6,3.3-1.5,5.8-2,7.2
					c-0.2,0.4-0.3,0.8-0.4,1.1c-0.6,1.5-1.2,3,0.4,3.9c0.3,0.2,0.7,0.3,1,0.3c1.2,0,1.8-0.7,3.3-3.4c1.3-2.6,2.3-5.2,2.9-8
					c0.3-1.4,0.6-2.8,0.7-4.3c0.1-1,0.2-1.9,0.2-2.8c0.1-2.1-0.1-4.3-0.4-6.4c-0.1-0.8-0.3-1.7-0.4-2.5c-0.3-1.6-0.6-3.3-0.7-5
					c-0.1-1.3,0-2.5,0.1-3.6c0.2-1.2,0.6-2.3,1.1-3c1.1-1.7,3.4-3.1,5.8-3.5c0.4-0.1,0.7-0.1,1.1-0.1c0.8,0,1.5,0.1,2,0.4
					c0.8,0.4,1.3,1.1,1.7,2.1c0.4,1.1,0.7,2.5,0.9,3.9c0.1,0.3,0.1,0.6,0.2,0.9l0.3,1.9c0.2,1.2,0.4,2.4,0.7,3.7
					c0.5,2.6,0.9,5.2,1.4,7.9l0.7,3.8l0.1,0.6c0.7,3.8,1.4,7.7,2.1,11.7l0.1,0.5c0.7,4,1.5,8.1,1.9,12.1c0.5,4.8,0.5,8.9-0.1,12.5
					c-0.6,4.2-2.1,8.1-4.4,11.4c-2.2,3.3-5.2,6.2-8.9,8.6c-3.4,2.1-7.2,3.6-11.1,4.3c-1.7,0.2-3,0.3-4.3,0.3c-0.5,0-1,0-1.5-0.1
					c-1.9-0.1-3.8-0.4-5.8-0.9c-3.4-0.8-6.9-2.1-11-4.1c-3.5-1.7-6.8-3.5-10.1-5.3c-3.5-2-6.9-3.8-10.4-5.4c-3.7-1.8-7.1-3-10.3-3.9
					c-1.3-0.3-2.5-0.6-3.7-0.9c-1.9-0.4-3.7-0.8-5.3-1.5c-2.2-0.9-3.9-2.4-4.3-4c-0.5-1.7,0.3-3.6,1.2-4.7c1.2-1.5,3-2.2,4.2-2.6
					c1-0.3,2.1-0.4,3.3-0.4c0.5,0,0.9,0,1.4,0.1c0.9,0.1,1.8,0.2,2.8,0.5c1.9,1.2,3.5,2.3,4.8,3.2l0.9,0.6c2.2,1.5,2.9,2,3.8,2
					c0.6,0,1.2-0.2,1.6-0.7c1.5-1.7-0.4-3.6-2-5.3c-0.6-0.6-1.1-1.1-1.7-1.7c0,0-0.1-0.1-0.1-0.1c-0.4-0.3-0.8-0.7-1.2-1.1
					c-1.1-1-2.4-2-3.8-3c-1.6-1.2-3.3-2.3-5.2-3.4c-1.8-1.1-3.9-2.2-6.1-3.3c-1.8-0.9-3.8-2-5.4-3.5c-1.4-1.4-2.3-3.1-2.4-4.6
					c0,0,0,0,0-0.1c-0.1-1.3,0.7-2.8,2.1-3.7c1.6-1.2,3.7-1.5,5.2-1.6c0.3,0,0.6,0,0.9,0c1.5,0,3.2,0.2,4.8,0.6
					c1.6,0.4,3.2,1,5.1,1.8l0.3,0.1c0.1,0,0.1,0.1,0.2,0.1c1.7,1.2,3.3,2.4,4.7,3.5c1.7,1.3,3.2,2.7,4.6,4c1.3,1.2,2.3,2.3,3.1,3.3
					c0.8,0.9,1.4,1.8,1.8,2.3c0.5,0.7,1.2,1.6,2.4,1.6c0.3,0,0.6-0.1,0.9-0.2c0.1,0,0.1-0.1,0.2-0.1c1.6-0.9,0.9-2.8,0.6-3.5
					c-0.3-0.8-0.8-1.8-1.6-3.1c0,0,0,0,0-0.1c-0.7-1.1-1.7-2.6-3.1-4.2c-0.6-0.7-1.2-1.3-1.8-1.9c-1-1-2-2-3-2.9
					c-0.8-0.7-1.6-1.4-2.4-2c-1.2-1-2.5-2-3.9-3l-2.8-2.1c-1.4-1-2.9-2.1-4.4-3.2c-2.1-1.6-4.5-3.5-5.7-5.9
					c-0.5-1.1-0.8-2.3-0.8-3.3c0.1-1,0.4-1.8,1.1-2.5c0.7-0.7,1.7-1.3,2.9-1.5c0.5-0.1,1.1-0.2,1.7-0.2c0.6,0,1.3,0.1,2,0.2
					c2.7,0.5,5.3,1.9,8,3.4c4.6,2.6,9.1,5.6,13.4,9c1.9,1.6,3.5,2.9,4.8,4c1.1,0.9,2,1.8,2.7,2.4l0.4,0.4c0.2,0.2,0.3,0.3,0.5,0.5
					c0.6,0.5,1.1,1,1.5,1.4c1.4,1.3,2,1.8,3,1.8c0.5,0,0.9-0.2,1.3-0.5c1.8-1.5,0.1-3.6-2-6.3C238.1,409.1,238,409,238,409L238,409z
					"/>
			</g>
		</g>
	</g>
</g>
<g id="body_1_" class="st6">
	<g id="body" class="st7">
		<g>
			<g>
				<g>
					<path class="st10" d="M534.7,173.9v25.6c-2.4,2.1-14.1,5.9-33.4,5.9c-3.3,0-6.4-0.1-9.3-0.3l0,0c-13.8-0.9-22.2-3.8-24.1-5.6
						v-25.6c7.8,3,18.4,4.1,25.8,4.5c3.4,0.2,6.1,0.2,7.6,0.2C506.1,178.5,523.5,178.2,534.7,173.9z"/>
				</g>
				<g>
					<path class="st10" d="M618.6,206.3c-0.3,1.6-7.3,7.4-33.6,12.3c-9.8,1.8-20.9,3.3-32.8,4.4l0,0c-15.9,1.4-33.4,2.2-51.4,2.2
						c-31.7,0-61.6-2.3-84.3-6.6c-26.4-4.9-33.3-10.7-33.6-12.2c0.3-1.2,4.8-5.5,21.7-9.7c13.9-3.5,32.2-6.1,53.4-7.7v11.2
						c0,11.6,23.3,14.4,36.2,15c3.2,0.2,5.8,0.2,7.2,0.2c7.3,0,43.4-0.7,43.4-15.2v-11.1c20.9,1.6,38.9,4.2,52.5,7.7
						C613.9,201,618.3,205.2,618.6,206.3z"/>
				</g>
				<g>
					<path class="st10" d="M501.3,168.6c17.4,0,28.6-3,32.4-5.2c-3.8-2.2-15-5.2-32.4-5.2s-28.6,3-32.4,5.2
						C472.7,165.5,483.9,168.6,501.3,168.6z"/>
				</g>
				<g>
					<path class="st12" d="M676.9,205.6c0,8-13,20-49.6,29.9c-28.6,7.7-65.2,12.5-104.8,13.8c-0.1,0-0.2,0-0.2,0
						c-7.4,0.3-14.8,0.4-22.3,0.4c-20.9,0-41.3-1-60.4-2.8c-0.3,0-0.7-0.1-1-0.1c-0.1,0-0.3,0-0.5,0c-0.4,0-0.8-0.1-1.1-0.1
						c-0.2,0-0.3,0-0.5,0c-23.7-2.4-45.5-6.2-63.9-11.1c-36.3-9.8-49.4-21.7-49.6-29.7v-0.2l0,0c0-16.9,51.2-37.4,134.8-42.7h0.1
						c0,0.2,0,0.3,0,0.5V179c-22.9,1.6-42.6,4.5-57.4,8.4c-19,5-27.8,11-27.8,19c0,6,4.1,14.8,40.1,21.8c23.5,4.6,54.7,7.1,87.9,7.1
						s64.4-2.5,87.9-7.1c35.9-7,40-15.8,40-21.8c0-7.9-8.7-13.9-27.4-18.9c-14.5-3.8-33.9-6.7-56.5-8.4v-15.7c0-0.1,0-0.2,0-0.3
						c0,0,0,0,0.1,0c36,2.5,68.6,8,92.7,15.7C662.2,186.6,676.9,196.7,676.9,205.6z"/>
				</g>
				<g>
					<path class="st12" d="M676.9,224.1v156.4c0,5.3-5.7,12.3-20,19.3c-7.4,3.6-17.1,7.2-29.6,10.6c-33.9,9.1-79.2,14.2-127.3,14.2
						s-93.4-5-127.3-14.2c-5.5-1.5-10.4-3-14.9-4.6c-25.3-8.8-34.7-18.5-34.7-25.3V224.1c26.9,23.2,103.8,35.6,176.9,35.6
						c2.3,0,4.6,0,6.9,0c40.1-0.4,80.7-4.5,113.3-12C645.3,241.8,665.6,233.9,676.9,224.1z"/>
				</g>
				<g>
					<path class="st13" d="M676.9,398.9v398.9c0,8-13,20-49.6,29.9c-2.8,0.8-5.8,1.5-8.8,2.2l0,0c-32.8,7.8-74.4,12-118.6,12
						c-1.5,0-3,0-4.5,0l0,0c-46.5-0.3-89.9-5.3-122.8-14.2c-36.6-9.9-49.6-21.9-49.6-29.9V398.9c7.8,6.7,19.8,12.5,34.7,17.4
						c36.5,11.9,90.3,18.2,142.3,18.2c59.5,0,121.4-8.2,157-23.7C665.1,407.2,671.9,403.3,676.9,398.9z"/>
				</g>
				<path d="M533.4,152.4c-11.3-3.9-27.5-4.2-32.2-4.2c-4.6,0-20.6,0.3-31.8,4.1c-42.2,1.9-80.9,7.8-109.1,16.7
					c-31,9.7-47.3,22.4-47.3,36.7c0,0.1,0,0.1,0,0.2v592c0,35.1,96.3,54.1,186.9,54.1s186.9-18.9,186.9-54.1V205.6l0,0
					C686.9,174.1,610,156.2,533.4,152.4z M467.9,173.9c11.3,4.4,28.7,4.7,33.4,4.7c4.8,0,22.2-0.3,33.4-4.7v25.6
					c-2.4,2.2-14.1,5.9-33.4,5.9c-19.4,0-31.1-3.8-33.4-5.9L467.9,173.9L467.9,173.9z M501.3,215.4c7.3,0,43.4-0.7,43.4-15.2v-11.1
					c20.9,1.6,38.9,4.2,52.5,7.7c16.6,4.2,21.1,8.5,21.3,9.6c-0.3,1.6-7.3,7.4-33.6,12.3c-22.7,4.2-52.7,6.6-84.3,6.6
					c-31.7,0-61.6-2.3-84.3-6.6c-26.4-4.9-33.3-10.7-33.6-12.2c0.3-1.2,4.8-5.5,21.7-9.7c13.9-3.5,32.2-6.1,53.4-7.7v11.2
					C457.9,214.6,494,215.4,501.3,215.4z M533.7,163.4c-3.8,2.2-15,5.2-32.4,5.2s-28.6-3-32.4-5.2c3.8-2.2,15-5.2,32.4-5.2
					C518.6,158.2,529.8,161.2,533.7,163.4z M457.9,162.9c0,0.1,0,0.3,0,0.4V179c-22.9,1.6-42.6,4.5-57.4,8.4c-19,5-27.8,11-27.8,19
					c0,6,4.2,14.8,40.1,21.8c23.5,4.6,54.7,7.1,87.9,7.1c33.1,0,64.4-2.5,87.9-7.1c35.9-7,40.1-15.8,40.1-21.8
					c0-7.9-8.7-13.9-27.4-18.9c-14.5-3.8-33.9-6.7-56.5-8.4v-15.7c0-0.1,0-0.2,0-0.3c36,2.5,68.6,8,92.8,15.7
					c24.7,7.9,39.4,17.9,39.4,26.9c0,8-13,20-49.6,29.9c-34,9.2-79.2,14.2-127.3,14.2c-48.2,0-93.4-5-127.3-14.2
					c-36.3-9.8-49.4-21.7-49.6-29.7v-0.2l0,0C323.1,188.7,374.3,168.3,457.9,162.9z M627.4,827.6c-34,9.2-79.2,14.2-127.3,14.2
					c-48.2,0-93.4-5-127.3-14.2c-36.6-9.9-49.6-21.9-49.6-29.9V398.9c26.9,23.2,103.8,35.6,176.9,35.6s150-12.4,176.9-35.6v398.9
					C676.9,805.7,663.9,817.8,627.4,827.6z M627.4,410.3c-34,9.2-79.2,14.2-127.3,14.2c-48.2,0-93.4-5-127.3-14.2
					c-36.6-9.9-49.6-21.9-49.6-29.9V224.1c26.9,23.2,103.8,35.6,176.9,35.6c73.2,0,150-12.4,176.9-35.6v156.4
					C676.9,388.4,663.9,400.5,627.4,410.3z"/>
			</g>
			<path class="st14" d="M495.5,841.8c-46.5-0.3-89.9-5.3-122.8-14.2c-36.6-9.9-49.6-21.9-49.6-29.9V398.9
				c7.8,6.7,19.8,12.5,34.7,17.4l-1,321.1c-0.1,45,30.7,84.2,74.5,94.7C448.6,836.2,469.7,839.7,495.5,841.8z"/>
			<path class="st14" d="M323.1,380.5V224.1c26.9,23.2,103.8,35.6,176.9,35.6c2.3,0,4.6,0,6.9,0c-26.6,4.2-59.2,2.7-87.2-0.4
				c-32.9-3.6-61.6,22-61.7,55.1l-0.3,91.4C332.5,396.9,323.1,387.2,323.1,380.5z"/>
			<path class="st15" d="M676.9,224.1v156.4c0,5.3-5.7,12.3-20,19.3V284.4c0-28.8-36.8-36.8-36.8-36.8
				C645.3,241.8,665.6,233.9,676.9,224.1z"/>
			<path class="st15" d="M657,410.8c8.2-3.6,15-7.5,20-11.9v398.9c0,8-13,20-49.6,29.9c-2.8,0.8-5.8,1.5-8.8,2.2
				c0.6-0.3,1.3-0.7,1.9-1c22.7-12.4,36.5-36.6,36.5-62.5L657,410.8L657,410.8z"/>
			<path class="st15" d="M676.9,205.6c0,8-13,20-49.6,29.9c-28.6,7.7-65.2,12.5-104.8,13.8c5.6-0.3,131.9-12,131.9-42.2
				c0-30.5-106.6-43.5-109.7-44c36,2.5,68.6,8,92.7,15.7C662.2,186.6,676.9,196.7,676.9,205.6z"/>
			<path class="st14" d="M436.5,246.6c-23.7-2.4-45.5-6.2-63.9-11.1c-36.3-9.8-49.4-21.7-49.6-29.7v-0.2l0,0
				c0-16.9,51.2-37.4,134.8-42.7c-3.4,0.5-112.9,17-112.9,42.4C344.9,225.1,413.3,244,436.5,246.6z"/>
			<path class="st15" d="M501.3,168.6c17.4,0,28.6-3,32.4-5.2c-3.8-2.2-15-5.2-32.4-5.2s-28.6,3-32.4,5.2
				C472.7,165.5,483.9,168.6,501.3,168.6z"/>
			<path class="st14" d="M552.1,223c-15.9,1.4-33.4,2.2-51.4,2.2c-31.7,0-61.6-2.3-84.3-6.6c-26.4-4.9-33.3-10.7-33.6-12.2
				c0.3-1.2,4.8-5.5,21.7-9.7c13.9-3.5,32.2-6.1,53.4-7.7v11.2c0,11.6,23.3,14.4,36.2,15C506.3,220.4,524.6,223.9,552.1,223z"/>
			<path class="st14" d="M483.1,194.8c0,4.2,2.6,7.9,6.5,9.4l2.4,0.9l0,0c-13.8-0.9-22.2-3.8-24.1-5.6v-25.6
				c7.8,3,18.4,4.1,25.8,4.5l-4.3,0.5c-3.6,0.4-6.3,3.4-6.3,7.1V194.8z"/>
		</g>
	</g>
	<g id="mouth" class="st7">
		<g>
			<g>
				<path d="M503.5,382c2.2-0.1,4.4,0.2,6.4,0.7s3.9,1.2,5.6,2.1s3.1,1.9,4.4,3c1.2,1.1,2.3,2.2,3.1,3.3c0.9,1.1,1.5,2.2,2,3.2
					c0.2,0.5,0.4,1,0.6,1.4c0.1,0.5,0.3,0.9,0.3,1.2c0.2,0.7,0.2,1.4,0.1,1.8c-0.1,0.5-0.2,0.7-0.5,0.9c-0.3,0.1-0.6,0.1-1-0.1
					s-0.8-0.5-1.4-1c-0.3-0.2-0.6-0.4-0.9-0.7c-0.3-0.3-0.6-0.5-1-0.8c-0.7-0.6-1.5-1.2-2.4-1.8c-0.9-0.6-1.9-1.3-3-1.9
					s-2.3-1.2-3.6-1.6c-1.3-0.5-2.7-0.9-4.1-1.1s-2.9-0.4-4.5-0.3c-1.5,0.1-3,0.3-4.4,0.7c-1.4,0.3-2.8,0.9-4,1.4
					c-1.3,0.6-2.4,1.2-3.5,1.9c-1,0.7-2,1.4-2.8,2.1c-0.9,0.7-1.6,1.4-2.2,2c-0.3,0.3-0.6,0.6-0.9,0.9s-0.5,0.5-0.8,0.8
					c-0.5,0.5-0.9,0.8-1.3,1.1c-0.4,0.2-0.7,0.3-1,0.2s-0.4-0.4-0.5-0.8s-0.1-1.1,0-1.8c0.1-0.4,0.1-0.8,0.3-1.3
					c0.1-0.5,0.3-0.9,0.5-1.4c0.4-1,1-2.2,1.7-3.3c0.8-1.2,1.7-2.4,2.9-3.5c1.2-1.1,2.6-2.3,4.2-3.3s3.4-1.9,5.4-2.5
					C499.1,382.5,501.2,382.1,503.5,382z"/>
			</g>
			<g class="st16">
				<path class="st17" d="M504.2,395.2c1.9-0.1,3.4,0.7,4.2,1.6c0.8,0.9,0.9,1.7,0.5,2.1s-1.1,0.4-1.9,0.4s-1.7-0.1-2.7-0.1
					c-0.9,0-1.9,0.2-2.7,0.3c-0.8,0.1-1.5,0.1-1.9-0.3s-0.4-1.2,0.3-2.2C500.9,396.2,502.4,395.2,504.2,395.2z"/>
			</g>
		</g>
	</g>
</g>
<g id="eyes_2_" class="st6">
	<g id="eyes" class="st7">
		<g id="eyes_1_">
			<g>
				<path class="st14" d="M418.4,329.8c0,0-3.5,48.9,33.3,54.2c36.7,5.3,46.4-37.8,46.4-37.8L418.4,329.8z"/>
				<path class="st9" d="M496.4,329.8c0,25.1-16.6,45.6-37,45.6s-37-20.5-37-45.6c0-1.7,0.1-3.4,0.2-5c0.4-4.2,1.2-8.2,2.4-12
					c5.5-16.8,18.8-28.6,34.3-28.6c15,0,27.9,11,33.7,26.8c0.2,0.4,0.3,0.9,0.5,1.4C495.4,317.8,496.4,323.7,496.4,329.8z"/>
				<path d="M459.4,280.2c-22.6,0-41,22.3-41,49.6c0,27.4,18.4,49.6,41,49.6c17.8,0,33-13.9,38.7-33.1c0,0,0,0,0-0.1
					c1.5-5.1,2.3-10.7,2.3-16.4C500.4,302.5,482,280.2,459.4,280.2z M494.1,345.7c-0.1,0.2-0.1,0.4-0.2,0.6s-0.1,0.3-0.1,0.4
					c-0.1,0.3-0.2,0.5-0.3,0.8c-0.1,0.3-0.2,0.7-0.4,1c-0.2,0.7-0.5,1.3-0.8,2s-0.6,1.3-0.9,1.9s-0.6,1.3-0.9,1.9
					c-0.2,0.4-0.4,0.7-0.6,1c-0.1,0.1-0.2,0.3-0.2,0.4c-0.2,0.3-0.3,0.6-0.5,0.9c0,0,0,0.1-0.1,0.1c-0.2,0.4-0.4,0.7-0.7,1.1
					c0,0,0,0.1-0.1,0.1c-0.2,0.4-0.5,0.7-0.7,1.1c-0.2,0.3-0.4,0.5-0.5,0.8c-0.1,0.2-0.3,0.4-0.4,0.5c-0.2,0.3-0.4,0.5-0.6,0.8
					c-1.2,1.5-2.4,2.9-3.8,4.2c-0.1,0.1-0.2,0.2-0.3,0.3c-0.9,0.9-1.8,1.7-2.8,2.4c-0.2,0.2-0.4,0.3-0.7,0.5
					c-0.3,0.2-0.6,0.5-0.9,0.7c-0.2,0.2-0.4,0.3-0.7,0.5c0,0-0.1,0-0.1,0.1c-0.2,0.2-0.5,0.3-0.7,0.5c-0.3,0.2-0.5,0.3-0.8,0.5
					s-0.5,0.3-0.8,0.5s-0.5,0.3-0.8,0.4c-0.2,0.1-0.5,0.2-0.7,0.4c-0.2,0.1-0.4,0.2-0.7,0.3c-0.2,0.1-0.3,0.2-0.5,0.2
					c-0.8,0.4-1.6,0.7-2.4,0.9c-0.2,0.1-0.4,0.1-0.6,0.2s-0.4,0.1-0.6,0.2c-0.4,0.1-0.8,0.2-1.2,0.3c-0.2,0.1-0.4,0.1-0.5,0.1h-0.1
					c-0.2,0-0.4,0.1-0.6,0.1s-0.4,0.1-0.6,0.1s-0.4,0.1-0.6,0.1c-0.6,0.1-1.3,0.2-1.9,0.3c-0.2,0-0.4,0-0.6,0.1
					c-0.2,0-0.5,0-0.7,0.1c-0.4,0-0.8,0-1.2,0.1H460c-0.2,0-0.4,0-0.6,0c-0.3,0-0.6,0-0.8,0c-0.3,0-0.6,0-0.8,0
					c-0.3,0-0.5,0-0.8-0.1c-1.6-0.1-3.3-0.4-4.8-0.8c-0.8-0.2-1.6-0.4-2.3-0.7c-0.3-0.1-0.5-0.2-0.8-0.3c-1.2-0.4-2.5-1-3.6-1.6
					c-0.1,0-0.1,0-0.1-0.1c-0.2-0.1-0.5-0.2-0.7-0.4c-0.2-0.1-0.5-0.3-0.7-0.4s-0.4-0.3-0.7-0.4c-0.3-0.2-0.6-0.3-0.8-0.5
					c-0.2-0.1-0.4-0.3-0.6-0.4c-0.5-0.3-0.9-0.6-1.4-1c-0.2-0.1-0.4-0.3-0.5-0.4c-0.5-0.4-1-0.8-1.5-1.3c-0.2-0.2-0.4-0.3-0.5-0.5
					c-0.2-0.2-0.4-0.4-0.6-0.6c-0.4-0.4-0.8-0.8-1.2-1.2c-0.4-0.4-0.8-0.8-1.2-1.3c-0.1-0.1-0.3-0.3-0.4-0.4
					c-0.2-0.2-0.3-0.4-0.5-0.5c-0.2-0.2-0.3-0.4-0.5-0.6c-0.7-0.8-1.3-1.7-1.9-2.5c-0.4-0.6-0.8-1.1-1.1-1.7l0,0
					c-0.4-0.6-0.7-1.2-1.1-1.7l0,0c-0.3-0.6-0.7-1.2-1-1.8c-0.2-0.3-0.3-0.6-0.5-0.9c-0.2-0.5-0.5-0.9-0.7-1.4
					c-0.1-0.2-0.2-0.5-0.3-0.7c-0.3-0.7-0.6-1.4-0.9-2.2c-0.2-0.5-0.4-1-0.6-1.6c-0.2-0.7-0.4-1.3-0.6-2c-0.1-0.3-0.2-0.7-0.3-1
					c-0.1-0.3-0.2-0.7-0.3-1c-0.1-0.3-0.2-0.7-0.3-1c-0.1-0.3-0.2-0.7-0.2-1c-0.1-0.3-0.1-0.6-0.2-0.9c-0.1-0.4-0.1-0.8-0.2-1.2
					c-0.1-0.4-0.1-0.7-0.2-1.1c-0.1-0.3-0.1-0.6-0.1-1c0-0.1,0-0.1,0-0.2c0-0.3-0.1-0.6-0.1-0.9v-0.1c0-0.3-0.1-0.6-0.1-1v-0.1
					c0-0.3-0.1-0.7-0.1-1c-0.1-0.7-0.1-1.5-0.1-2.2c0-0.4,0-0.7,0-1.1c0-0.3,0-0.5,0-0.8c0-0.4,0-0.8,0-1.2c0-0.4,0-0.8,0-1.2
					c0-0.4,0-0.8,0.1-1.2c0-0.2,0-0.4,0-0.6s0-0.4,0-0.6c0-0.3,0.1-0.5,0.1-0.8c0-0.2,0-0.5,0.1-0.7c0-0.2,0.1-0.5,0.1-0.7
					c0-0.4,0.1-0.8,0.2-1.1c0.1-0.4,0.1-0.7,0.2-1.1s0.1-0.7,0.2-1.1c0.1-0.3,0.1-0.6,0.2-1l0,0c0.1-0.5,0.2-0.9,0.3-1.4
					c0.1-0.3,0.1-0.6,0.2-0.9c0.1-0.4,0.2-0.7,0.3-1.1c0.1-0.3,0.2-0.6,0.2-0.8c0.1-0.3,0.2-0.6,0.2-0.8c0.1-0.2,0.1-0.5,0.2-0.7
					c0.1-0.3,0.2-0.5,0.3-0.8c0.1-0.3,0.2-0.7,0.4-1c0.1-0.3,0.2-0.6,0.3-0.9c0-0.1,0-0.1,0.1-0.2c0-0.1,0.1-0.2,0.1-0.4
					c0.1-0.1,0.1-0.2,0.2-0.4c0.1-0.3,0.3-0.7,0.4-1c0.2-0.4,0.3-0.8,0.5-1.1c0,0,0-0.1,0.1-0.1c0.1-0.3,0.3-0.5,0.4-0.8
					c0.2-0.4,0.4-0.7,0.5-1.1l0,0c0.1-0.2,0.3-0.5,0.4-0.7s0.2-0.5,0.4-0.7c0,0,0,0,0-0.1c0.1-0.1,0.1-0.2,0.2-0.3
					c0.2-0.3,0.3-0.5,0.5-0.8s0.3-0.5,0.5-0.8c0.1-0.1,0.2-0.3,0.3-0.4c0.1-0.1,0.2-0.3,0.3-0.4c0.2-0.3,0.4-0.5,0.6-0.8
					s0.4-0.6,0.6-0.8c0.2-0.3,0.4-0.5,0.6-0.8s0.4-0.5,0.6-0.8s0.4-0.5,0.6-0.7c0.2-0.3,0.4-0.5,0.7-0.7c0.2-0.2,0.4-0.5,0.7-0.7
					c0,0,0,0,0-0.1c0.4-0.5,0.9-0.9,1.3-1.3c0.2-0.2,0.4-0.4,0.7-0.6c0.1,0,0.1-0.1,0.2-0.1c0.2-0.2,0.5-0.4,0.7-0.7
					c0.2-0.2,0.4-0.3,0.5-0.5l0.1-0.1c0.2-0.2,0.5-0.4,0.8-0.6c0.2-0.2,0.5-0.4,0.7-0.5c0.3-0.2,0.5-0.4,0.8-0.6c0,0,0.1,0,0.1-0.1
					c0,0,0,0,0.1,0c0.2-0.1,0.3-0.2,0.5-0.3c0.3-0.2,0.5-0.4,0.8-0.5c0.1-0.1,0.2-0.1,0.2-0.2c0.3-0.2,0.5-0.3,0.8-0.5
					c0.2-0.1,0.5-0.3,0.7-0.4s0.5-0.3,0.7-0.4c0,0,0.1,0,0.1-0.1c0.2-0.1,0.4-0.2,0.5-0.3c0.2-0.1,0.4-0.2,0.5-0.3
					c0.2-0.1,0.4-0.2,0.5-0.2c0.9-0.4,1.8-0.8,2.7-1.1c0.1-0.1,0.3-0.1,0.4-0.1s0.3-0.1,0.4-0.1c0.3-0.1,0.6-0.2,0.8-0.3
					c0.2-0.1,0.4-0.1,0.6-0.2s0.5-0.1,0.7-0.2h0.1c0.2,0,0.4-0.1,0.6-0.1s0.4-0.1,0.6-0.1c0.1,0,0.1,0,0.2,0h0.1
					c0.1,0,0.2-0.1,0.4-0.1c0.1,0,0.1,0,0.2,0s0.2,0,0.3,0c0.2,0,0.4-0.1,0.6-0.1c0.4-0.1,0.9-0.1,1.3-0.1c0.1,0,0.1,0,0.2,0
					c0.2,0,0.3,0,0.5,0c0,0,0,0,0.1,0l0,0c0.2,0,0.5,0,0.7,0c0.1,0,0.2,0,0.4,0c0.3,0,0.5,0,0.8,0c0.2,0,0.5,0,0.7,0
					c0.1,0,0.2,0,0.4,0c0.3,0,0.6,0,0.8,0c0.1,0,0.3,0,0.4,0s0.3,0,0.4,0c0.3,0,0.5,0.1,0.8,0.1c0.1,0,0.3,0,0.4,0.1
					c0.3,0,0.6,0.1,0.9,0.1s0.5,0.1,0.8,0.1c0.2,0,0.5,0.1,0.7,0.1l0,0c0.1,0,0.2,0.1,0.4,0.1c0.3,0.1,0.5,0.1,0.8,0.2
					c0.1,0,0.2,0.1,0.3,0.1c0.2,0.1,0.5,0.1,0.7,0.2s0.5,0.1,0.7,0.2c0.3,0.1,0.6,0.2,0.9,0.3l0,0c0.3,0.1,0.5,0.2,0.8,0.3
					c0.8,0.3,1.6,0.6,2.4,1c0.2,0.1,0.3,0.1,0.5,0.2s0.4,0.2,0.6,0.3c0.2,0.1,0.5,0.3,0.7,0.4s0.4,0.2,0.6,0.3
					c0.2,0.1,0.4,0.2,0.6,0.4c0.2,0.1,0.4,0.2,0.5,0.3c0.3,0.2,0.5,0.3,0.8,0.5c0.2,0.1,0.3,0.2,0.5,0.3c0.9,0.6,1.8,1.3,2.6,2
					c0.2,0.2,0.5,0.4,0.7,0.6c0.4,0.4,0.9,0.8,1.3,1.2c0.2,0.2,0.4,0.4,0.6,0.6s0.4,0.4,0.6,0.6s0.3,0.3,0.5,0.5s0.4,0.5,0.6,0.7
					c0.1,0.1,0.2,0.2,0.3,0.4c0.2,0.2,0.4,0.5,0.6,0.7c0.1,0.1,0.2,0.3,0.3,0.4c0.2,0.2,0.3,0.4,0.5,0.6s0.3,0.4,0.4,0.6
					s0.3,0.4,0.4,0.6c0,0,0,0,0,0.1l0,0c0.1,0.2,0.2,0.4,0.4,0.5c0.3,0.4,0.6,0.8,0.8,1.2c0.1,0.2,0.2,0.4,0.4,0.6l0,0
					c0.1,0.2,0.3,0.4,0.4,0.7c0.1,0.2,0.3,0.4,0.4,0.7c0.1,0.2,0.2,0.4,0.3,0.6c0.1,0.2,0.3,0.5,0.4,0.7s0.3,0.5,0.4,0.7
					s0.2,0.4,0.3,0.6c0.1,0.2,0.2,0.5,0.3,0.7c0.4,0.9,0.9,1.9,1.3,2.8c0.2,0.5,0.4,1,0.6,1.5c0.1,0.2,0.2,0.5,0.2,0.7
					c0.1,0.2,0.2,0.4,0.2,0.7c0.1,0.3,0.2,0.7,0.3,1c0.1,0.3,0.2,0.7,0.3,1c0.1,0.3,0.2,0.7,0.3,1c0.1,0.3,0.2,0.6,0.2,0.9
					c0,0.1,0,0.2,0.1,0.3c0.1,0.3,0.1,0.6,0.2,0.9c0,0.1,0,0.1,0,0.2c0.1,0.3,0.1,0.6,0.2,0.9l0,0c0.1,0.7,0.3,1.3,0.4,2
					c0.1,0.4,0.1,0.7,0.2,1.1c0,0.3,0.1,0.6,0.1,0.9c0,0.1,0,0.2,0,0.3c0.1,0.7,0.2,1.4,0.2,2.2c0,0.2,0,0.3,0,0.5s0,0.4,0,0.7
					c0,0.5,0.1,0.9,0.1,1.4c0,0.3,0,0.5,0,0.8c0,0.1,0,0.2,0,0.2c0,0.4,0,0.7,0,1.1c0,0.3,0,0.7,0,1s0,0.6,0,0.9c0,0.1,0,0.2,0,0.2
					c0,0.2,0,0.5,0,0.7c0,0.1,0,0.2,0,0.3c0,0.3,0,0.5-0.1,0.8c0,0.1,0,0.2,0,0.2c0,0.2,0,0.5-0.1,0.7c0,0.3-0.1,0.6-0.1,1
					c0,0.2-0.1,0.5-0.1,0.7c-0.2,1.5-0.4,3-0.7,4.5c-0.1,0.3-0.1,0.6-0.2,0.8c-0.1,0.3-0.1,0.5-0.2,0.8c-0.2,1-0.5,2-0.8,2.9
					C494.1,345.5,494.1,345.6,494.1,345.7z"/>
				<ellipse cx="459.4" cy="331" rx="26.8" ry="32.8"/>
				<g>
					<ellipse class="st9" cx="473.3" cy="324.4" rx="6.2" ry="7.2"/>
					<ellipse class="st9" cx="461.7" cy="335" rx="2.4" ry="2.8"/>
				</g>
				<g>
					<g>
						<path class="st13" d="M481.6,307.3L481.6,307.3c-5.8-2.1-11.7-3-17.5-3c-17.4,0-33.3,7.6-39.2,10.7c0.1-0.3,0.2-0.5,0.2-0.8
							c5.4-17.1,18.2-29.4,33.3-29.9l0,0c0.4,0,0.7,0,1.1,0c15,0,27.9,11.5,33.8,28.1c0.2,0.5,0.3,0.9,0.5,1.4
							c0,0.1,0.1,0.2,0.1,0.4C490,311.1,485.8,308.8,481.6,307.3z"/>
					</g>
					<path d="M497.5,313.1c-0.1-0.2-0.1-0.4-0.2-0.5l-0.1-0.2c-0.1-0.4-0.3-0.9-0.4-1.3c-6.5-18.6-21.2-30.6-37.3-30.6
						c-8.5,0-16.6,3.2-23.5,9.3c-6.6,5.8-11.6,13.9-14.5,23.3v0.2c-0.1,0.3-0.2,0.5-0.2,0.8c-0.4,1.4,0.1,3,1.3,3.9
						c0.3,0.2,0.7,0.4,1,0.6c0.4,0.2,0.9,0.2,1.3,0.2c0.6,0,1.2-0.1,1.8-0.4c3.6-1.9,10.9-5.5,19.9-7.8l0,0
						c5.4-1.4,11.4-2.4,17.5-2.4c10.6,0,19.9,3,27.5,9c0.1,0.1,0.2,0.1,0.3,0.2c0.6,0.4,1.3,0.6,2,0.6c0.4,0,0.8-0.1,1.1-0.2
						c0.3-0.1,0.7-0.3,1-0.5C497.4,316.4,498,314.7,497.5,313.1z M490.4,311.6c-0.1-0.1-0.2-0.2-0.4-0.2c-0.3-0.2-0.5-0.3-0.8-0.5
						c-0.2-0.1-0.3-0.2-0.5-0.3c-0.1-0.1-0.2-0.1-0.3-0.2l0,0c-1.2-0.7-2.4-1.3-3.7-1.9c-0.4-0.2-0.8-0.4-1.2-0.5
						c-0.4-0.2-0.8-0.3-1.2-0.5c-0.3-0.1-0.5-0.2-0.8-0.3h-0.1h-0.1c-0.2-0.1-0.4-0.1-0.6-0.2c-0.3-0.1-0.6-0.2-0.8-0.3
						c-0.2-0.1-0.4-0.1-0.7-0.2c-0.9-0.3-1.9-0.5-2.8-0.8c-0.3-0.1-0.5-0.1-0.8-0.2c-0.1,0-0.2,0-0.2-0.1c-0.3-0.1-0.5-0.1-0.8-0.2
						c-0.1,0-0.1,0-0.2,0c-0.3-0.1-0.5-0.1-0.8-0.2c-0.1,0-0.1,0-0.2,0c-0.3,0-0.5-0.1-0.8-0.1c-0.6-0.1-1.3-0.2-1.9-0.3
						c-0.2,0-0.4,0-0.6-0.1c0,0,0,0-0.1,0c-0.5-0.1-0.9-0.1-1.4-0.1c-0.2,0-0.3,0-0.5,0H468c-0.3,0-0.5,0-0.8-0.1
						c-0.3,0-0.6,0-0.9,0c-0.4,0-0.8,0-1.2,0c-0.4,0-0.7,0-1.1,0c-0.8,0-1.6,0-2.4,0.1c-0.3,0-0.5,0-0.8,0c-0.4,0-0.8,0-1.2,0.1
						c-0.3,0-0.5,0-0.8,0.1h-0.1c-0.3,0-0.5,0-0.8,0.1c-0.2,0-0.4,0-0.7,0.1c-0.1,0-0.3,0-0.4,0c-0.5,0.1-0.9,0.1-1.4,0.2
						c-0.1,0-0.1,0-0.2,0c-1.1,0.2-2.2,0.3-3.3,0.5c-0.6,0.1-1.1,0.2-1.6,0.3l0,0c-0.7,0.1-1.4,0.3-2.1,0.5
						c-0.4,0.1-0.8,0.2-1.2,0.3c-0.5,0.1-1,0.2-1.4,0.4c-0.9,0.2-1.7,0.5-2.5,0.7c-0.3,0.1-0.6,0.2-0.9,0.3c-0.3,0.1-0.7,0.2-1,0.3
						c-0.3,0.1-0.6,0.2-0.9,0.3c-0.3,0.1-0.6,0.2-0.9,0.3c-0.5,0.2-1.1,0.4-1.6,0.6c-0.4,0.1-0.7,0.3-1.1,0.4
						c-0.3,0.1-0.6,0.2-0.8,0.3c-0.9,0.4-1.8,0.7-2.6,1.1c-0.4,0.1-0.7,0.3-1,0.4c-1.6,0.7-3,1.3-4.2,1.9c-0.4,0.2-0.7,0.4-1,0.5
						c-0.7,0.4-1.4,0.7-1.9,1c0.1-0.3,0.2-0.5,0.2-0.8l0,0c0.1-0.4,0.3-0.8,0.4-1.2c0.1-0.4,0.3-0.8,0.4-1.2
						c0.1-0.4,0.3-0.8,0.5-1.2c0.1-0.4,0.3-0.7,0.4-1.1v-0.1c0.2-0.5,0.4-1,0.7-1.5c0.1-0.3,0.2-0.5,0.4-0.8
						c0.1-0.3,0.3-0.6,0.4-0.8c0.1-0.3,0.3-0.6,0.4-0.8c0.1-0.2,0.2-0.4,0.3-0.5c0.1-0.2,0.3-0.5,0.4-0.7s0.3-0.5,0.4-0.7
						s0.3-0.5,0.4-0.7c0.1-0.1,0.2-0.3,0.3-0.4c0.1-0.2,0.2-0.3,0.3-0.5c0.3-0.5,0.7-1.1,1.1-1.6c0.2-0.3,0.4-0.5,0.6-0.8
						c0.4-0.5,0.8-1,1.1-1.5c0.2-0.3,0.4-0.5,0.6-0.8l0.5-0.7l0.1-0.1c0.2-0.2,0.4-0.4,0.6-0.6c0.1-0.2,0.3-0.3,0.4-0.5
						c0.2-0.2,0.4-0.4,0.6-0.7c0.2-0.2,0.4-0.4,0.5-0.5c0.2-0.2,0.4-0.4,0.5-0.5s0.2-0.2,0.3-0.3c0.1-0.1,0.2-0.2,0.3-0.3l0.1-0.1
						c0.3-0.2,0.5-0.5,0.8-0.7c0.3-0.3,0.6-0.5,0.9-0.8l0,0c0.2-0.1,0.4-0.3,0.5-0.4c0.2-0.1,0.3-0.3,0.5-0.4
						c0.1-0.1,0.3-0.2,0.4-0.3c0.3-0.2,0.5-0.4,0.8-0.6c0.2-0.1,0.3-0.2,0.5-0.4c0.2-0.2,0.4-0.3,0.7-0.4c0.2-0.1,0.4-0.3,0.6-0.4
						c0.4-0.2,0.8-0.5,1.2-0.7l0,0c0.4-0.2,0.8-0.4,1.2-0.6c0.2-0.1,0.5-0.2,0.7-0.3c0.4-0.2,0.8-0.4,1.2-0.5
						c0.2-0.1,0.4-0.2,0.6-0.3c0.2-0.1,0.4-0.2,0.6-0.2c0.2-0.1,0.5-0.2,0.7-0.2c0.2-0.1,0.4-0.1,0.6-0.2l0,0
						c0.4-0.1,0.9-0.3,1.3-0.4c0.3-0.1,0.5-0.1,0.8-0.2c0.2,0,0.3-0.1,0.5-0.1c0.3-0.1,0.6-0.1,0.9-0.2c0.2,0,0.4-0.1,0.6-0.1
						s0.5-0.1,0.7-0.1s0.5-0.1,0.7-0.1s0.4,0,0.6-0.1c0.3,0,0.6-0.1,0.9-0.1c0.1,0,0.2,0,0.4,0h0.1c0.1,0,0.1,0,0.2,0l0,0
						c0.4,0,0.7,0,1.1,0c15,0,27.9,11.5,33.8,28.1c0.2,0.5,0.3,0.9,0.5,1.4c0,0.1,0.1,0.2,0.1,0.4
						C492.7,313.2,491.6,312.4,490.4,311.6z"/>
				</g>
				<path class="st15" d="M481.6,307.3L481.6,307.3c-4-20.3-22.7-22.9-23.1-23c0.4,0,0.7,0,1.1,0c15,0,27.9,11.5,33.8,28.1
					c0.2,0.5,0.3,0.9,0.5,1.4c0,0.1,0.1,0.2,0.1,0.4C490,311.1,485.8,308.8,481.6,307.3z"/>
			</g>
			<g>
				<path class="st14" d="M507,329.8c0,0-3.5,48.9,33.3,54.2c36.7,5.3,46.4-37.8,46.4-37.8L507,329.8z"/>
				<path class="st9" d="M584.9,329.8c0,25.1-16.6,45.6-37,45.6s-37-20.5-37-45.6c0-1.7,0.1-3.4,0.2-5c0.4-4.2,1.2-8.2,2.4-12
					c5.5-16.8,18.8-28.6,34.3-28.6c15,0,27.9,11,33.7,26.8c0.2,0.4,0.3,0.9,0.5,1.4C583.9,317.8,584.9,323.7,584.9,329.8z"/>
				<path d="M547.9,280.2c-22.6,0-41,22.3-41,49.6c0,27.4,18.4,49.6,41,49.6c17.8,0,33-13.9,38.7-33.1c0,0,0,0,0-0.1
					c1.5-5.1,2.3-10.7,2.3-16.4C588.9,302.5,570.5,280.2,547.9,280.2z M582.6,345.7c-0.1,0.2-0.1,0.4-0.2,0.6
					c-0.1,0.2-0.1,0.3-0.1,0.4c-0.1,0.3-0.2,0.5-0.3,0.8s-0.2,0.7-0.4,1c-0.2,0.7-0.5,1.3-0.8,2s-0.6,1.3-0.9,1.9
					c-0.3,0.6-0.6,1.3-0.9,1.9c-0.2,0.4-0.4,0.7-0.6,1c-0.1,0.1-0.2,0.3-0.2,0.4c-0.2,0.3-0.3,0.6-0.5,0.9c0,0,0,0.1-0.1,0.1
					c-0.2,0.4-0.4,0.7-0.7,1.1c0,0,0,0.1-0.1,0.1c-0.2,0.4-0.5,0.7-0.7,1.1c-0.2,0.3-0.4,0.5-0.5,0.8c-0.1,0.2-0.3,0.4-0.4,0.5
					c-0.2,0.3-0.4,0.5-0.6,0.8c-1.2,1.5-2.4,2.9-3.8,4.2c-0.1,0.1-0.2,0.2-0.3,0.3c-0.9,0.9-1.8,1.7-2.8,2.4
					c-0.2,0.2-0.4,0.3-0.7,0.5s-0.6,0.5-0.9,0.7c-0.2,0.2-0.4,0.3-0.7,0.5c0,0-0.1,0-0.1,0.1c-0.2,0.2-0.5,0.3-0.7,0.5
					c-0.3,0.2-0.5,0.3-0.8,0.5s-0.5,0.3-0.8,0.5s-0.5,0.3-0.8,0.4c-0.2,0.1-0.5,0.2-0.7,0.4c-0.2,0.1-0.4,0.2-0.7,0.3
					c-0.2,0.1-0.3,0.2-0.5,0.2c-0.8,0.4-1.6,0.7-2.4,0.9c-0.2,0.1-0.4,0.1-0.6,0.2c-0.2,0.1-0.4,0.1-0.6,0.2
					c-0.4,0.1-0.8,0.2-1.2,0.3c-0.2,0.1-0.4,0.1-0.5,0.1h-0.1c-0.2,0-0.4,0.1-0.6,0.1c-0.2,0-0.4,0.1-0.6,0.1
					c-0.2,0-0.4,0.1-0.6,0.1c-0.6,0.1-1.3,0.2-1.9,0.3c-0.2,0-0.4,0-0.6,0.1c-0.2,0-0.5,0-0.7,0.1c-0.4,0-0.8,0-1.2,0.1h-0.1
					c-0.2,0-0.4,0-0.6,0c-0.3,0-0.6,0-0.8,0c-0.3,0-0.6,0-0.8,0c-0.3,0-0.5,0-0.8-0.1c-1.6-0.1-3.3-0.4-4.8-0.8
					c-0.8-0.2-1.6-0.4-2.3-0.7c-0.3-0.1-0.5-0.2-0.8-0.3c-1.2-0.4-2.5-1-3.6-1.6c-0.1,0-0.1,0-0.1-0.1c-0.2-0.1-0.5-0.2-0.7-0.4
					c-0.2-0.1-0.5-0.3-0.7-0.4s-0.4-0.3-0.7-0.4c-0.3-0.2-0.6-0.3-0.8-0.5c-0.2-0.1-0.4-0.3-0.6-0.4c-0.5-0.3-0.9-0.6-1.4-1
					c-0.2-0.1-0.4-0.3-0.5-0.4c-0.5-0.4-1-0.8-1.5-1.3c-0.2-0.2-0.4-0.3-0.5-0.5c-0.2-0.2-0.4-0.4-0.6-0.6c-0.4-0.4-0.8-0.8-1.2-1.2
					s-0.8-0.8-1.2-1.3c-0.1-0.1-0.3-0.3-0.4-0.4c-0.2-0.2-0.3-0.4-0.5-0.5c-0.2-0.2-0.3-0.4-0.5-0.6c-0.7-0.8-1.3-1.7-1.9-2.5
					c-0.4-0.6-0.8-1.1-1.1-1.7l0,0c-0.4-0.6-0.7-1.2-1.1-1.7l0,0c-0.3-0.6-0.7-1.2-1-1.8c-0.2-0.3-0.3-0.6-0.5-0.9
					c-0.2-0.5-0.5-0.9-0.7-1.4c-0.1-0.2-0.2-0.5-0.3-0.7c-0.3-0.7-0.6-1.4-0.9-2.2c-0.2-0.5-0.4-1-0.6-1.6c-0.2-0.7-0.4-1.3-0.6-2
					c-0.1-0.3-0.2-0.7-0.3-1s-0.2-0.7-0.3-1s-0.2-0.7-0.3-1s-0.2-0.7-0.2-1c-0.1-0.3-0.1-0.6-0.2-0.9c-0.1-0.4-0.1-0.8-0.2-1.2
					c-0.1-0.4-0.1-0.7-0.2-1.1c-0.1-0.3-0.1-0.6-0.1-1c0-0.1,0-0.1,0-0.2c0-0.3-0.1-0.6-0.1-0.9v-0.1c0-0.3-0.1-0.6-0.1-1v-0.1
					c0-0.3-0.1-0.7-0.1-1c-0.1-0.7-0.1-1.5-0.1-2.2c0-0.4,0-0.7,0-1.1c0-0.3,0-0.5,0-0.8c0-0.4,0-0.8,0-1.2c0-0.4,0-0.8,0-1.2
					c0-0.4,0-0.8,0.1-1.2c0-0.2,0-0.4,0-0.6s0-0.4,0-0.6c0-0.3,0.1-0.5,0.1-0.8c0-0.2,0-0.5,0.1-0.7c0-0.2,0.1-0.5,0.1-0.7
					c0-0.4,0.1-0.8,0.2-1.1c0.1-0.4,0.1-0.7,0.2-1.1s0.1-0.7,0.2-1.1c0.1-0.3,0.1-0.6,0.2-1l0,0c0.1-0.5,0.2-0.9,0.3-1.4
					c0.1-0.3,0.1-0.6,0.2-0.9c0.1-0.4,0.2-0.7,0.3-1.1c0.1-0.3,0.2-0.6,0.2-0.8c0.1-0.3,0.2-0.6,0.2-0.8c0.1-0.2,0.1-0.5,0.2-0.7
					c0.1-0.3,0.2-0.5,0.3-0.8s0.2-0.7,0.4-1c0.1-0.3,0.2-0.6,0.3-0.9c0-0.1,0-0.1,0.1-0.2c0-0.1,0.1-0.2,0.1-0.4
					c0.1-0.1,0.1-0.2,0.2-0.4c0.1-0.3,0.3-0.7,0.4-1c0.2-0.4,0.3-0.8,0.5-1.1c0,0,0-0.1,0.1-0.1c0.1-0.3,0.3-0.5,0.4-0.8
					c0.2-0.4,0.4-0.7,0.5-1.1l0,0c0.1-0.2,0.3-0.5,0.4-0.7c0.1-0.2,0.2-0.5,0.4-0.7c0,0,0,0,0-0.1c0.1-0.1,0.1-0.2,0.2-0.3
					c0.2-0.3,0.3-0.5,0.5-0.8s0.3-0.5,0.5-0.8c0.1-0.1,0.2-0.3,0.3-0.4s0.2-0.3,0.3-0.4c0.2-0.3,0.4-0.5,0.6-0.8
					c0.2-0.3,0.4-0.6,0.6-0.8c0.2-0.3,0.4-0.5,0.6-0.8c0.2-0.3,0.4-0.5,0.6-0.8c0.2-0.3,0.4-0.5,0.6-0.7c0.2-0.3,0.4-0.5,0.7-0.7
					c0.2-0.2,0.4-0.5,0.7-0.7c0,0,0,0,0-0.1c0.4-0.5,0.9-0.9,1.3-1.3c0.2-0.2,0.4-0.4,0.7-0.6c0.1,0,0.1-0.1,0.2-0.1
					c0.2-0.2,0.5-0.4,0.7-0.7c0.2-0.2,0.4-0.3,0.5-0.5l0.1-0.1c0.2-0.2,0.5-0.4,0.8-0.6c0.2-0.2,0.5-0.4,0.7-0.5
					c0.3-0.2,0.5-0.4,0.8-0.6c0,0,0.1,0,0.1-0.1c0,0,0,0,0.1,0c0.2-0.1,0.3-0.2,0.5-0.3c0.3-0.2,0.5-0.4,0.8-0.5
					c0.1-0.1,0.2-0.1,0.2-0.2c0.3-0.2,0.5-0.3,0.8-0.5c0.2-0.1,0.5-0.3,0.7-0.4s0.5-0.3,0.7-0.4c0,0,0.1,0,0.1-0.1
					c0.2-0.1,0.4-0.2,0.5-0.3c0.2-0.1,0.4-0.2,0.5-0.3c0.2-0.1,0.4-0.2,0.5-0.2c0.9-0.4,1.8-0.8,2.7-1.1c0.1-0.1,0.3-0.1,0.4-0.1
					c0.1,0,0.3-0.1,0.4-0.1c0.3-0.1,0.6-0.2,0.8-0.3c0.2-0.1,0.4-0.1,0.6-0.2c0.2-0.1,0.5-0.1,0.7-0.2h0.1c0.2,0,0.4-0.1,0.6-0.1
					c0.2,0,0.4-0.1,0.6-0.1c0.1,0,0.1,0,0.2,0h0.1c0.1,0,0.2-0.1,0.4-0.1c0.1,0,0.1,0,0.2,0c0.1,0,0.2,0,0.3,0
					c0.2,0,0.4-0.1,0.6-0.1c0.4-0.1,0.9-0.1,1.3-0.1c0.1,0,0.1,0,0.2,0c0.2,0,0.3,0,0.5,0c0,0,0,0,0.1,0l0,0c0.2,0,0.5,0,0.7,0
					c0.1,0,0.2,0,0.4,0c0.3,0,0.5,0,0.8,0c0.2,0,0.5,0,0.7,0c0.1,0,0.2,0,0.4,0c0.3,0,0.6,0,0.8,0c0.1,0,0.3,0,0.4,0
					c0.1,0,0.3,0,0.4,0c0.3,0,0.5,0.1,0.8,0.1c0.1,0,0.3,0,0.4,0.1c0.3,0,0.6,0.1,0.9,0.1c0.3,0,0.5,0.1,0.8,0.1
					c0.2,0,0.5,0.1,0.7,0.1l0,0c0.1,0,0.2,0.1,0.4,0.1c0.3,0.1,0.5,0.1,0.8,0.2c0.1,0,0.2,0.1,0.3,0.1c0.2,0.1,0.5,0.1,0.7,0.2
					s0.5,0.1,0.7,0.2c0.3,0.1,0.6,0.2,0.9,0.3l0,0c0.3,0.1,0.5,0.2,0.8,0.3c0.8,0.3,1.6,0.6,2.4,1c0.2,0.1,0.3,0.1,0.5,0.2
					s0.4,0.2,0.6,0.3c0.2,0.1,0.5,0.3,0.7,0.4s0.4,0.2,0.6,0.3c0.2,0.1,0.4,0.2,0.6,0.4c0.2,0.1,0.4,0.2,0.5,0.3
					c0.3,0.2,0.5,0.3,0.8,0.5c0.2,0.1,0.3,0.2,0.5,0.3c0.9,0.6,1.8,1.3,2.6,2c0.2,0.2,0.5,0.4,0.7,0.6c0.4,0.4,0.9,0.8,1.3,1.2
					c0.2,0.2,0.4,0.4,0.6,0.6c0.2,0.2,0.4,0.4,0.6,0.6c0.2,0.2,0.3,0.3,0.5,0.5s0.4,0.5,0.6,0.7c0.1,0.1,0.2,0.2,0.3,0.4
					c0.2,0.2,0.4,0.5,0.6,0.7c0.1,0.1,0.2,0.3,0.3,0.4c0.2,0.2,0.3,0.4,0.5,0.6s0.3,0.4,0.4,0.6c0.1,0.2,0.3,0.4,0.4,0.6
					c0,0,0,0,0,0.1l0,0c0.1,0.2,0.2,0.4,0.4,0.5c0.3,0.4,0.6,0.8,0.8,1.2c0.1,0.2,0.2,0.4,0.4,0.6l0,0c0.1,0.2,0.3,0.4,0.4,0.7
					c0.1,0.2,0.3,0.4,0.4,0.7c0.1,0.2,0.2,0.4,0.3,0.6s0.3,0.5,0.4,0.7c0.1,0.2,0.3,0.5,0.4,0.7c0.1,0.2,0.2,0.4,0.3,0.6
					s0.2,0.5,0.3,0.7c0.4,0.9,0.9,1.9,1.3,2.8c0.2,0.5,0.4,1,0.6,1.5c0.1,0.2,0.2,0.5,0.2,0.7c0.1,0.2,0.2,0.4,0.2,0.7
					c0.1,0.3,0.2,0.7,0.3,1s0.2,0.7,0.3,1s0.2,0.7,0.3,1s0.2,0.6,0.2,0.9c0,0.1,0,0.2,0.1,0.3c0.1,0.3,0.1,0.6,0.2,0.9
					c0,0.1,0,0.1,0,0.2c0.1,0.3,0.1,0.6,0.2,0.9l0,0c0.1,0.7,0.3,1.3,0.4,2c0.1,0.4,0.1,0.7,0.2,1.1c0,0.3,0.1,0.6,0.1,0.9
					c0,0.1,0,0.2,0,0.3c0.1,0.7,0.2,1.4,0.2,2.2c0,0.2,0,0.3,0,0.5s0,0.4,0,0.7c0,0.5,0.1,0.9,0.1,1.4c0,0.3,0,0.5,0,0.8
					c0,0.1,0,0.2,0,0.2c0,0.4,0,0.7,0,1.1c0,0.3,0,0.7,0,1s0,0.6,0,0.9c0,0.1,0,0.2,0,0.2c0,0.2,0,0.5,0,0.7c0,0.1,0,0.2,0,0.3
					c0,0.3,0,0.5-0.1,0.8c0,0.1,0,0.2,0,0.2c0,0.2,0,0.5-0.1,0.7c0,0.3-0.1,0.6-0.1,1c0,0.2-0.1,0.5-0.1,0.7c-0.2,1.5-0.4,3-0.7,4.5
					c-0.1,0.3-0.1,0.6-0.2,0.8c-0.1,0.3-0.1,0.5-0.2,0.8c-0.2,1-0.5,2-0.8,2.9C582.7,345.5,582.6,345.6,582.6,345.7z"/>
				<ellipse cx="547.9" cy="331" rx="26.8" ry="32.8"/>
				<g>
					<ellipse class="st9" cx="561.9" cy="324.4" rx="6.2" ry="7.2"/>
					<ellipse class="st9" cx="550.3" cy="335" rx="2.4" ry="2.8"/>
				</g>
				<g>
					<g>
						<path class="st13" d="M570.1,307.3L570.1,307.3c-5.8-2.1-11.7-3-17.5-3c-17.4,0-33.3,7.6-39.2,10.7c0.1-0.3,0.2-0.5,0.2-0.8
							c5.4-17.1,18.2-29.4,33.3-29.9l0,0c0.4,0,0.7,0,1.1,0c15,0,27.9,11.5,33.8,28.1c0.2,0.5,0.3,0.9,0.5,1.4
							c0,0.1,0.1,0.2,0.1,0.4C578.5,311.1,574.4,308.8,570.1,307.3z"/>
					</g>
					<path d="M586,313.1c-0.1-0.2-0.1-0.4-0.2-0.5l-0.1-0.2c-0.1-0.4-0.3-0.9-0.4-1.3c-6.5-18.6-21.2-30.6-37.3-30.6
						c-8.5,0-16.6,3.2-23.5,9.3c-6.6,5.8-11.6,13.9-14.5,23.3v0.2c-0.1,0.3-0.2,0.5-0.2,0.8c-0.4,1.4,0.1,3,1.3,3.9
						c0.3,0.2,0.7,0.4,1,0.6c0.4,0.2,0.9,0.2,1.3,0.2c0.6,0,1.2-0.1,1.8-0.4c3.6-1.9,10.9-5.5,19.9-7.8l0,0
						c5.4-1.4,11.4-2.4,17.5-2.4c10.6,0,19.9,3,27.5,9c0.1,0.1,0.2,0.1,0.3,0.2c0.6,0.4,1.3,0.6,2,0.6c0.4,0,0.8-0.1,1.1-0.2
						s0.7-0.3,1-0.5C585.9,316.4,586.5,314.7,586,313.1z M578.9,311.6c-0.1-0.1-0.2-0.2-0.4-0.2c-0.3-0.2-0.5-0.3-0.8-0.5
						c-0.2-0.1-0.3-0.2-0.5-0.3c-0.1-0.1-0.2-0.1-0.3-0.2l0,0c-1.2-0.7-2.4-1.3-3.7-1.9c-0.4-0.2-0.8-0.4-1.2-0.5
						c-0.4-0.2-0.8-0.3-1.2-0.5c-0.3-0.1-0.5-0.2-0.8-0.3h-0.1h-0.1c-0.2-0.1-0.4-0.1-0.6-0.2c-0.3-0.1-0.6-0.2-0.8-0.3
						c-0.2-0.1-0.4-0.1-0.7-0.2c-0.9-0.3-1.9-0.5-2.8-0.8c-0.3-0.1-0.5-0.1-0.8-0.2c-0.1,0-0.2,0-0.2-0.1c-0.3-0.1-0.5-0.1-0.8-0.2
						c-0.1,0-0.1,0-0.2,0c-0.3-0.1-0.5-0.1-0.8-0.2c-0.1,0-0.1,0-0.2,0c-0.3,0-0.5-0.1-0.8-0.1c-0.6-0.1-1.3-0.2-1.9-0.3
						c-0.2,0-0.4,0-0.6-0.1c0,0,0,0-0.1,0c-0.5-0.1-0.9-0.1-1.4-0.1c-0.2,0-0.3,0-0.5,0h-0.1c-0.3,0-0.5,0-0.8-0.1
						c-0.3,0-0.6,0-0.9,0c-0.4,0-0.8,0-1.2,0s-0.7,0-1.1,0c-0.8,0-1.6,0-2.4,0.1c-0.3,0-0.5,0-0.8,0c-0.4,0-0.8,0-1.2,0.1
						c-0.3,0-0.5,0-0.8,0.1h-0.1c-0.3,0-0.5,0-0.8,0.1c-0.2,0-0.4,0-0.7,0.1c-0.1,0-0.3,0-0.4,0c-0.5,0.1-0.9,0.1-1.4,0.2
						c-0.1,0-0.1,0-0.2,0c-1.1,0.2-2.2,0.3-3.3,0.5c-0.6,0.1-1.1,0.2-1.6,0.3l0,0c-0.7,0.1-1.4,0.3-2.1,0.5
						c-0.4,0.1-0.8,0.2-1.2,0.3c-0.5,0.1-1,0.2-1.4,0.4c-0.9,0.2-1.7,0.5-2.5,0.7c-0.3,0.1-0.6,0.2-0.9,0.3c-0.3,0.1-0.7,0.2-1,0.3
						c-0.3,0.1-0.6,0.2-0.9,0.3c-0.3,0.1-0.6,0.2-0.9,0.3c-0.5,0.2-1.1,0.4-1.6,0.6c-0.4,0.1-0.7,0.3-1.1,0.4
						c-0.3,0.1-0.6,0.2-0.8,0.3c-0.9,0.4-1.8,0.7-2.6,1.1c-0.4,0.1-0.7,0.3-1,0.4c-1.6,0.7-3,1.3-4.2,1.9c-0.4,0.2-0.7,0.4-1,0.5
						c-0.7,0.4-1.4,0.7-1.9,1c0.1-0.3,0.2-0.5,0.2-0.8l0,0c0.1-0.4,0.3-0.8,0.4-1.2c0.1-0.4,0.3-0.8,0.4-1.2
						c0.1-0.4,0.3-0.8,0.5-1.2c0.1-0.4,0.3-0.7,0.4-1.1v-0.1c0.2-0.5,0.4-1,0.7-1.5c0.1-0.3,0.2-0.5,0.4-0.8
						c0.1-0.3,0.3-0.6,0.4-0.8c0.1-0.3,0.3-0.6,0.4-0.8c0.1-0.2,0.2-0.4,0.3-0.5c0.1-0.2,0.3-0.5,0.4-0.7c0.1-0.2,0.3-0.5,0.4-0.7
						c0.1-0.2,0.3-0.5,0.4-0.7c0.1-0.1,0.2-0.3,0.3-0.4c0.1-0.2,0.2-0.3,0.3-0.5c0.3-0.5,0.7-1.1,1.1-1.6c0.2-0.3,0.4-0.5,0.6-0.8
						c0.4-0.5,0.8-1,1.1-1.5c0.2-0.3,0.4-0.5,0.6-0.8l0.5-0.7l0.1-0.1c0.2-0.2,0.4-0.4,0.6-0.6c0.1-0.2,0.3-0.3,0.4-0.5
						c0.2-0.2,0.4-0.4,0.6-0.7c0.2-0.2,0.4-0.4,0.5-0.5c0.2-0.2,0.4-0.4,0.5-0.5s0.2-0.2,0.3-0.3c0.1-0.1,0.2-0.2,0.3-0.3l0.1-0.1
						c0.3-0.2,0.5-0.5,0.8-0.7c0.3-0.3,0.6-0.5,0.9-0.8l0,0c0.2-0.1,0.4-0.3,0.5-0.4c0.2-0.1,0.3-0.3,0.5-0.4
						c0.1-0.1,0.3-0.2,0.4-0.3c0.3-0.2,0.5-0.4,0.8-0.6c0.2-0.1,0.3-0.2,0.5-0.4c0.2-0.2,0.4-0.3,0.7-0.4c0.2-0.1,0.4-0.3,0.6-0.4
						c0.4-0.2,0.8-0.5,1.2-0.7l0,0c0.4-0.2,0.8-0.4,1.2-0.6c0.2-0.1,0.5-0.2,0.7-0.3c0.4-0.2,0.8-0.4,1.2-0.5
						c0.2-0.1,0.4-0.2,0.6-0.3c0.2-0.1,0.4-0.2,0.6-0.2c0.2-0.1,0.5-0.2,0.7-0.2c0.2-0.1,0.4-0.1,0.6-0.2l0,0
						c0.4-0.1,0.9-0.3,1.3-0.4c0.3-0.1,0.5-0.1,0.8-0.2c0.2,0,0.3-0.1,0.5-0.1c0.3-0.1,0.6-0.1,0.9-0.2c0.2,0,0.4-0.1,0.6-0.1
						c0.2,0,0.5-0.1,0.7-0.1s0.5-0.1,0.7-0.1s0.4,0,0.6-0.1c0.3,0,0.6-0.1,0.9-0.1c0.1,0,0.2,0,0.4,0h0.1c0.1,0,0.1,0,0.2,0l0,0
						c0.4,0,0.7,0,1.1,0c15,0,27.9,11.5,33.8,28.1c0.2,0.5,0.3,0.9,0.5,1.4c0,0.1,0.1,0.2,0.1,0.4
						C581.3,313.2,580.1,312.4,578.9,311.6z"/>
				</g>
				<path class="st15" d="M570.1,307.3L570.1,307.3c-4-20.3-22.7-22.9-23.1-23c0.4,0,0.7,0,1.1,0c15,0,27.9,11.5,33.8,28.1
					c0.2,0.5,0.3,0.9,0.5,1.4c0,0.1,0.1,0.2,0.1,0.4C578.5,311.1,574.4,308.8,570.1,307.3z"/>
			</g>
		</g>
	</g>
</g>
<g id="glasses_2_" class="st6">
	<g id="glasses" class="st7">
		<g id="glasses_1_">
			<g>
				<g>
					<g>
						<path class="st18" d="M340.1,325.2c-0.8-0.4-1.6-0.7-2.4-0.8c-0.4-0.1-0.8-0.1-1.2-0.1c-0.4,0-0.7,0-1.1,0s-0.9,0.1-1.3,0.3
							c-0.6,0.2-1.2,0.4-1.7,0.7c-0.3,0.2-0.6,0.4-0.9,0.6s-0.6,0.5-0.9,0.8c-0.4,0.5-0.8,1-1.2,1.6c-1,1.8-1.2,4-0.7,6l2.1,7.2
							c0.7,2.3,2.3,4.1,4.4,5c0.4,0.2,0.8,0.3,1.2,0.4c0.4,0.1,0.8,0.2,1.1,0.2c0.1,0,0.2,0,0.2,0c0.3,0,0.6,0,0.9,0
							c0.2,0,0.4,0,0.6-0.1c0.4-0.1,0.8-0.1,1.2-0.3h0.1c0.4-0.1,0.8-0.3,1.1-0.4c0.3-0.2,0.7-0.4,1-0.6s0.6-0.5,0.9-0.7
							c0.6-0.6,1.1-1.2,1.6-2c1-1.8,1.2-4,0.7-6l-2.1-7.2C343.3,327.9,342,326.3,340.1,325.2z M340.7,338.1l0.2,0.6
							c0.2,0.6,0.1,1.3-0.2,1.9c0,0,0,0.1-0.1,0.1c-0.3,0.5-0.7,0.8-1.2,1c-0.1,0-0.2,0.1-0.3,0.1c-0.6,0.2-1.1,0.1-1.6-0.1
							c-0.6-0.3-1.2-0.8-1.4-1.5c0-0.1,0-0.1-0.1-0.2l-0.6-1.9l-1.2-4.2l-0.3-1.2c0-0.1-0.1-0.2-0.1-0.3c-0.1-0.5,0-1,0.2-1.5
							c0.3-0.6,0.8-1.1,1.5-1.3c0.5-0.1,1-0.1,1.4,0c0.1,0,0.2,0.1,0.3,0.1c0.4,0.2,0.7,0.4,0.9,0.7l0,0c0.2,0.2,0.4,0.5,0.5,0.9
							l0.2,0.7l1.3,4.3L340.7,338.1z"/>
					</g>
				</g>
				<g>
					<g>
						<path class="st18" d="M407.7,353.5c-0.6-0.6-1.3-1.1-2-1.5c-0.3-0.2-0.7-0.3-1.1-0.5c-0.3-0.1-0.7-0.2-1.1-0.3
							c-0.4-0.1-0.9-0.1-1.4-0.1c-0.6,0-1.3,0.1-1.9,0.2c-0.4,0.1-0.7,0.2-1.1,0.3c-0.4,0.1-0.7,0.3-1.1,0.5
							c-0.6,0.3-1.1,0.7-1.6,1.2c-1.5,1.5-2.4,3.4-2.4,5.5l-0.1,7.5c0,2.4,1,4.6,2.7,6.1c0.3,0.3,0.7,0.5,1,0.8
							c0.3,0.2,0.7,0.4,1,0.5c0.1,0,0.1,0.1,0.2,0.1c0.3,0.1,0.5,0.2,0.8,0.3c0.2,0.1,0.4,0.1,0.6,0.1c0.4,0.1,0.8,0.1,1.3,0.1h0.1
							c0.4,0,0.8,0,1.2-0.1c0.4-0.1,0.7-0.1,1.1-0.2s0.8-0.3,1.1-0.4c0.8-0.4,1.5-0.8,2.1-1.4c1.5-1.5,2.4-3.4,2.4-5.5l0.1-7.5
							C409.9,357,409.1,355,407.7,353.5z M404.4,365.9v0.6c0,0.7-0.3,1.3-0.8,1.8c0,0-0.1,0-0.1,0.1c-0.4,0.4-0.9,0.6-1.4,0.6
							c-0.1,0-0.2,0-0.3,0c-0.6,0-1.1-0.2-1.5-0.6c-0.5-0.4-0.9-1.1-0.9-1.8c0-0.1,0-0.1,0-0.2v-2l0.1-4.3v-1.2c0-0.1,0-0.2,0-0.3
							c0.1-0.5,0.3-1,0.7-1.4c0.5-0.5,1.1-0.8,1.9-0.8c0.5,0,1,0.2,1.4,0.4c0.1,0.1,0.2,0.1,0.2,0.2c0.3,0.3,0.5,0.6,0.7,1l0,0
							c0.1,0.3,0.2,0.6,0.2,1v0.8l-0.1,4.5L404.4,365.9z"/>
					</g>
				</g>
				<g>
					<g>
						<path class="st19" d="M404.7,351.5c-6.9,0-12.5-5.6-12.5-12.5s5.6-12.5,12.5-12.5s12.5,5.6,12.5,12.5S411.6,351.5,404.7,351.5
							z M404.7,332.5c-3.6,0-6.6,3-6.6,6.6s3,6.6,6.6,6.6s6.6-3,6.6-6.6C411.3,335.4,408.4,332.5,404.7,332.5z"/>
						<path d="M404.7,328.2c6,0,10.8,4.9,10.8,10.8c0,6-4.9,10.8-10.8,10.8c-6,0-10.8-4.9-10.8-10.8
							C393.9,333.1,398.8,328.2,404.7,328.2L404.7,328.2z M404.7,347.3c4.5,0,8.2-3.7,8.2-8.2s-3.7-8.2-8.2-8.2s-8.2,3.7-8.2,8.2
							S400.2,347.3,404.7,347.3L404.7,347.3z M404.7,325c-7.8,0-14.1,6.3-14.1,14.1c0,7.8,6.3,14.1,14.1,14.1
							c7.8,0,14.1-6.3,14.1-14.1C418.8,331.3,412.5,325,404.7,325L404.7,325z M404.7,344c-2.7,0-5-2.2-5-5c0-2.7,2.2-5,5-5
							c2.7,0,5,2.2,5,5S407.5,344,404.7,344L404.7,344z"/>
					</g>
				</g>
				<g>
					<g>
						<path class="st18" d="M404.8,358.6c-0.4,1-1.5,1.7-2.6,1.6c-1.5-0.1-2.6-1.4-2.5-2.9l0.8-13.5c0.1-1.5,1.4-2.6,2.9-2.5
							s2.6,1.4,2.5,2.9l-0.8,13.5C405,358,404.9,358.3,404.8,358.6z"/>
					</g>
				</g>
				<g>
					<g>
						<path class="st18" d="M406.9,379.3c-0.5-0.7-1-1.4-1.7-1.9c-0.3-0.2-0.6-0.5-0.9-0.7s-0.6-0.4-1-0.5c-0.4-0.2-0.9-0.3-1.3-0.4
							c-0.6-0.1-1.2-0.2-1.9-0.2c-0.4,0-0.8,0-1.1,0.1c-0.4,0.1-0.8,0.1-1.2,0.3c-0.6,0.2-1.2,0.5-1.8,0.8c-1.8,1.1-3,2.8-3.5,4.9
							l-1.7,7.3c-0.6,2.4,0,4.7,1.4,6.5c0.3,0.3,0.5,0.7,0.9,1c0.3,0.3,0.6,0.5,0.9,0.7c0.1,0,0.1,0.1,0.2,0.1
							c0.2,0.2,0.5,0.3,0.8,0.4c0.2,0.1,0.4,0.2,0.6,0.3c0.4,0.2,0.8,0.3,1.2,0.4h0.1c0.4,0.1,0.8,0.1,1.2,0.2c0.4,0,0.8,0,1.1,0
							c0.4,0,0.8-0.1,1.2-0.2c0.8-0.2,1.6-0.5,2.3-1c1.8-1.1,3-2.8,3.5-4.9l1.7-7.3C408.4,383.2,408.1,381.1,406.9,379.3z
							 M401.1,390.8l-0.1,0.6c-0.2,0.7-0.6,1.2-1.1,1.6c0,0-0.1,0-0.1,0.1c-0.5,0.3-1,0.4-1.5,0.3c-0.1,0-0.2,0-0.3-0.1
							c-0.6-0.1-1.1-0.5-1.4-0.9c-0.4-0.5-0.6-1.2-0.5-2c0-0.1,0-0.1,0-0.2l0.5-1.9l1-4.2l0.3-1.2c0-0.1,0.1-0.2,0.1-0.3
							c0.2-0.5,0.5-0.9,0.9-1.2c0.6-0.4,1.3-0.5,2-0.4c0.5,0.1,0.9,0.4,1.2,0.7c0.1,0.1,0.1,0.1,0.2,0.2c0.2,0.3,0.4,0.7,0.5,1.1
							l0,0c0.1,0.3,0,0.6,0,1l-0.2,0.7l-1,4.4L401.1,390.8z"/>
					</g>
				</g>
				<g>
					<g>
						<path class="st18" d="M402.8,382.3c-0.5,1-1.6,1.6-2.7,1.4c-1.5-0.2-2.5-1.5-2.3-3l1.6-13.5c0.2-1.5,1.5-2.5,3-2.3
							s2.5,1.5,2.3,3l-1.6,13.5C403,381.8,402.9,382.1,402.8,382.3z"/>
					</g>
				</g>
				<g>
					<g>
						<path class="st18" d="M379.9,399.6c-0.6,0.6-1.1,1.3-1.5,2.1c-0.2,0.3-0.3,0.7-0.4,1.1s-0.2,0.7-0.3,1.1
							c-0.1,0.4-0.1,0.9-0.1,1.4c0,0.6,0.1,1.3,0.2,1.9c0.1,0.4,0.2,0.7,0.3,1.1c0.1,0.4,0.3,0.7,0.5,1.1c0.3,0.6,0.7,1.1,1.2,1.5
							c1.5,1.5,3.5,2.3,5.6,2.3h7.5c2.4,0,4.6-1.1,6-2.9c0.3-0.3,0.5-0.7,0.7-1.1c0.2-0.3,0.4-0.7,0.5-1c0-0.1,0.1-0.1,0.1-0.2
							c0.1-0.3,0.2-0.6,0.3-0.8c0-0.2,0.1-0.4,0.1-0.6c0.1-0.4,0.1-0.8,0.1-1.3v-0.1c0-0.4,0-0.8-0.1-1.2c-0.1-0.4-0.2-0.7-0.3-1.1
							c-0.1-0.4-0.3-0.7-0.5-1.1c-0.4-0.7-0.9-1.4-1.5-2c-1.5-1.5-3.5-2.3-5.6-2.3h-7.5C383.4,397.3,381.4,398.1,379.9,399.6z
							 M392.4,402.6h0.6c0.7,0,1.3,0.3,1.8,0.7c0,0,0,0.1,0.1,0.1c0.4,0.4,0.6,0.9,0.7,1.4c0,0.1,0,0.2,0,0.3c0,0.6-0.2,1.1-0.5,1.6
							c-0.4,0.5-1.1,0.9-1.8,0.9c-0.1,0-0.1,0-0.2,0h-2h-4.3h-1.2c-0.1,0-0.2,0-0.3,0c-0.5-0.1-1-0.3-1.4-0.6
							c-0.5-0.5-0.8-1.1-0.8-1.8c0-0.5,0.1-1,0.4-1.4c0.1-0.1,0.1-0.2,0.2-0.2c0.3-0.3,0.6-0.5,1-0.7l0,0c0.3-0.1,0.6-0.2,1-0.2h0.8
							h4.5L392.4,402.6z"/>
					</g>
				</g>
				<g>
					<g>
						<path class="st18" d="M394.7,404.7c-0.8,0.8-2,1.1-3,0.6c-1.4-0.6-2-2.2-1.4-3.5l5.5-12.4c0.6-1.4,2.2-2,3.5-1.4
							c1.4,0.6,2,2.2,1.4,3.5l-5.5,12.4C395.1,404.2,394.9,404.4,394.7,404.7z"/>
					</g>
				</g>
				<g>
					<g>
						<path class="st18" d="M358.5,392.3c-0.8,0.4-1.5,0.9-2.1,1.5c-0.3,0.3-0.5,0.6-0.8,0.9c-0.2,0.3-0.4,0.6-0.6,0.9
							c-0.2,0.4-0.4,0.8-0.5,1.3c-0.2,0.6-0.3,1.2-0.4,1.8c0,0.4,0,0.8,0,1.1c0,0.4,0.1,0.8,0.2,1.2c0.1,0.6,0.4,1.3,0.7,1.9
							c0.9,1.9,2.6,3.3,4.5,4l7.1,2.4c2.3,0.8,4.7,0.4,6.6-0.8c0.4-0.2,0.7-0.5,1-0.8s0.6-0.5,0.8-0.8c0.1-0.1,0.1-0.1,0.2-0.2
							c0.2-0.2,0.4-0.5,0.5-0.7s0.2-0.4,0.3-0.6c0.2-0.4,0.4-0.8,0.5-1.2v-0.1c0.1-0.4,0.2-0.8,0.3-1.2c0.1-0.4,0.1-0.7,0.1-1.1
							s0-0.8-0.1-1.2c-0.1-0.8-0.4-1.6-0.8-2.4c-0.9-1.9-2.6-3.3-4.5-4l-7.1-2.4C362.5,391.2,360.4,391.3,358.5,392.3z M369.4,399.1
							l0.6,0.2c0.6,0.2,1.1,0.7,1.4,1.3v0.1c0.2,0.5,0.3,1,0.2,1.5c0,0.1,0,0.2-0.1,0.3c-0.2,0.6-0.5,1-1,1.3
							c-0.6,0.4-1.3,0.5-2,0.3c-0.1,0-0.1,0-0.2,0l-1.9-0.6l-4.1-1.4l-1.1-0.4c-0.1,0-0.2-0.1-0.3-0.1c-0.5-0.2-0.9-0.6-1.1-1
							c-0.3-0.6-0.4-1.3-0.2-2c0.2-0.5,0.5-0.9,0.8-1.2c0.1-0.1,0.2-0.1,0.2-0.2c0.3-0.2,0.7-0.3,1.1-0.4l0,0c0.3,0,0.6,0,1,0.1
							l0.7,0.2l4.3,1.4L369.4,399.1z"/>
					</g>
				</g>
				<g>
					<g>
						<path class="st18" d="M384.1,402.7c0.9,0.6,1.4,1.8,1.1,2.9c-0.4,1.4-1.8,2.3-3.3,2l-13.1-3.3c-1.4-0.4-2.3-1.8-2-3.3
							c0.4-1.4,1.8-2.3,3.3-2l13.1,3.3C383.6,402.4,383.9,402.5,384.1,402.7z"/>
					</g>
				</g>
				<g>
					<g>
						<path class="st18" d="M354,370.6c-0.8-0.3-1.6-0.5-2.5-0.6c-0.4,0-0.8,0-1.2,0c-0.4,0-0.7,0.1-1.1,0.2s-0.9,0.2-1.3,0.4
							c-0.6,0.2-1.1,0.6-1.6,0.9c-0.3,0.2-0.6,0.5-0.9,0.7c-0.3,0.3-0.5,0.6-0.8,0.9c-0.4,0.5-0.7,1.1-1,1.7c-0.8,2-0.8,4.1,0,6
							l2.9,6.9c0.9,2.2,2.8,3.8,5,4.5c0.4,0.1,0.8,0.2,1.3,0.3c0.4,0.1,0.8,0.1,1.2,0.1c0.1,0,0.2,0,0.2,0c0.3,0,0.6,0,0.9-0.1
							c0.2,0,0.4-0.1,0.6-0.1c0.4-0.1,0.8-0.2,1.2-0.4c0,0,0.1,0,0.1-0.1c0.4-0.2,0.7-0.4,1.1-0.6c0.3-0.2,0.6-0.4,0.9-0.7
							c0.3-0.3,0.6-0.5,0.8-0.8c0.5-0.6,1-1.4,1.3-2.2c0.8-2,0.8-4.1,0-6l-2.9-6.9C357.5,372.9,356,371.4,354,370.6z M356.1,383.3
							l0.2,0.6c0.3,0.6,0.3,1.3,0,1.9v0.1c-0.2,0.5-0.6,0.9-1,1.1c-0.1,0-0.2,0.1-0.3,0.1c-0.5,0.2-1.1,0.3-1.6,0.1
							c-0.7-0.2-1.2-0.6-1.6-1.3c0,0-0.1-0.1-0.1-0.2l-0.8-1.8l-1.7-4l-0.5-1.1c0-0.1-0.1-0.2-0.1-0.3c-0.1-0.5-0.1-1,0-1.5
							c0.2-0.6,0.7-1.2,1.4-1.5c0.5-0.2,1-0.2,1.4-0.2c0.1,0,0.2,0,0.3,0.1c0.4,0.1,0.7,0.3,1,0.6l0,0c0.2,0.2,0.4,0.5,0.6,0.8
							l0.3,0.7l1.8,4.2L356.1,383.3z"/>
					</g>
				</g>
				<g>
					<g>
						<path class="st18" d="M363.3,398.2c0.1,1.1-0.4,2.2-1.5,2.7c-1.3,0.7-2.9,0.1-3.6-1.2l-6-12.1c-0.7-1.3-0.1-2.9,1.2-3.6
							c1.3-0.7,2.9-0.1,3.6,1.2l6,12.1C363.2,397.5,363.3,397.8,363.3,398.2z"/>
					</g>
				</g>
				<g>
					<g>
						<path class="st18" d="M347.3,348.2c-0.8-0.4-1.6-0.7-2.4-0.8c-0.4-0.1-0.8-0.1-1.2-0.1c-0.4,0-0.7,0-1.1,0.1s-0.9,0.2-1.3,0.3
							c-0.6,0.2-1.2,0.4-1.7,0.8c-0.3,0.2-0.6,0.4-0.9,0.6c-0.3,0.3-0.6,0.5-0.9,0.8c-0.4,0.5-0.8,1-1.1,1.6c-1,1.9-1.2,4-0.6,6
							l2.2,7.2c0.7,2.3,2.4,4.1,4.5,4.9c0.4,0.2,0.8,0.3,1.2,0.4c0.4,0.1,0.8,0.2,1.2,0.2c0.1,0,0.2,0,0.2,0c0.3,0,0.6,0,0.9,0
							c0.2,0,0.4,0,0.6-0.1c0.4-0.1,0.8-0.2,1.2-0.3h0.1c0.4-0.1,0.8-0.3,1.1-0.5c0.3-0.2,0.7-0.4,1-0.6s0.6-0.5,0.9-0.8
							c0.6-0.6,1.1-1.3,1.5-2c1-1.9,1.2-4,0.6-6l-2.2-7.2C350.6,350.8,349.2,349.2,347.3,348.2z M348.1,361l0.2,0.6
							c0.2,0.6,0.1,1.3-0.2,1.9c0,0,0,0.1-0.1,0.1c-0.3,0.5-0.7,0.8-1.1,1c-0.1,0-0.2,0.1-0.3,0.1c-0.6,0.2-1.1,0.1-1.6-0.1
							c-0.6-0.3-1.2-0.8-1.4-1.4c0-0.1,0-0.1-0.1-0.2l-0.6-1.9l-1.3-4.1l-0.4-1.2c0-0.1-0.1-0.2-0.1-0.3c-0.1-0.5,0-1,0.2-1.5
							c0.3-0.6,0.8-1.1,1.5-1.3c0.5-0.2,1-0.1,1.4,0c0.1,0,0.2,0.1,0.3,0.1c0.4,0.2,0.7,0.4,0.9,0.7l0,0c0.2,0.2,0.4,0.5,0.5,0.9
							l0.2,0.7l1.3,4.3L348.1,361z"/>
					</g>
				</g>
				<g>
					<g>
						<path class="st18" d="M346,354.7c0,1.1-0.7,2.1-1.8,2.5c-1.4,0.5-2.9-0.3-3.4-1.7l-4.3-12.9c-0.5-1.4,0.3-2.9,1.7-3.4
							c1.4-0.5,2.9,0.3,3.4,1.7l4.3,12.9C346,354.1,346,354.4,346,354.7z"/>
					</g>
				</g>
				<g>
					<g>
						<path class="st18" d="M353.9,376.9c0,1.1-0.7,2.1-1.8,2.5c-1.4,0.5-2.9-0.2-3.4-1.6L344,365c-0.5-1.4,0.2-2.9,1.6-3.4
							s2.9,0.2,3.4,1.6l4.6,12.7C353.9,376.2,353.9,376.6,353.9,376.9z"/>
					</g>
				</g>
				<g>
					<path class="st15" d="M501.3,330.1L501.3,330.1c0,16.6-9.8,30.9-23.9,37.6c-5.3,2.5-11.3,3.9-17.6,3.9c-3.3,0-6.6-0.4-9.7-1.1
						c-5.9-1.4-11.4-4.1-16-7.8c-5-4-9.1-9.1-11.9-15l0,0c-2.5-5.3-3.9-11.3-3.9-17.6c0-4.3,0.6-8.4,1.8-12.2l0,0
						c2.2-7.1,6.3-13.5,11.7-18.4l0,0c7.4-6.7,17.2-10.8,27.9-10.9l0,0c6.7,0,13,1.6,18.5,4.4c5.4,2.7,10.1,6.6,13.9,11.2
						C497.9,311.4,501.3,320.3,501.3,330.1z"/>
					<path class="st19" d="M507.8,330.1c0-26.5-21.5-48-48-48s-48,21.5-48,48s21.5,48,48,48S507.8,356.6,507.8,330.1z M504.6,330.1
						c0,24.7-20,44.7-44.7,44.7s-44.7-20-44.7-44.7s20-44.7,44.7-44.7C484.5,285.4,504.6,305.4,504.6,330.1z"/>
					<path d="M459.8,278.9c-28.3,0-51.2,23-51.2,51.2s23,51.2,51.2,51.2s51.2-23,51.2-51.2S488.1,278.9,459.8,278.9z M411.8,330.1
						c0-26.5,21.5-48,48-48s48,21.5,48,48s-21.5,48-48,48S411.8,356.6,411.8,330.1z"/>
					<path d="M459.8,285.4c-24.7,0-44.7,20-44.7,44.7s20,44.7,44.7,44.7s44.7-20,44.7-44.7C504.6,305.4,484.5,285.4,459.8,285.4z
						 M418.3,330.1c0-22.9,18.6-41.5,41.5-41.5s41.5,18.6,41.5,41.5s-18.6,41.5-41.5,41.5S418.3,353,418.3,330.1z"/>
					<g class="st20">
						<path class="st9" d="M459.8,288.7l-37.5,59c-2.5-5.3-3.9-11.3-3.9-17.6c0-4.3,0.6-8.4,1.8-12.2l0,0l11.7-18.4l0,0
							C439.2,292.8,449,288.7,459.8,288.7z"/>
						<path class="st9" d="M492.2,304.3l-42.1,66.2c-5.9-1.4-11.4-4.1-16-7.8l44.2-69.6C483.8,295.7,488.5,299.6,492.2,304.3z"/>
						<path class="st9" d="M501.3,330.1L501.3,330.1c0,16.6-9.8,30.9-23.9,37.6L501.3,330.1z"/>
					</g>
				</g>
				<g>
					<g>
						<path class="st18" d="M333,302.3c-0.8-0.4-1.6-0.7-2.4-0.8c-0.4-0.1-0.8-0.1-1.2-0.1c-0.4,0-0.7,0-1.1,0s-0.9,0.1-1.3,0.3
							c-0.6,0.2-1.2,0.4-1.7,0.7c-0.3,0.2-0.6,0.4-0.9,0.6s-0.6,0.5-0.9,0.8c-0.4,0.5-0.8,1-1.2,1.6c-1,1.8-1.2,4-0.7,6l2.1,7.2
							c0.7,2.3,2.3,4.1,4.4,5c0.4,0.2,0.8,0.3,1.2,0.4c0.4,0.1,0.8,0.2,1.1,0.2c0.1,0,0.2,0,0.2,0c0.3,0,0.6,0,0.9,0
							c0.2,0,0.4,0,0.6-0.1c0.4-0.1,0.8-0.1,1.2-0.3h0.1c0.4-0.1,0.8-0.3,1.1-0.4c0.3-0.2,0.7-0.4,1-0.6s0.6-0.5,0.9-0.7
							c0.6-0.6,1.1-1.2,1.6-2c1-1.8,1.2-4,0.7-6l-2.1-7.2C336.2,304.9,334.9,303.3,333,302.3z M333.6,315.1l0.2,0.6
							c0.2,0.6,0.1,1.3-0.2,1.9c0,0,0,0.1-0.1,0.1c-0.3,0.5-0.7,0.8-1.2,1c-0.1,0-0.2,0.1-0.3,0.1c-0.6,0.2-1.1,0.1-1.6-0.1
							c-0.6-0.3-1.2-0.8-1.4-1.5c0-0.1,0-0.1-0.1-0.2l-0.6-1.9l-1.2-4.2l-0.3-1.2c0-0.1-0.1-0.2-0.1-0.3c-0.1-0.5,0-1,0.2-1.5
							c0.3-0.6,0.8-1.1,1.5-1.3c0.5-0.1,1-0.1,1.4,0c0.1,0,0.2,0.1,0.3,0.1c0.4,0.2,0.7,0.4,0.9,0.7l0,0c0.2,0.2,0.4,0.5,0.5,0.9
							l0.2,0.7l1.3,4.3L333.6,315.1z"/>
					</g>
				</g>
				<g>
					<g>
						<path class="st18" d="M338.7,331.5c0,1.1-0.7,2.1-1.8,2.5c-1.4,0.5-2.9-0.3-3.4-1.7l-4.3-12.9c-0.5-1.4,0.3-2.9,1.7-3.4
							c1.4-0.5,2.9,0.3,3.4,1.7l4.3,12.9C338.7,330.8,338.7,331.2,338.7,331.5z"/>
					</g>
				</g>
				<g>
					<g>
						<path class="st18" d="M318.1,278.6c-0.8-0.2-1.7-0.2-2.5-0.1c-0.4,0-0.8,0.1-1.1,0.2c-0.4,0.1-0.7,0.2-1,0.4
							c-0.4,0.2-0.8,0.4-1.2,0.7c-0.5,0.4-1,0.8-1.4,1.2c-0.3,0.3-0.5,0.6-0.7,0.9s-0.4,0.7-0.6,1c-0.3,0.6-0.5,1.2-0.6,1.9
							c-0.4,2.1,0,4.2,1.2,5.9l4.2,6.2c1.3,2,3.5,3.2,5.7,3.5c0.4,0,0.9,0.1,1.3,0c0.4,0,0.8-0.1,1.2-0.1c0.1,0,0.2,0,0.2,0
							c0.3-0.1,0.6-0.2,0.8-0.2c0.2-0.1,0.4-0.2,0.6-0.2c0.4-0.2,0.8-0.4,1.1-0.6c0,0,0.1,0,0.1-0.1c0.3-0.2,0.6-0.5,0.9-0.8
							s0.5-0.5,0.8-0.8c0.2-0.3,0.5-0.6,0.7-1c0.4-0.7,0.7-1.5,0.9-2.4c0.4-2.1,0-4.2-1.2-5.9l-4.2-6.2
							C321.9,280.2,320.2,279,318.1,278.6z M322.5,290.7l0.3,0.5c0.4,0.6,0.5,1.2,0.4,1.9v0.1c-0.1,0.5-0.4,1-0.8,1.3
							c-0.1,0.1-0.2,0.1-0.2,0.2c-0.5,0.3-1,0.5-1.6,0.4c-0.7-0.1-1.3-0.4-1.8-1l-0.1-0.1l-1.1-1.7l-2.4-3.6l-0.7-1
							c-0.1-0.1-0.1-0.2-0.2-0.3c-0.2-0.5-0.3-1-0.2-1.5c0.1-0.7,0.5-1.3,1.1-1.7c0.4-0.3,0.9-0.4,1.4-0.4c0.1,0,0.2,0,0.3,0
							c0.4,0,0.8,0.2,1.1,0.4l0,0c0.3,0.2,0.5,0.4,0.7,0.7l0.4,0.6l2.5,3.8L322.5,290.7z"/>
					</g>
				</g>
				<g>
					<g>
						<path class="st18" d="M330.7,307c0.1,1.1-0.5,2.2-1.5,2.7c-1.3,0.7-2.9,0.1-3.6-1.2l-5.9-12.2c-0.7-1.3-0.1-2.9,1.2-3.6
							c1.3-0.7,2.9-0.1,3.6,1.2l5.9,12.2C330.6,306.4,330.7,306.7,330.7,307z"/>
					</g>
				</g>
			</g>
		</g>
	</g>
</g>
<g id="battrey" class="st6">
	<g id="battery" class="st7">
		<rect x="895.7" y="20.4" class="st21" width="83.6" height="147.4"/>
		<g>
			<g>
				<g>
					<path class="st9" d="M961.3,41.6v107.8h-47.7V41.6H961.3L961.3,41.6z M961.3,37.9h-47.7c-2,0-3.7,1.6-3.7,3.7v107.8
						c0,2,1.6,3.7,3.7,3.7h47.7c2,0,3.7-1.6,3.7-3.7V41.6C965,39.6,963.3,37.9,961.3,37.9L961.3,37.9z"/>
				</g>
			</g>
			<g>
				<path class="st9" d="M945.8,41.6h-16.7v-4.1c0-2.6,2.1-4.7,4.7-4.7h7.4c2.6,0,4.7,2.1,4.7,4.7v4.1H945.8z"/>
			</g>
			<g>
				<path class="st22" d="M954.6,45.5l-37.5,26.3V49.5c0-2.3,1.9-4.2,4.2-4.2h32.3C954,45.3,954.3,45.3,954.6,45.5z"/>
			</g>
			<g>
				<path class="st22" d="M957.8,49.5v18.9L917.1,97V77.5L957.7,49C957.8,49.2,957.8,49.3,957.8,49.5z"/>
			</g>
			<g>
				<polygon class="st22" points="957.8,74.1 957.8,93.5 917.1,122.1 917.1,102.6 				"/>
			</g>
			<g>
				<path class="st22" d="M957.8,99.2v19.4l-38.4,26.9c-1.4-0.7-2.3-2.1-2.3-3.7v-14.1L957.8,99.2z"/>
			</g>
			<g>
				<path class="st22" d="M926.9,146l30.9-21.7v17.5c0,2.3-1.9,4.2-4.2,4.2H926.9z"/>
			</g>
		</g>
	</g>
</g>
<g id="spark_1_" class="st6">
	<g id="spark" class="st7">
		<g class="st23">
			
				<radialGradient id="SVGID_1_" cx="538.9672" cy="841.8073" r="52.9368" gradientTransform="matrix(0.888 -0.4599 -0.4599 -0.888 447.5347 1153.5751)" gradientUnits="userSpaceOnUse">
				<stop  offset="0" style="stop-color:#FFFFFF"/>
				<stop  offset="1" style="stop-color:#FFFFFF;stop-opacity:0"/>
			</radialGradient>
			<polygon class="st24" points="573.3,224.6 531.8,153 504.6,91.8 538.9,149.3 			"/>
			
				<radialGradient id="SVGID_2_" cx="538.9661" cy="841.8301" r="52.9539" gradientTransform="matrix(0.888 -0.4599 -0.4599 -0.888 447.5347 1153.5751)" gradientUnits="userSpaceOnUse">
				<stop  offset="0" style="stop-color:#FFFFFF"/>
				<stop  offset="1" style="stop-color:#FFFFFF;stop-opacity:0"/>
			</radialGradient>
			<polygon class="st25" points="472.6,192.6 537.1,154.6 605.4,123.8 540.8,161.7 			"/>
			
				<radialGradient id="SVGID_3_" cx="538.9447" cy="841.8517" r="19.4775" gradientTransform="matrix(0.888 -0.4599 -0.4599 -0.888 447.5347 1153.5751)" gradientUnits="userSpaceOnUse">
				<stop  offset="0" style="stop-color:#FFFFFF"/>
				<stop  offset="1" style="stop-color:#FFFFFF;stop-opacity:0"/>
			</radialGradient>
			<polygon class="st26" points="512.7,149.8 539.4,156.8 565.2,166.5 538.5,159.6 			"/>
			
				<radialGradient id="SVGID_4_" cx="538.9447" cy="841.8517" r="19.4775" gradientTransform="matrix(0.888 -0.4599 -0.4599 -0.888 447.5347 1153.5751)" gradientUnits="userSpaceOnUse">
				<stop  offset="0" style="stop-color:#FFFFFF"/>
				<stop  offset="1" style="stop-color:#FFFFFF;stop-opacity:0"/>
			</radialGradient>
			<polygon class="st27" points="547.3,131.9 540.4,158.6 530.6,184.4 537.6,157.7 			"/>
		</g>
		<g class="st23">
			
				<radialGradient id="SVGID_5_" cx="490.805" cy="875.365" r="14.8983" gradientTransform="matrix(0.888 -0.4599 -0.4599 -0.888 447.5347 1153.5751)" gradientUnits="userSpaceOnUse">
				<stop  offset="0" style="stop-color:#FFFFFF"/>
				<stop  offset="1" style="stop-color:#FFFFFF;stop-opacity:0"/>
			</radialGradient>
			<polygon class="st28" points="490.4,169.2 478.7,149.1 471.1,131.9 480.8,148 			"/>
			
				<radialGradient id="SVGID_6_" cx="490.805" cy="875.3929" r="14.8786" gradientTransform="matrix(0.888 -0.4599 -0.4599 -0.888 447.5347 1153.5751)" gradientUnits="userSpaceOnUse">
				<stop  offset="0" style="stop-color:#FFFFFF"/>
				<stop  offset="1" style="stop-color:#FFFFFF;stop-opacity:0"/>
			</radialGradient>
			<polygon class="st29" points="462.1,160.2 480.2,149.5 499.4,140.9 481.3,151.5 			"/>
			
				<radialGradient id="SVGID_7_" cx="490.805" cy="875.3929" r="5.4762" gradientTransform="matrix(0.888 -0.4599 -0.4599 -0.888 447.5347 1153.5751)" gradientUnits="userSpaceOnUse">
				<stop  offset="0" style="stop-color:#FFFFFF"/>
				<stop  offset="1" style="stop-color:#FFFFFF;stop-opacity:0"/>
			</radialGradient>
			<polygon class="st30" points="473.4,148.2 480.9,150.1 488.1,152.9 480.6,150.9 			"/>
			
				<radialGradient id="SVGID_8_" cx="490.805" cy="875.3929" r="5.4762" gradientTransform="matrix(0.888 -0.4599 -0.4599 -0.888 447.5347 1153.5751)" gradientUnits="userSpaceOnUse">
				<stop  offset="0" style="stop-color:#FFFFFF"/>
				<stop  offset="1" style="stop-color:#FFFFFF;stop-opacity:0"/>
			</radialGradient>
			<polygon class="st31" points="483.1,143.1 481.2,150.6 478.4,157.9 480.4,150.4 			"/>
		</g>
		<g class="st23">
			
				<radialGradient id="SVGID_9_" cx="522.1693" cy="891.2656" r="20.0791" gradientTransform="matrix(0.888 -0.4599 -0.4599 -0.888 447.5347 1153.5751)" gradientUnits="userSpaceOnUse">
				<stop  offset="0" style="stop-color:#FFFFFF"/>
				<stop  offset="1" style="stop-color:#FFFFFF;stop-opacity:0"/>
			</radialGradient>
			<polygon class="st32" points="514.3,147.2 498.6,120 488.3,96.8 501.3,118.6 			"/>
			
				<radialGradient id="SVGID_10_" cx="522.1608" cy="891.29" r="20.0957" gradientTransform="matrix(0.888 -0.4599 -0.4599 -0.888 447.5347 1153.5751)" gradientUnits="userSpaceOnUse">
				<stop  offset="0" style="stop-color:#FFFFFF"/>
				<stop  offset="1" style="stop-color:#FFFFFF;stop-opacity:0"/>
			</radialGradient>
			<polygon class="st33" points="476.1,135 500.6,120.6 526.5,108.9 502,123.3 			"/>
			
				<radialGradient id="SVGID_11_" cx="522.1608" cy="891.29" r="7.3948" gradientTransform="matrix(0.888 -0.4599 -0.4599 -0.888 447.5347 1153.5751)" gradientUnits="userSpaceOnUse">
				<stop  offset="0" style="stop-color:#FFFFFF"/>
				<stop  offset="1" style="stop-color:#FFFFFF;stop-opacity:0"/>
			</radialGradient>
			<polygon class="st34" points="491.3,118.8 501.5,121.4 511.3,125.1 501.1,122.5 			"/>
			
				<radialGradient id="SVGID_12_" cx="522.1608" cy="891.29" r="7.4004" gradientTransform="matrix(0.888 -0.4599 -0.4599 -0.888 447.5347 1153.5751)" gradientUnits="userSpaceOnUse">
				<stop  offset="0" style="stop-color:#FFFFFF"/>
				<stop  offset="1" style="stop-color:#FFFFFF;stop-opacity:0"/>
			</radialGradient>
			<polygon class="st35" points="504.5,112 501.8,122.1 498.1,131.9 500.8,121.8 			"/>
		</g>
	</g>
</g>
</svg>
